G04*
G04 #@! TF.GenerationSoftware,Altium Limited,Altium Designer,22.11.1 (43)*
G04*
G04 Layer_Color=255*
%FSLAX25Y25*%
%MOIN*%
G70*
G04*
G04 #@! TF.SameCoordinates,6D67B21A-DBE7-4323-B212-FBECE55DCE4B*
G04*
G04*
G04 #@! TF.FilePolarity,Positive*
G04*
G01*
G75*
%ADD16R,0.03150X0.03937*%
%ADD17R,0.02400X0.04000*%
%ADD18R,0.03937X0.02362*%
%ADD19R,0.04000X0.02400*%
%ADD39O,0.10400X0.05200*%
%ADD40O,0.05512X0.04724*%
%ADD41R,0.05512X0.04724*%
%ADD42C,0.04724*%
%ADD43O,0.07000X0.06000*%
%ADD44R,0.07000X0.06000*%
%ADD45O,0.07874X0.08661*%
%ADD46R,0.07874X0.08661*%
%ADD47O,0.06000X0.07000*%
%ADD48R,0.06000X0.07000*%
D16*
X168500Y148500D02*
D03*
X162500D02*
D03*
X168500Y108500D02*
D03*
X162500D02*
D03*
X168500Y88000D02*
D03*
X162500D02*
D03*
Y128500D02*
D03*
X168500D02*
D03*
Y68000D02*
D03*
X162500D02*
D03*
X168500Y28000D02*
D03*
X162500D02*
D03*
X168500Y48000D02*
D03*
X162500D02*
D03*
X168500Y8000D02*
D03*
X162500D02*
D03*
X7000Y9000D02*
D03*
X13000D02*
D03*
D17*
X142000Y108500D02*
D03*
X148000D02*
D03*
X142000Y88000D02*
D03*
X148000D02*
D03*
X142000Y28000D02*
D03*
X148000D02*
D03*
X142000Y8000D02*
D03*
X148000D02*
D03*
X142000Y68000D02*
D03*
X148000D02*
D03*
X142000Y48000D02*
D03*
X148000D02*
D03*
X142000Y148500D02*
D03*
X148000D02*
D03*
X142000Y128500D02*
D03*
X148000D02*
D03*
X7000Y43500D02*
D03*
X13000D02*
D03*
X7000Y36500D02*
D03*
X13000D02*
D03*
X7000Y17000D02*
D03*
X13000D02*
D03*
D18*
X123063Y71740D02*
D03*
Y64260D02*
D03*
X130937Y68000D02*
D03*
X123063Y51740D02*
D03*
Y44260D02*
D03*
X130937Y48000D02*
D03*
X123063Y31740D02*
D03*
Y24260D02*
D03*
X130937Y28000D02*
D03*
Y8000D02*
D03*
X123063Y4260D02*
D03*
Y11740D02*
D03*
X130937Y108260D02*
D03*
X123063Y104520D02*
D03*
Y112000D02*
D03*
X130937Y88000D02*
D03*
X123063Y84260D02*
D03*
Y91740D02*
D03*
Y152240D02*
D03*
Y144760D02*
D03*
X130937Y148500D02*
D03*
Y128500D02*
D03*
X123063Y124760D02*
D03*
Y132240D02*
D03*
D19*
X110000Y51000D02*
D03*
Y45000D02*
D03*
Y91000D02*
D03*
Y85000D02*
D03*
Y71000D02*
D03*
Y65000D02*
D03*
Y31000D02*
D03*
Y25000D02*
D03*
Y11000D02*
D03*
Y5000D02*
D03*
Y105260D02*
D03*
Y111260D02*
D03*
Y131500D02*
D03*
Y125500D02*
D03*
Y145500D02*
D03*
Y151500D02*
D03*
D39*
X202000Y43750D02*
D03*
Y53750D02*
D03*
Y63750D02*
D03*
Y73750D02*
D03*
Y83750D02*
D03*
Y93750D02*
D03*
Y103750D02*
D03*
Y113750D02*
D03*
X232000Y83750D02*
D03*
Y93750D02*
D03*
Y73750D02*
D03*
Y63750D02*
D03*
Y113750D02*
D03*
Y103750D02*
D03*
Y53750D02*
D03*
Y43750D02*
D03*
D40*
X294500Y63986D02*
D03*
Y73829D02*
D03*
Y83671D02*
D03*
X260500Y73829D02*
D03*
Y83671D02*
D03*
Y63986D02*
D03*
Y54144D02*
D03*
Y93514D02*
D03*
X5000Y54000D02*
D03*
X15000Y64000D02*
D03*
Y74000D02*
D03*
Y84000D02*
D03*
Y94000D02*
D03*
Y104000D02*
D03*
X5000Y64000D02*
D03*
Y74000D02*
D03*
Y84000D02*
D03*
Y94000D02*
D03*
Y104000D02*
D03*
D41*
X294500Y93514D02*
D03*
X260500Y103356D02*
D03*
X15000Y54000D02*
D03*
D42*
X262500Y14000D02*
D03*
X210000Y24500D02*
D03*
X214000Y148500D02*
D03*
X7000Y29000D02*
D03*
X92500Y145500D02*
D03*
D43*
X245000Y14000D02*
D03*
X189000Y24000D02*
D03*
Y14000D02*
D03*
D44*
X245000Y24000D02*
D03*
X189000Y34000D02*
D03*
D45*
X224000Y14000D02*
D03*
D46*
X210000D02*
D03*
D47*
X184000Y148500D02*
D03*
X40500Y30500D02*
D03*
X50500D02*
D03*
X60500D02*
D03*
Y130000D02*
D03*
X50500D02*
D03*
X40500D02*
D03*
D48*
X194000Y148500D02*
D03*
X30500Y30500D02*
D03*
Y130000D02*
D03*
M02*
