G04*
G04 #@! TF.GenerationSoftware,Altium Limited,Altium Designer,22.11.1 (43)*
G04*
G04 Layer_Color=16711935*
%FSLAX25Y25*%
%MOIN*%
G70*
G04*
G04 #@! TF.SameCoordinates,6D67B21A-DBE7-4323-B212-FBECE55DCE4B*
G04*
G04*
G04 #@! TF.FilePolarity,Positive*
G04*
G01*
G75*
%ADD50C,0.00394*%
D50*
X124244Y62094D02*
Y73905D01*
X129756Y62094D02*
Y73905D01*
X124244D02*
X129756D01*
X124244Y62094D02*
X129756D01*
X124244Y42094D02*
Y53905D01*
X129756Y42094D02*
Y53905D01*
X124244D02*
X129756D01*
X124244Y42094D02*
X129756D01*
X124244Y22095D02*
Y33906D01*
X129756Y22095D02*
Y33906D01*
X124244D02*
X129756D01*
X124244Y22095D02*
X129756D01*
X124244Y2094D02*
X129756D01*
X124244Y13905D02*
X129756D01*
Y2094D02*
Y13905D01*
X124244Y2094D02*
Y13905D01*
Y102354D02*
X129756D01*
X124244Y114165D02*
X129756D01*
Y102354D02*
Y114165D01*
X124244Y102354D02*
Y114165D01*
Y82095D02*
X129756D01*
X124244Y93906D02*
X129756D01*
Y82095D02*
Y93906D01*
X124244Y82095D02*
Y93906D01*
Y142595D02*
Y154405D01*
X129756Y142595D02*
Y154405D01*
X124244D02*
X129756D01*
X124244Y142595D02*
X129756D01*
X124244Y122594D02*
X129756D01*
X124244Y134406D02*
X129756D01*
Y122594D02*
Y134406D01*
X124244Y122594D02*
Y134406D01*
M02*
