G04*
G04 #@! TF.GenerationSoftware,Altium Limited,Altium Designer,22.11.1 (43)*
G04*
G04 Layer_Color=16711935*
%FSLAX25Y25*%
%MOIN*%
G70*
G04*
G04 #@! TF.SameCoordinates,6D67B21A-DBE7-4323-B212-FBECE55DCE4B*
G04*
G04*
G04 #@! TF.FilePolarity,Negative*
G04*
G01*
G75*
%ADD24O,0.11200X0.06000*%
%ADD25O,0.06312X0.05524*%
%ADD26R,0.06312X0.05524*%
%ADD27C,0.05524*%
%ADD28O,0.07800X0.06800*%
%ADD29R,0.07800X0.06800*%
%ADD30O,0.08674X0.09461*%
%ADD31R,0.08674X0.09461*%
%ADD32O,0.06800X0.07800*%
%ADD33R,0.06800X0.07800*%
%ADD34C,0.06863*%
D24*
X202000Y43750D02*
D03*
Y53750D02*
D03*
Y63750D02*
D03*
Y73750D02*
D03*
Y83750D02*
D03*
Y93750D02*
D03*
Y103750D02*
D03*
Y113750D02*
D03*
X232000Y83750D02*
D03*
Y93750D02*
D03*
Y73750D02*
D03*
Y63750D02*
D03*
Y113750D02*
D03*
Y103750D02*
D03*
Y53750D02*
D03*
Y43750D02*
D03*
D25*
X294500Y63986D02*
D03*
Y73829D02*
D03*
Y83671D02*
D03*
X260500Y73829D02*
D03*
Y83671D02*
D03*
Y63986D02*
D03*
Y54144D02*
D03*
Y93514D02*
D03*
X5000Y54000D02*
D03*
X15000Y64000D02*
D03*
Y74000D02*
D03*
Y84000D02*
D03*
Y94000D02*
D03*
Y104000D02*
D03*
X5000Y64000D02*
D03*
Y74000D02*
D03*
Y84000D02*
D03*
Y94000D02*
D03*
Y104000D02*
D03*
D26*
X294500Y93514D02*
D03*
X260500Y103356D02*
D03*
X15000Y54000D02*
D03*
D27*
X262500Y14000D02*
D03*
X210000Y24500D02*
D03*
X214000Y148500D02*
D03*
X7000Y29000D02*
D03*
X92500Y145500D02*
D03*
D28*
X245000Y14000D02*
D03*
X189000Y24000D02*
D03*
Y14000D02*
D03*
D29*
X245000Y24000D02*
D03*
X189000Y34000D02*
D03*
D30*
X224000Y14000D02*
D03*
D31*
X210000D02*
D03*
D32*
X184000Y148500D02*
D03*
X40500Y30500D02*
D03*
X50500D02*
D03*
X60500D02*
D03*
Y130000D02*
D03*
X50500D02*
D03*
X40500D02*
D03*
D33*
X194000Y148500D02*
D03*
X30500Y30500D02*
D03*
Y130000D02*
D03*
D34*
X88500Y5000D02*
D03*
X23500Y13000D02*
D03*
X110000Y18500D02*
D03*
Y139000D02*
D03*
Y119000D02*
D03*
Y98760D02*
D03*
Y78500D02*
D03*
Y58500D02*
D03*
Y38500D02*
D03*
X172500Y78000D02*
D03*
X155500D02*
D03*
Y18000D02*
D03*
Y38000D02*
D03*
Y58000D02*
D03*
M02*
