G04*
G04 #@! TF.GenerationSoftware,Altium Limited,Altium Designer,22.11.1 (43)*
G04*
G04 Layer_Color=32768*
%FSLAX25Y25*%
%MOIN*%
G70*
G04*
G04 #@! TF.SameCoordinates,6D67B21A-DBE7-4323-B212-FBECE55DCE4B*
G04*
G04*
G04 #@! TF.FilePolarity,Positive*
G04*
G01*
G75*
%ADD50C,0.00394*%
D50*
X120701Y61701D02*
Y74299D01*
X133299Y61701D02*
Y74299D01*
X120701D02*
X133299D01*
X120701Y61701D02*
X133299D01*
X125031Y68000D02*
X128969D01*
X127000Y66031D02*
Y69968D01*
X120701Y41701D02*
Y54299D01*
X133299Y41701D02*
Y54299D01*
X120701D02*
X133299D01*
X120701Y41701D02*
X133299D01*
X125031Y48000D02*
X128969D01*
X127000Y46031D02*
Y49968D01*
X120701Y21701D02*
Y34299D01*
X133299Y21701D02*
Y34299D01*
X120701D02*
X133299D01*
X120701Y21701D02*
X133299D01*
X125031Y28000D02*
X128969D01*
X127000Y26032D02*
Y29969D01*
Y6032D02*
Y9968D01*
X125031Y8000D02*
X128969D01*
X120701Y1701D02*
X133299D01*
X120701Y14299D02*
X133299D01*
Y1701D02*
Y14299D01*
X120701Y1701D02*
Y14299D01*
X127000Y106291D02*
Y110228D01*
X125031Y108260D02*
X128969D01*
X120701Y101961D02*
X133299D01*
X120701Y114559D02*
X133299D01*
Y101961D02*
Y114559D01*
X120701Y101961D02*
Y114559D01*
X127000Y86032D02*
Y89969D01*
X125031Y88000D02*
X128969D01*
X120701Y81701D02*
X133299D01*
X120701Y94299D02*
X133299D01*
Y81701D02*
Y94299D01*
X120701Y81701D02*
Y94299D01*
Y142201D02*
Y154799D01*
X133299Y142201D02*
Y154799D01*
X120701D02*
X133299D01*
X120701Y142201D02*
X133299D01*
X125031Y148500D02*
X128969D01*
X127000Y146531D02*
Y150469D01*
Y126532D02*
Y130468D01*
X125031Y128500D02*
X128969D01*
X120701Y122201D02*
X133299D01*
X120701Y134799D02*
X133299D01*
Y122201D02*
Y134799D01*
X120701Y122201D02*
Y134799D01*
M02*
