M48
;Layer_Color=9474304
;FILE_FORMAT=2:5
INCH,LZ
;TYPE=PLATED
T1F00S00C0.03150
T2F00S00C0.03200
T3F00S00C0.03500
T4F00S00C0.03937
T5F00S00C0.04724
%
T01
X0007Y0029
X0005Y0054
X0015
X021Y00245
X02625Y0014
X02605Y0054144
Y0063986
Y0073829
Y0083671
Y0093514
Y0103356
X02945Y0093514
Y0083671
Y0073829
Y0063986
X0214Y01485
X00925Y01455
X0015Y0104
Y0094
Y0084
Y0074
Y0064
X0005
Y0074
Y0084
Y0094
Y0104
T02
X0202Y004375
Y005375
X0232
Y004375
Y006375
Y007375
Y008375
Y009375
Y010375
Y011375
X0202
Y010375
Y009375
Y008375
Y007375
Y006375
T03
X00305Y00305
X00405
X00505
X00605
X0189Y0034
Y0024
Y0014
X0245
Y0024
X0194Y01485
X0184
X00605Y013
X00505
X00405
X00305
T04
X00235Y0013
X00885Y0005
X011Y00185
Y00385
X01555Y0038
Y0018
Y0058
Y0078
X01725
X011Y00785
Y00585
Y009876
Y0119
Y0139
T05
X021Y0014
X0224
M30
