G04*
G04 #@! TF.GenerationSoftware,Altium Limited,Altium Designer,22.11.1 (43)*
G04*
G04 Layer_Physical_Order=1*
G04 Layer_Color=255*
%FSLAX25Y25*%
%MOIN*%
G70*
G04*
G04 #@! TF.SameCoordinates,6D67B21A-DBE7-4323-B212-FBECE55DCE4B*
G04*
G04*
G04 #@! TF.FilePolarity,Positive*
G04*
G01*
G75*
%ADD14C,0.01000*%
%ADD16R,0.03150X0.03937*%
%ADD17R,0.02400X0.04000*%
%ADD18R,0.03937X0.02362*%
%ADD19R,0.04000X0.02400*%
%ADD35C,0.02000*%
%ADD36C,0.04000*%
%ADD37C,0.02500*%
%ADD38C,0.05000*%
%ADD39O,0.10400X0.05200*%
%ADD40O,0.05512X0.04724*%
%ADD41R,0.05512X0.04724*%
%ADD42C,0.04724*%
%ADD43O,0.07000X0.06000*%
%ADD44R,0.07000X0.06000*%
%ADD45O,0.07874X0.08661*%
%ADD46R,0.07874X0.08661*%
%ADD47O,0.06000X0.07000*%
%ADD48R,0.06000X0.07000*%
%ADD49C,0.06063*%
G36*
X107000Y146500D02*
Y146000D01*
X110000D01*
Y145500D01*
X110500D01*
Y143300D01*
X113000D01*
Y144500D01*
X116500D01*
Y145732D01*
X120095D01*
Y145260D01*
X123063D01*
X126031D01*
Y145732D01*
X139800D01*
Y145500D01*
X144200D01*
Y145732D01*
X145800D01*
Y145500D01*
X150200D01*
Y145732D01*
X159925D01*
Y145531D01*
X165075D01*
X165075Y145531D01*
X166490Y145327D01*
Y132000D01*
X133905D01*
Y133700D01*
X126031D01*
Y134421D01*
X120095D01*
Y134250D01*
X113740D01*
X113348Y134211D01*
X112971Y134097D01*
X112624Y133911D01*
X112378Y133710D01*
X96132D01*
X81852Y147990D01*
X82461Y149490D01*
X88935D01*
X89504Y148242D01*
X89543Y147990D01*
X89282Y147650D01*
X89029Y147212D01*
X88835Y146744D01*
X88704Y146255D01*
X88703Y146250D01*
X96297D01*
X96296Y146255D01*
X96165Y146744D01*
X95971Y147212D01*
X95718Y147650D01*
X95457Y147990D01*
X95496Y148242D01*
X96065Y149490D01*
X107000D01*
Y146500D01*
D02*
G37*
G36*
X313493Y1507D02*
X127295D01*
X126031Y2079D01*
X126031Y3007D01*
Y3760D01*
X123063D01*
Y4760D01*
X126031D01*
Y5232D01*
X139800D01*
Y5000D01*
X144200D01*
Y5232D01*
X145800D01*
Y5000D01*
X150200D01*
Y5232D01*
X159925D01*
Y5032D01*
X165075D01*
Y5032D01*
X165925D01*
Y5032D01*
X171075D01*
Y11500D01*
X170510D01*
Y25032D01*
X171075D01*
Y31500D01*
X170510D01*
Y45031D01*
X171075D01*
Y51500D01*
X170510D01*
Y65031D01*
X171075D01*
Y71500D01*
X170510D01*
X170471Y71892D01*
X170357Y72269D01*
X170171Y72616D01*
X169921Y72921D01*
X169409Y73433D01*
X170255Y74641D01*
X170713Y74376D01*
X171201Y74174D01*
X171712Y74037D01*
X172236Y73968D01*
X172764D01*
X173288Y74037D01*
X173550Y74108D01*
X190579Y57079D01*
X190884Y56829D01*
X191231Y56643D01*
X191608Y56529D01*
X192000Y56490D01*
X195500D01*
Y50000D01*
X240500D01*
Y56490D01*
X242668D01*
X246435Y52723D01*
X246740Y52473D01*
X247087Y52287D01*
X247464Y52173D01*
X247856Y52134D01*
X257405D01*
X257433Y52092D01*
X257724Y51761D01*
X258055Y51471D01*
X258422Y51226D01*
X258817Y51031D01*
X259234Y50889D01*
X259666Y50803D01*
X260106Y50774D01*
X260894D01*
X261333Y50803D01*
X261766Y50889D01*
X262183Y51031D01*
X262578Y51226D01*
X262945Y51471D01*
X263276Y51761D01*
X263567Y52092D01*
X263595Y52134D01*
X269144D01*
X269536Y52173D01*
X269913Y52287D01*
X270260Y52473D01*
X270565Y52723D01*
X279819Y61976D01*
X291406D01*
X291433Y61935D01*
X291724Y61604D01*
X292055Y61313D01*
X292422Y61068D01*
X292817Y60873D01*
X293234Y60732D01*
X293667Y60646D01*
X294106Y60617D01*
X294894D01*
X295334Y60646D01*
X295766Y60732D01*
X296183Y60873D01*
X296578Y61068D01*
X296945Y61313D01*
X297276Y61604D01*
X297567Y61935D01*
X297812Y62301D01*
X298007Y62697D01*
X298148Y63114D01*
X298234Y63546D01*
X298263Y63986D01*
X298234Y64426D01*
X298148Y64858D01*
X298007Y65276D01*
X297812Y65671D01*
X297567Y66037D01*
X297276Y66369D01*
X296945Y66659D01*
X296578Y66904D01*
X296183Y67099D01*
X295766Y67241D01*
X295334Y67327D01*
X294894Y67356D01*
X294106D01*
X293667Y67327D01*
X293234Y67241D01*
X292817Y67099D01*
X292422Y66904D01*
X292055Y66659D01*
X291724Y66369D01*
X291433Y66037D01*
X291406Y65996D01*
X278986D01*
X278986Y65996D01*
X278594Y65957D01*
X278217Y65843D01*
X277870Y65657D01*
X277565Y65407D01*
X268311Y56153D01*
X263595D01*
X263567Y56195D01*
X263276Y56526D01*
X262945Y56817D01*
X262578Y57062D01*
X262183Y57257D01*
X261766Y57398D01*
X261333Y57484D01*
X260894Y57513D01*
X260106D01*
X259666Y57484D01*
X259234Y57398D01*
X258817Y57257D01*
X258422Y57062D01*
X258055Y56817D01*
X257724Y56526D01*
X257433Y56195D01*
X257405Y56153D01*
X248689D01*
X244921Y59921D01*
X244617Y60171D01*
X244269Y60357D01*
X243892Y60471D01*
X243500Y60510D01*
X240500D01*
Y71500D01*
X239734D01*
X239569Y71584D01*
X239144Y72053D01*
X239112Y72112D01*
X238500Y71500D01*
X196500D01*
X195409Y72591D01*
X195500Y71500D01*
X195500D01*
Y60510D01*
X192832D01*
X176392Y76950D01*
X176462Y77212D01*
X176532Y77736D01*
Y78264D01*
X176462Y78788D01*
X176326Y79299D01*
X176123Y79787D01*
X175859Y80245D01*
X175538Y80664D01*
X175164Y81037D01*
X174745Y81359D01*
X174287Y81624D01*
X173799Y81826D01*
X173288Y81963D01*
X172764Y82032D01*
X172236D01*
X171712Y81963D01*
X171255Y81840D01*
X171096Y81933D01*
X170541Y82504D01*
X170266Y83062D01*
X170357Y83231D01*
X170471Y83608D01*
X170510Y84000D01*
Y85031D01*
X171075D01*
Y91500D01*
X170510D01*
Y105532D01*
X171075D01*
Y112000D01*
X170510D01*
Y125531D01*
X171075D01*
Y132000D01*
X170510D01*
Y145531D01*
X171075D01*
Y146490D01*
X180288D01*
X180297Y146466D01*
X180528Y145996D01*
X180820Y145560D01*
X181166Y145166D01*
X181560Y144820D01*
X181996Y144528D01*
X182466Y144297D01*
X182963Y144128D01*
X183477Y144026D01*
X184000Y143991D01*
X184523Y144026D01*
X185038Y144128D01*
X185534Y144297D01*
X186004Y144528D01*
X186440Y144820D01*
X186835Y145166D01*
X187180Y145560D01*
X187471Y145996D01*
X187703Y146466D01*
X187872Y146962D01*
X187974Y147477D01*
X188009Y148000D01*
Y149000D01*
X187974Y149523D01*
X187872Y150038D01*
X187703Y150534D01*
X187471Y151004D01*
X187180Y151440D01*
X186835Y151834D01*
X186440Y152180D01*
X186004Y152471D01*
X185534Y152703D01*
X185038Y152872D01*
X184523Y152974D01*
X184000Y153009D01*
X183477Y152974D01*
X182963Y152872D01*
X182466Y152703D01*
X181996Y152471D01*
X181560Y152180D01*
X181166Y151834D01*
X180820Y151440D01*
X180528Y151004D01*
X180297Y150534D01*
X180288Y150510D01*
X171075D01*
Y152000D01*
X133905D01*
Y153710D01*
X126031D01*
Y154421D01*
X120095D01*
Y154250D01*
X113740D01*
X113348Y154211D01*
X112971Y154097D01*
X112624Y153911D01*
X112378Y153710D01*
X107000D01*
Y153510D01*
X42000D01*
X42000Y153510D01*
X41608Y153471D01*
X41231Y153357D01*
X40883Y153171D01*
X40579Y152921D01*
X29079Y141421D01*
X28829Y141116D01*
X28643Y140769D01*
X28529Y140392D01*
X28490Y140000D01*
Y134500D01*
X26500D01*
Y125500D01*
X28490D01*
Y119939D01*
X15882Y107331D01*
X15834Y107341D01*
X15394Y107369D01*
X14606D01*
X14166Y107341D01*
X13734Y107255D01*
X13317Y107113D01*
X12922Y106918D01*
X12555Y106673D01*
X12224Y106383D01*
X11933Y106051D01*
X11688Y105685D01*
X11493Y105289D01*
X11352Y104872D01*
X11266Y104440D01*
X11237Y104000D01*
X11266Y103560D01*
X11352Y103128D01*
X11493Y102711D01*
X11688Y102315D01*
X11933Y101949D01*
X12224Y101618D01*
X12555Y101327D01*
X12922Y101082D01*
X13317Y100887D01*
X13734Y100745D01*
X14166Y100659D01*
X14606Y100631D01*
X15394D01*
X15834Y100659D01*
X16266Y100745D01*
X16683Y100887D01*
X17078Y101082D01*
X17445Y101327D01*
X17776Y101618D01*
X18067Y101949D01*
X18312Y102315D01*
X18507Y102711D01*
X18648Y103128D01*
X18734Y103560D01*
X18763Y104000D01*
X18734Y104440D01*
X18724Y104489D01*
X31921Y117685D01*
X32171Y117990D01*
X32357Y118337D01*
X32471Y118714D01*
X32510Y119106D01*
Y125500D01*
X34500D01*
Y134500D01*
X32510D01*
Y139168D01*
X42832Y149490D01*
X44539D01*
X45148Y147990D01*
X39079Y141921D01*
X38829Y141616D01*
X38643Y141269D01*
X38529Y140892D01*
X38490Y140500D01*
Y133968D01*
X38060Y133680D01*
X37666Y133335D01*
X37320Y132940D01*
X37029Y132504D01*
X36797Y132034D01*
X36628Y131537D01*
X36526Y131023D01*
X36491Y130500D01*
Y129500D01*
X36526Y128977D01*
X36628Y128463D01*
X36797Y127966D01*
X37029Y127496D01*
X37320Y127060D01*
X37666Y126665D01*
X38060Y126320D01*
X38187Y126235D01*
Y119636D01*
X15882Y97331D01*
X15834Y97341D01*
X15394Y97369D01*
X14606D01*
X14166Y97341D01*
X13734Y97255D01*
X13317Y97113D01*
X12922Y96918D01*
X12555Y96673D01*
X12224Y96382D01*
X11933Y96051D01*
X11688Y95685D01*
X11493Y95289D01*
X11352Y94872D01*
X11266Y94440D01*
X11237Y94000D01*
X11266Y93560D01*
X11352Y93128D01*
X11493Y92711D01*
X11688Y92315D01*
X11933Y91949D01*
X12224Y91618D01*
X12555Y91327D01*
X12922Y91082D01*
X13317Y90887D01*
X13734Y90745D01*
X14166Y90659D01*
X14606Y90631D01*
X15394D01*
X15834Y90659D01*
X16266Y90745D01*
X16683Y90887D01*
X17078Y91082D01*
X17445Y91327D01*
X17776Y91618D01*
X18067Y91949D01*
X18312Y92315D01*
X18507Y92711D01*
X18648Y93128D01*
X18734Y93560D01*
X18763Y94000D01*
X18734Y94440D01*
X18724Y94489D01*
X41618Y117382D01*
X41868Y117687D01*
X42054Y118034D01*
X42168Y118411D01*
X42206Y118803D01*
Y125882D01*
X42504Y126029D01*
X42940Y126320D01*
X43334Y126665D01*
X43680Y127060D01*
X43971Y127496D01*
X44203Y127966D01*
X44372Y128463D01*
X44474Y128977D01*
X44509Y129500D01*
Y130500D01*
X44474Y131023D01*
X44372Y131537D01*
X44203Y132034D01*
X43971Y132504D01*
X43680Y132940D01*
X43334Y133335D01*
X42940Y133680D01*
X42510Y133968D01*
Y139668D01*
X47832Y144990D01*
X53174D01*
X53556Y144280D01*
X53663Y143490D01*
X53579Y143421D01*
X49079Y138921D01*
X48829Y138617D01*
X48643Y138269D01*
X48529Y137892D01*
X48490Y137500D01*
Y133968D01*
X48060Y133680D01*
X47666Y133335D01*
X47320Y132940D01*
X47028Y132504D01*
X46797Y132034D01*
X46628Y131537D01*
X46526Y131023D01*
X46491Y130500D01*
Y129500D01*
X46526Y128977D01*
X46628Y128463D01*
X46797Y127966D01*
X47028Y127496D01*
X47320Y127060D01*
X47666Y126665D01*
X48060Y126320D01*
X48490Y126032D01*
Y119939D01*
X15882Y87331D01*
X15834Y87341D01*
X15394Y87369D01*
X14606D01*
X14166Y87341D01*
X13734Y87255D01*
X13317Y87113D01*
X12922Y86918D01*
X12555Y86673D01*
X12224Y86383D01*
X11933Y86051D01*
X11688Y85685D01*
X11493Y85289D01*
X11352Y84872D01*
X11266Y84440D01*
X11237Y84000D01*
X11266Y83560D01*
X11352Y83128D01*
X11493Y82711D01*
X11688Y82315D01*
X11933Y81949D01*
X12224Y81617D01*
X12555Y81327D01*
X12922Y81082D01*
X13317Y80887D01*
X13734Y80745D01*
X14166Y80659D01*
X14606Y80631D01*
X15394D01*
X15834Y80659D01*
X16266Y80745D01*
X16683Y80887D01*
X17078Y81082D01*
X17445Y81327D01*
X17776Y81617D01*
X18067Y81949D01*
X18312Y82315D01*
X18507Y82711D01*
X18648Y83128D01*
X18734Y83560D01*
X18763Y84000D01*
X18734Y84440D01*
X18724Y84489D01*
X51921Y117685D01*
X52171Y117990D01*
X52357Y118337D01*
X52471Y118714D01*
X52510Y119106D01*
X52510Y119106D01*
Y126032D01*
X52940Y126320D01*
X53334Y126665D01*
X53680Y127060D01*
X53971Y127496D01*
X54203Y127966D01*
X54372Y128463D01*
X54474Y128977D01*
X54509Y129500D01*
Y130500D01*
X54474Y131023D01*
X54372Y131537D01*
X54203Y132034D01*
X53971Y132504D01*
X53680Y132940D01*
X53334Y133335D01*
X52940Y133680D01*
X52510Y133968D01*
Y136668D01*
X55832Y139990D01*
X73668D01*
X103619Y110039D01*
X103619Y110039D01*
X103924Y109789D01*
X104271Y109603D01*
X104648Y109489D01*
X105040Y109450D01*
X105040Y109450D01*
X107000D01*
Y106260D01*
Y105760D01*
X110000D01*
Y105260D01*
X110500D01*
Y103060D01*
X113000D01*
Y104260D01*
X116500D01*
Y105492D01*
X120095D01*
Y105020D01*
X123063D01*
X126031D01*
Y105492D01*
X133905D01*
Y105732D01*
X139800D01*
Y105500D01*
X144200D01*
Y105732D01*
X145800D01*
Y105500D01*
X150200D01*
Y105732D01*
X159925D01*
Y105532D01*
X165075D01*
X165075Y105532D01*
X166490Y105327D01*
Y91500D01*
X133905D01*
Y93210D01*
X126031D01*
Y93921D01*
X120095D01*
Y93750D01*
X113740D01*
X113348Y93711D01*
X112971Y93597D01*
X112624Y93411D01*
X112378Y93210D01*
X110944D01*
X110669Y93357D01*
X110292Y93471D01*
X109900Y93510D01*
X103832D01*
X100010Y97332D01*
Y110000D01*
X99971Y110392D01*
X99857Y110769D01*
X99671Y111117D01*
X99421Y111421D01*
X79421Y131421D01*
X79116Y131671D01*
X78769Y131857D01*
X78392Y131971D01*
X78000Y132010D01*
X64212D01*
X64203Y132034D01*
X63972Y132504D01*
X63680Y132940D01*
X63335Y133335D01*
X62940Y133680D01*
X62504Y133972D01*
X62034Y134203D01*
X61537Y134372D01*
X61023Y134474D01*
X60500Y134509D01*
X59977Y134474D01*
X59462Y134372D01*
X58966Y134203D01*
X58496Y133972D01*
X58060Y133680D01*
X57665Y133335D01*
X57320Y132940D01*
X57029Y132504D01*
X56797Y132034D01*
X56628Y131537D01*
X56526Y131023D01*
X56491Y130500D01*
Y129500D01*
X56526Y128977D01*
X56628Y128463D01*
X56797Y127966D01*
X57029Y127496D01*
X57320Y127060D01*
X57665Y126665D01*
X58060Y126320D01*
X58490Y126032D01*
Y119939D01*
X15882Y77331D01*
X15834Y77341D01*
X15394Y77369D01*
X14606D01*
X14166Y77341D01*
X13734Y77255D01*
X13317Y77113D01*
X12922Y76918D01*
X12555Y76673D01*
X12224Y76382D01*
X11933Y76051D01*
X11688Y75685D01*
X11493Y75289D01*
X11352Y74872D01*
X11266Y74440D01*
X11237Y74000D01*
X11266Y73560D01*
X11352Y73128D01*
X11493Y72711D01*
X11688Y72315D01*
X11933Y71949D01*
X12224Y71618D01*
X12555Y71327D01*
X12922Y71082D01*
X13317Y70887D01*
X13734Y70745D01*
X14166Y70659D01*
X14606Y70631D01*
X15394D01*
X15834Y70659D01*
X16266Y70745D01*
X16683Y70887D01*
X17078Y71082D01*
X17445Y71327D01*
X17776Y71618D01*
X18067Y71949D01*
X18312Y72315D01*
X18507Y72711D01*
X18648Y73128D01*
X18734Y73560D01*
X18763Y74000D01*
X18734Y74440D01*
X18724Y74489D01*
X61921Y117685D01*
X62171Y117990D01*
X62357Y118337D01*
X62471Y118714D01*
X62510Y119106D01*
Y126032D01*
X62940Y126320D01*
X63335Y126665D01*
X63680Y127060D01*
X63972Y127496D01*
X64203Y127966D01*
X64212Y127990D01*
X77168D01*
X95990Y109168D01*
Y96500D01*
X96029Y96108D01*
X96143Y95731D01*
X96329Y95384D01*
X96579Y95079D01*
X101579Y90079D01*
X101883Y89829D01*
X102231Y89643D01*
X102608Y89529D01*
X103000Y89490D01*
X107000D01*
Y86000D01*
Y85500D01*
X110000D01*
Y85000D01*
X110500D01*
Y82800D01*
X113000D01*
Y84000D01*
X116500D01*
Y85232D01*
X120095D01*
Y84760D01*
X123063D01*
X126031D01*
Y85232D01*
X139800D01*
Y85000D01*
X144200D01*
Y85232D01*
X145800D01*
Y85000D01*
X150200D01*
Y85232D01*
X159925D01*
Y85031D01*
X164568D01*
X165270Y83613D01*
X163579Y81921D01*
X163329Y81616D01*
X163143Y81269D01*
X163029Y80892D01*
X162990Y80500D01*
Y75000D01*
X163029Y74608D01*
X163143Y74231D01*
X163329Y73883D01*
X163579Y73579D01*
X164272Y72886D01*
X163698Y71500D01*
X133905D01*
Y73210D01*
X135289Y73490D01*
X148000D01*
X148392Y73529D01*
X148769Y73643D01*
X149117Y73829D01*
X149421Y74079D01*
X150692Y75350D01*
X150991Y75433D01*
X152462Y75336D01*
X152836Y74963D01*
X153255Y74641D01*
X153713Y74376D01*
X154201Y74174D01*
X154712Y74037D01*
X155236Y73968D01*
X155764D01*
X156288Y74037D01*
X156799Y74174D01*
X157287Y74376D01*
X157745Y74641D01*
X158164Y74963D01*
X158537Y75336D01*
X158859Y75755D01*
X159124Y76213D01*
X159326Y76701D01*
X159462Y77212D01*
X159531Y77736D01*
Y78264D01*
X159462Y78788D01*
X159326Y79299D01*
X159124Y79787D01*
X158859Y80245D01*
X158537Y80664D01*
X158164Y81037D01*
X157745Y81359D01*
X157287Y81624D01*
X156799Y81826D01*
X156288Y81963D01*
X155764Y82032D01*
X155236D01*
X154712Y81963D01*
X154201Y81826D01*
X153713Y81624D01*
X153255Y81359D01*
X152836Y81037D01*
X152462Y80664D01*
X152141Y80245D01*
X152005Y80010D01*
X150500D01*
X150108Y79971D01*
X149731Y79857D01*
X149383Y79671D01*
X149079Y79421D01*
X147168Y77510D01*
X129000D01*
X128608Y77471D01*
X128231Y77357D01*
X127884Y77171D01*
X127579Y76921D01*
X124579Y73921D01*
X120095D01*
Y73750D01*
X113740D01*
X113348Y73711D01*
X112971Y73597D01*
X112624Y73411D01*
X112378Y73210D01*
X104700D01*
X104700Y73210D01*
X104308Y73171D01*
X103931Y73057D01*
X103584Y72871D01*
X103279Y72621D01*
X91079Y60421D01*
X90829Y60116D01*
X90643Y59769D01*
X90529Y59392D01*
X90490Y59000D01*
Y39832D01*
X83168Y32510D01*
X64212D01*
X64203Y32534D01*
X63972Y33004D01*
X63680Y33440D01*
X63335Y33834D01*
X62940Y34180D01*
X62504Y34471D01*
X62034Y34703D01*
X61537Y34872D01*
X61023Y34974D01*
X60500Y35009D01*
X59977Y34974D01*
X59462Y34872D01*
X58966Y34703D01*
X58496Y34471D01*
X58060Y34180D01*
X57665Y33834D01*
X57320Y33440D01*
X57029Y33004D01*
X56797Y32534D01*
X56628Y32037D01*
X56526Y31523D01*
X56491Y31000D01*
Y30000D01*
X56526Y29477D01*
X56628Y28962D01*
X56797Y28466D01*
X57029Y27996D01*
X57320Y27560D01*
X57665Y27165D01*
X58060Y26820D01*
X58496Y26528D01*
X58966Y26297D01*
X59462Y26128D01*
X59977Y26026D01*
X60500Y25991D01*
X61023Y26026D01*
X61537Y26128D01*
X62034Y26297D01*
X62504Y26528D01*
X62940Y26820D01*
X63335Y27165D01*
X63680Y27560D01*
X63972Y27996D01*
X64203Y28466D01*
X64212Y28490D01*
X84000D01*
X84392Y28529D01*
X84769Y28643D01*
X85116Y28829D01*
X85421Y29079D01*
X93921Y37579D01*
X94171Y37883D01*
X94357Y38231D01*
X94471Y38608D01*
X94490Y38803D01*
X95990Y38730D01*
Y34832D01*
X85168Y24010D01*
X54832D01*
X53471Y25371D01*
X53346Y25713D01*
X53334Y27165D01*
X53680Y27560D01*
X53971Y27996D01*
X54203Y28466D01*
X54372Y28962D01*
X54474Y29477D01*
X54509Y30000D01*
Y31000D01*
X54474Y31523D01*
X54372Y32037D01*
X54203Y32534D01*
X53971Y33004D01*
X53680Y33440D01*
X53334Y33834D01*
X52940Y34180D01*
X52504Y34471D01*
X52034Y34703D01*
X51538Y34872D01*
X51023Y34974D01*
X50500Y35009D01*
X49977Y34974D01*
X49463Y34872D01*
X48966Y34703D01*
X48496Y34471D01*
X48060Y34180D01*
X47666Y33834D01*
X47320Y33440D01*
X47028Y33004D01*
X46797Y32534D01*
X46628Y32037D01*
X46526Y31523D01*
X46491Y31000D01*
Y30000D01*
X46526Y29477D01*
X46628Y28962D01*
X46797Y28466D01*
X47028Y27996D01*
X47320Y27560D01*
X47666Y27165D01*
X48060Y26820D01*
X48490Y26532D01*
Y25500D01*
X48529Y25108D01*
X48643Y24731D01*
X48829Y24384D01*
X49079Y24079D01*
X52579Y20579D01*
X52883Y20329D01*
X53231Y20143D01*
X53608Y20029D01*
X53803Y20010D01*
X53730Y18510D01*
X47332D01*
X42510Y23332D01*
Y26532D01*
X42940Y26820D01*
X43334Y27165D01*
X43680Y27560D01*
X43971Y27996D01*
X44203Y28466D01*
X44372Y28962D01*
X44474Y29477D01*
X44509Y30000D01*
Y31000D01*
X44474Y31523D01*
X44372Y32037D01*
X44203Y32534D01*
X43971Y33004D01*
X43680Y33440D01*
X43334Y33834D01*
X42940Y34180D01*
X42504Y34471D01*
X42034Y34703D01*
X41537Y34872D01*
X41023Y34974D01*
X40500Y35009D01*
X39977Y34974D01*
X39463Y34872D01*
X38966Y34703D01*
X38496Y34471D01*
X38060Y34180D01*
X37666Y33834D01*
X37320Y33440D01*
X37029Y33004D01*
X36797Y32534D01*
X36628Y32037D01*
X36526Y31523D01*
X36491Y31000D01*
Y30000D01*
X36526Y29477D01*
X36628Y28962D01*
X36797Y28466D01*
X37029Y27996D01*
X37320Y27560D01*
X37666Y27165D01*
X38060Y26820D01*
X38490Y26532D01*
Y22500D01*
X38529Y22108D01*
X38643Y21731D01*
X38829Y21384D01*
X39079Y21079D01*
X45079Y15079D01*
X45384Y14829D01*
X45731Y14643D01*
X46108Y14529D01*
X46303Y14510D01*
X46230Y13010D01*
X43332D01*
X32510Y23832D01*
Y26000D01*
X34500D01*
Y35000D01*
X26500D01*
Y26000D01*
X28490D01*
Y23000D01*
X28529Y22608D01*
X28643Y22231D01*
X28829Y21883D01*
X29079Y21579D01*
X41079Y9579D01*
X41383Y9329D01*
X41731Y9143D01*
X42108Y9029D01*
X42500Y8990D01*
X107000D01*
Y6000D01*
Y5500D01*
X110000D01*
Y4500D01*
X107000D01*
Y3007D01*
X107000Y2800D01*
X106500Y1507D01*
X1507D01*
Y47161D01*
X2485Y47671D01*
X2892Y47722D01*
X3991Y46703D01*
Y43500D01*
Y36500D01*
Y30512D01*
X3978Y30490D01*
X3809Y30083D01*
X3695Y29657D01*
X3638Y29220D01*
Y28780D01*
X3695Y28343D01*
X3809Y27917D01*
X3978Y27510D01*
X4198Y27128D01*
X4467Y26778D01*
X4778Y26467D01*
X5128Y26198D01*
X5510Y25978D01*
X5917Y25809D01*
X6343Y25695D01*
X6780Y25638D01*
X7220D01*
X7657Y25695D01*
X8083Y25809D01*
X8490Y25978D01*
X8872Y26198D01*
X9222Y26467D01*
X9533Y26778D01*
X9802Y27128D01*
X10022Y27510D01*
X10191Y27917D01*
X10305Y28343D01*
X10362Y28780D01*
Y29220D01*
X10305Y29657D01*
X10191Y30083D01*
X10022Y30490D01*
X10009Y30512D01*
Y33500D01*
X15200D01*
Y40500D01*
Y46500D01*
Y50638D01*
X18756D01*
Y57362D01*
X11244D01*
Y57009D01*
X6893D01*
X6683Y57113D01*
X6266Y57255D01*
X5833Y57341D01*
X5394Y57369D01*
X4606D01*
X4166Y57341D01*
X3734Y57255D01*
X3317Y57113D01*
X3007Y56960D01*
X2553Y57095D01*
X1782Y57467D01*
X1507Y57749D01*
Y59622D01*
X2036Y60088D01*
X3007Y60482D01*
X3125Y60424D01*
X3604Y60261D01*
X4101Y60163D01*
X4250Y60153D01*
Y64000D01*
Y67847D01*
X4101Y67837D01*
X3604Y67739D01*
X3125Y67576D01*
X3007Y67518D01*
X2036Y67912D01*
X1507Y68378D01*
Y70251D01*
X1782Y70533D01*
X2553Y70904D01*
X3007Y71040D01*
X3317Y70887D01*
X3734Y70745D01*
X4166Y70659D01*
X4606Y70631D01*
X5394D01*
X5833Y70659D01*
X6266Y70745D01*
X6683Y70887D01*
X7078Y71082D01*
X7445Y71327D01*
X7776Y71618D01*
X8067Y71949D01*
X8312Y72315D01*
X8507Y72711D01*
X8648Y73128D01*
X8734Y73560D01*
X8763Y74000D01*
X8734Y74440D01*
X8648Y74872D01*
X8507Y75289D01*
X8312Y75685D01*
X8067Y76051D01*
X7776Y76382D01*
X7445Y76673D01*
X7078Y76918D01*
X6683Y77113D01*
X6266Y77255D01*
X5833Y77341D01*
X5394Y77369D01*
X4606D01*
X4166Y77341D01*
X3734Y77255D01*
X3317Y77113D01*
X3007Y76960D01*
X2553Y77096D01*
X1782Y77467D01*
X1507Y77749D01*
Y80251D01*
X1782Y80533D01*
X2553Y80905D01*
X3007Y81040D01*
X3317Y80887D01*
X3734Y80745D01*
X4166Y80659D01*
X4606Y80631D01*
X5394D01*
X5833Y80659D01*
X6266Y80745D01*
X6683Y80887D01*
X7078Y81082D01*
X7445Y81327D01*
X7776Y81617D01*
X8067Y81949D01*
X8312Y82315D01*
X8507Y82711D01*
X8648Y83128D01*
X8734Y83560D01*
X8763Y84000D01*
X8734Y84440D01*
X8648Y84872D01*
X8507Y85289D01*
X8312Y85685D01*
X8067Y86051D01*
X7776Y86383D01*
X7445Y86673D01*
X7078Y86918D01*
X6683Y87113D01*
X6266Y87255D01*
X5833Y87341D01*
X5394Y87369D01*
X4606D01*
X4166Y87341D01*
X3734Y87255D01*
X3317Y87113D01*
X3007Y86960D01*
X2553Y87095D01*
X1782Y87467D01*
X1507Y87749D01*
Y90251D01*
X1782Y90533D01*
X2553Y90904D01*
X3007Y91040D01*
X3317Y90887D01*
X3734Y90745D01*
X4166Y90659D01*
X4606Y90631D01*
X5394D01*
X5833Y90659D01*
X6266Y90745D01*
X6683Y90887D01*
X7078Y91082D01*
X7445Y91327D01*
X7776Y91618D01*
X8067Y91949D01*
X8312Y92315D01*
X8507Y92711D01*
X8648Y93128D01*
X8734Y93560D01*
X8763Y94000D01*
X8734Y94440D01*
X8648Y94872D01*
X8507Y95289D01*
X8312Y95685D01*
X8067Y96051D01*
X7776Y96382D01*
X7445Y96673D01*
X7078Y96918D01*
X6683Y97113D01*
X6266Y97255D01*
X5833Y97341D01*
X5394Y97369D01*
X4606D01*
X4166Y97341D01*
X3734Y97255D01*
X3317Y97113D01*
X3007Y96960D01*
X2553Y97096D01*
X1782Y97467D01*
X1507Y97749D01*
Y100251D01*
X1782Y100533D01*
X2553Y100905D01*
X3007Y101040D01*
X3317Y100887D01*
X3734Y100745D01*
X4166Y100659D01*
X4606Y100631D01*
X5394D01*
X5833Y100659D01*
X6266Y100745D01*
X6683Y100887D01*
X7078Y101082D01*
X7445Y101327D01*
X7776Y101618D01*
X8067Y101949D01*
X8312Y102315D01*
X8507Y102711D01*
X8648Y103128D01*
X8734Y103560D01*
X8763Y104000D01*
X8734Y104440D01*
X8648Y104872D01*
X8507Y105289D01*
X8312Y105685D01*
X8067Y106051D01*
X7776Y106383D01*
X7445Y106673D01*
X7078Y106918D01*
X6683Y107113D01*
X6266Y107255D01*
X5833Y107341D01*
X5394Y107369D01*
X4606D01*
X4166Y107341D01*
X3734Y107255D01*
X3317Y107113D01*
X3007Y106960D01*
X2553Y107096D01*
X1782Y107467D01*
X1507Y107749D01*
Y155993D01*
X313493D01*
Y1507D01*
D02*
G37*
G36*
X93879Y130279D02*
X94183Y130029D01*
X94531Y129843D01*
X94908Y129729D01*
X95300Y129690D01*
X107000D01*
Y126500D01*
Y126000D01*
X110000D01*
Y125500D01*
X110500D01*
Y123300D01*
X113000D01*
Y124500D01*
X116500D01*
Y125732D01*
X120095D01*
Y125260D01*
X123063D01*
X126031D01*
Y125732D01*
X139800D01*
Y125500D01*
X144200D01*
Y125732D01*
X145800D01*
Y125500D01*
X150200D01*
Y125732D01*
X159925D01*
Y125531D01*
X165075D01*
X165075Y125531D01*
X166490Y125328D01*
Y112000D01*
X133905D01*
Y113470D01*
X126031D01*
Y114181D01*
X120095D01*
Y114010D01*
X113740D01*
X113348Y113971D01*
X112971Y113857D01*
X112624Y113671D01*
X112378Y113470D01*
X105873D01*
X75921Y143421D01*
X75837Y143490D01*
X75944Y144280D01*
X76327Y144990D01*
X79168D01*
X93879Y130279D01*
D02*
G37*
G36*
X107000Y69112D02*
Y66000D01*
Y65500D01*
X110000D01*
Y65000D01*
X110500D01*
Y62800D01*
X113000D01*
Y64000D01*
X116500D01*
Y65232D01*
X120095D01*
Y64760D01*
X123063D01*
X126031D01*
Y65232D01*
X139800D01*
Y65000D01*
X144200D01*
Y65232D01*
X145800D01*
Y65000D01*
X150200D01*
Y65232D01*
X159925D01*
Y65031D01*
X165075D01*
X165075Y65031D01*
X166490Y64828D01*
Y51500D01*
X133905D01*
Y53210D01*
X135289Y53490D01*
X148000D01*
X148392Y53529D01*
X148769Y53643D01*
X149117Y53829D01*
X149421Y54079D01*
X150692Y55350D01*
X150991Y55433D01*
X152462Y55336D01*
X152836Y54962D01*
X153255Y54641D01*
X153713Y54377D01*
X154201Y54174D01*
X154712Y54037D01*
X155236Y53969D01*
X155764D01*
X156288Y54037D01*
X156799Y54174D01*
X157287Y54377D01*
X157745Y54641D01*
X158164Y54962D01*
X158537Y55336D01*
X158859Y55755D01*
X159124Y56213D01*
X159326Y56701D01*
X159462Y57212D01*
X159531Y57736D01*
Y58264D01*
X159462Y58788D01*
X159326Y59299D01*
X159124Y59787D01*
X158859Y60245D01*
X158537Y60664D01*
X158164Y61037D01*
X157745Y61359D01*
X157287Y61624D01*
X156799Y61826D01*
X156288Y61962D01*
X155764Y62032D01*
X155236D01*
X154712Y61962D01*
X154201Y61826D01*
X153713Y61624D01*
X153255Y61359D01*
X152836Y61037D01*
X152462Y60664D01*
X152141Y60245D01*
X152005Y60010D01*
X150500D01*
X150108Y59971D01*
X149731Y59857D01*
X149383Y59671D01*
X149079Y59421D01*
X147168Y57510D01*
X129000D01*
X128608Y57471D01*
X128231Y57357D01*
X127884Y57171D01*
X127579Y56921D01*
X124579Y53921D01*
X120095D01*
Y53750D01*
X113740D01*
X113348Y53711D01*
X112971Y53597D01*
X112624Y53411D01*
X112378Y53210D01*
X104700D01*
X104308Y53171D01*
X103931Y53057D01*
X103584Y52871D01*
X103279Y52621D01*
X96579Y45921D01*
X96329Y45616D01*
X96143Y45269D01*
X96029Y44892D01*
X96010Y44697D01*
X94510Y44770D01*
Y58168D01*
X105500Y69158D01*
X107000Y69112D01*
D02*
G37*
G36*
Y49112D02*
Y46000D01*
Y45500D01*
X110000D01*
Y45000D01*
X110500D01*
Y42800D01*
X113000D01*
Y44000D01*
X116500D01*
Y45232D01*
X120095D01*
Y44760D01*
X123063D01*
X126031D01*
Y45232D01*
X139800D01*
Y45000D01*
X144200D01*
Y45232D01*
X145800D01*
Y45000D01*
X150200D01*
Y45232D01*
X159925D01*
Y45031D01*
X165075D01*
X165075Y45031D01*
X166490Y44827D01*
Y31500D01*
X133905D01*
Y33210D01*
X135289Y33490D01*
X148000D01*
X148392Y33529D01*
X148769Y33643D01*
X149117Y33829D01*
X149421Y34079D01*
X150692Y35350D01*
X150991Y35433D01*
X152462Y35336D01*
X152836Y34962D01*
X153255Y34641D01*
X153713Y34376D01*
X154201Y34174D01*
X154712Y34038D01*
X155236Y33968D01*
X155764D01*
X156288Y34038D01*
X156799Y34174D01*
X157287Y34376D01*
X157745Y34641D01*
X158164Y34962D01*
X158537Y35336D01*
X158859Y35755D01*
X159124Y36213D01*
X159326Y36701D01*
X159462Y37212D01*
X159531Y37736D01*
Y38264D01*
X159462Y38788D01*
X159326Y39299D01*
X159124Y39787D01*
X158859Y40245D01*
X158537Y40664D01*
X158164Y41037D01*
X157745Y41359D01*
X157287Y41623D01*
X156799Y41826D01*
X156288Y41963D01*
X155764Y42031D01*
X155236D01*
X154712Y41963D01*
X154201Y41826D01*
X153713Y41623D01*
X153255Y41359D01*
X152836Y41037D01*
X152462Y40664D01*
X152141Y40245D01*
X152005Y40010D01*
X150500D01*
X150108Y39971D01*
X149731Y39857D01*
X149383Y39671D01*
X149079Y39421D01*
X147168Y37510D01*
X129000D01*
X128608Y37471D01*
X128231Y37357D01*
X127884Y37171D01*
X127579Y36921D01*
X124579Y33921D01*
X120095D01*
Y33750D01*
X113740D01*
X113348Y33711D01*
X112971Y33597D01*
X112624Y33411D01*
X112378Y33210D01*
X103700D01*
X103308Y33171D01*
X102931Y33057D01*
X102584Y32871D01*
X102279Y32621D01*
X88168Y18510D01*
X86270D01*
X86197Y20010D01*
X86392Y20029D01*
X86769Y20143D01*
X87116Y20329D01*
X87421Y20579D01*
X99421Y32579D01*
X99671Y32884D01*
X99857Y33231D01*
X99971Y33608D01*
X100010Y34000D01*
Y43668D01*
X105500Y49158D01*
X107000Y49112D01*
D02*
G37*
G36*
Y26000D02*
Y25500D01*
X110000D01*
Y25000D01*
X110500D01*
Y22800D01*
X113000D01*
Y24000D01*
X116500D01*
Y25232D01*
X120095D01*
Y24760D01*
X123063D01*
X126031D01*
Y25232D01*
X139800D01*
Y25000D01*
X144200D01*
Y25232D01*
X145800D01*
Y25000D01*
X150200D01*
Y25232D01*
X159925D01*
Y25032D01*
X165075D01*
X165075Y25032D01*
X166490Y24827D01*
Y11500D01*
X133905D01*
Y13210D01*
X135289Y13490D01*
X148000D01*
X148392Y13529D01*
X148769Y13643D01*
X149117Y13829D01*
X149421Y14079D01*
X150692Y15350D01*
X150991Y15433D01*
X152462Y15336D01*
X152836Y14963D01*
X153255Y14641D01*
X153713Y14377D01*
X154201Y14174D01*
X154712Y14038D01*
X155236Y13969D01*
X155764D01*
X156288Y14038D01*
X156799Y14174D01*
X157287Y14377D01*
X157745Y14641D01*
X158164Y14963D01*
X158537Y15336D01*
X158859Y15755D01*
X159124Y16213D01*
X159326Y16701D01*
X159462Y17212D01*
X159531Y17736D01*
Y18264D01*
X159462Y18788D01*
X159326Y19299D01*
X159124Y19787D01*
X158859Y20245D01*
X158537Y20664D01*
X158164Y21037D01*
X157745Y21359D01*
X157287Y21623D01*
X156799Y21826D01*
X156288Y21962D01*
X155764Y22031D01*
X155236D01*
X154712Y21962D01*
X154201Y21826D01*
X153713Y21623D01*
X153255Y21359D01*
X152836Y21037D01*
X152462Y20664D01*
X152141Y20245D01*
X152005Y20010D01*
X150500D01*
X150108Y19971D01*
X149731Y19857D01*
X149383Y19671D01*
X149079Y19421D01*
X147168Y17510D01*
X129000D01*
X128608Y17471D01*
X128231Y17357D01*
X127884Y17171D01*
X127579Y16921D01*
X124579Y13921D01*
X120095D01*
Y13750D01*
X113740D01*
X113348Y13711D01*
X112971Y13597D01*
X112624Y13411D01*
X112378Y13210D01*
X107000D01*
Y13010D01*
X89270D01*
X89197Y14510D01*
X89392Y14529D01*
X89769Y14643D01*
X90117Y14829D01*
X90421Y15079D01*
X104532Y29190D01*
X107000D01*
Y26000D01*
D02*
G37*
%LPC*%
G36*
X109500Y145000D02*
X107000D01*
Y143300D01*
X109500D01*
Y145000D01*
D02*
G37*
G36*
X126031Y144260D02*
X123563D01*
Y142579D01*
X126031D01*
Y144260D01*
D02*
G37*
G36*
X122563D02*
X120095D01*
Y142579D01*
X122563D01*
Y144260D01*
D02*
G37*
G36*
X96297Y144750D02*
X93250D01*
Y141703D01*
X93255Y141704D01*
X93744Y141835D01*
X94212Y142029D01*
X94650Y142282D01*
X95052Y142590D01*
X95410Y142948D01*
X95718Y143350D01*
X95971Y143788D01*
X96165Y144256D01*
X96296Y144745D01*
X96297Y144750D01*
D02*
G37*
G36*
X91750D02*
X88703D01*
X88704Y144745D01*
X88835Y144256D01*
X89029Y143788D01*
X89282Y143350D01*
X89590Y142948D01*
X89948Y142590D01*
X90350Y142282D01*
X90788Y142029D01*
X91256Y141835D01*
X91745Y141704D01*
X91750Y141703D01*
Y144750D01*
D02*
G37*
G36*
X214220Y151862D02*
X213780D01*
X213343Y151805D01*
X212917Y151691D01*
X212510Y151522D01*
X212128Y151302D01*
X211778Y151033D01*
X211467Y150722D01*
X211198Y150372D01*
X210978Y149990D01*
X210809Y149583D01*
X210695Y149157D01*
X210638Y148720D01*
Y148280D01*
X210695Y147843D01*
X210809Y147417D01*
X210978Y147010D01*
X211198Y146628D01*
X211467Y146278D01*
X211778Y145967D01*
X212128Y145698D01*
X212510Y145478D01*
X212917Y145309D01*
X213343Y145195D01*
X213780Y145138D01*
X214220D01*
X214657Y145195D01*
X215083Y145309D01*
X215490Y145478D01*
X215872Y145698D01*
X216222Y145967D01*
X216533Y146278D01*
X216802Y146628D01*
X217022Y147010D01*
X217191Y147417D01*
X217305Y147843D01*
X217362Y148280D01*
Y148720D01*
X217305Y149157D01*
X217191Y149583D01*
X217022Y149990D01*
X216802Y150372D01*
X216533Y150722D01*
X216222Y151033D01*
X215872Y151302D01*
X215490Y151522D01*
X215083Y151691D01*
X214657Y151805D01*
X214220Y151862D01*
D02*
G37*
G36*
X198000Y153000D02*
X190000D01*
Y144000D01*
X198000D01*
Y153000D01*
D02*
G37*
G36*
X307986Y151832D02*
X262000D01*
Y142500D01*
Y134500D01*
X290741Y134500D01*
X307820D01*
Y134500D01*
X307986D01*
Y142500D01*
Y151832D01*
D02*
G37*
G36*
X234600Y117358D02*
X229400D01*
X228929Y117327D01*
X228466Y117235D01*
X228019Y117083D01*
X227596Y116874D01*
X227424Y116759D01*
X206576D01*
X206404Y116874D01*
X205981Y117083D01*
X205534Y117235D01*
X205071Y117327D01*
X204600Y117358D01*
X199400D01*
X198929Y117327D01*
X198466Y117235D01*
X198019Y117083D01*
X197596Y116874D01*
X197204Y116612D01*
X196849Y116301D01*
X196538Y115946D01*
X196276Y115554D01*
X196067Y115131D01*
X195915Y114684D01*
X195823Y114221D01*
X195792Y113750D01*
X195823Y113279D01*
X195915Y112816D01*
X196067Y112369D01*
X196276Y111946D01*
X196538Y111554D01*
X196849Y111199D01*
X197204Y110888D01*
X197596Y110626D01*
X198019Y110417D01*
X198466Y110265D01*
X198929Y110173D01*
X199400Y110142D01*
X204600D01*
X205071Y110173D01*
X205534Y110265D01*
X205981Y110417D01*
X206404Y110626D01*
X206576Y110741D01*
X227424D01*
X227596Y110626D01*
X228019Y110417D01*
X228466Y110265D01*
X228929Y110173D01*
X229400Y110142D01*
X234600D01*
X235071Y110173D01*
X235534Y110265D01*
X235981Y110417D01*
X236404Y110626D01*
X236576Y110741D01*
X292503D01*
X304491Y98753D01*
Y59246D01*
X292003Y46759D01*
X236576D01*
X236404Y46874D01*
X235981Y47083D01*
X235534Y47235D01*
X235071Y47327D01*
X234600Y47358D01*
X229400D01*
X228929Y47327D01*
X228466Y47235D01*
X228019Y47083D01*
X227596Y46874D01*
X227424Y46759D01*
X206576D01*
X206404Y46874D01*
X205981Y47083D01*
X205534Y47235D01*
X205071Y47327D01*
X204600Y47358D01*
X199400D01*
X198929Y47327D01*
X198466Y47235D01*
X198019Y47083D01*
X197596Y46874D01*
X197204Y46612D01*
X196849Y46301D01*
X196538Y45946D01*
X196276Y45554D01*
X196067Y45131D01*
X195915Y44684D01*
X195912Y44668D01*
X189244Y38000D01*
X184500D01*
Y30000D01*
X193500D01*
Y33744D01*
X199898Y40142D01*
X204600D01*
X205071Y40173D01*
X205534Y40265D01*
X205981Y40417D01*
X206404Y40626D01*
X206576Y40741D01*
X227424D01*
X227596Y40626D01*
X228019Y40417D01*
X228466Y40265D01*
X228929Y40173D01*
X229400Y40142D01*
X234600D01*
X235071Y40173D01*
X235534Y40265D01*
X235981Y40417D01*
X236404Y40626D01*
X236576Y40741D01*
X293250D01*
X293721Y40778D01*
X294180Y40888D01*
X294616Y41069D01*
X295019Y41315D01*
X295378Y41622D01*
X309628Y55872D01*
X309935Y56231D01*
X310181Y56634D01*
X310362Y57070D01*
X310472Y57529D01*
X310509Y58000D01*
Y100000D01*
X310472Y100471D01*
X310362Y100930D01*
X310181Y101366D01*
X309935Y101769D01*
X309628Y102128D01*
X295878Y115878D01*
X295519Y116185D01*
X295116Y116431D01*
X294680Y116612D01*
X294221Y116722D01*
X293750Y116759D01*
X236576D01*
X236404Y116874D01*
X235981Y117083D01*
X235534Y117235D01*
X235071Y117327D01*
X234600Y117358D01*
D02*
G37*
G36*
X109500Y104760D02*
X107000D01*
Y103060D01*
X109500D01*
Y104760D01*
D02*
G37*
G36*
X126031Y104020D02*
X123563D01*
Y102339D01*
X126031D01*
Y104020D01*
D02*
G37*
G36*
X122563D02*
X120095D01*
Y102339D01*
X122563D01*
Y104020D01*
D02*
G37*
G36*
X264256Y106719D02*
X256744D01*
Y99994D01*
X264256D01*
Y101347D01*
X268811D01*
X278065Y92093D01*
X278370Y91843D01*
X278717Y91657D01*
X279094Y91543D01*
X279486Y91504D01*
X279486Y91504D01*
X290744D01*
Y90152D01*
X298256D01*
Y96876D01*
X290744D01*
Y95524D01*
X280319D01*
X271065Y104777D01*
X270760Y105027D01*
X270413Y105213D01*
X270036Y105327D01*
X269644Y105366D01*
X264256D01*
Y106719D01*
D02*
G37*
G36*
X109500Y84500D02*
X107000D01*
Y82800D01*
X109500D01*
Y84500D01*
D02*
G37*
G36*
X126031Y83760D02*
X123563D01*
Y82079D01*
X126031D01*
Y83760D01*
D02*
G37*
G36*
X122563D02*
X120095D01*
Y82079D01*
X122563D01*
Y83760D01*
D02*
G37*
G36*
X240500Y107500D02*
X195500D01*
Y86000D01*
X195500Y86000D01*
X195454Y85454D01*
X196000Y86000D01*
X209734D01*
D01*
X224266D01*
X224266Y86000D01*
X238000D01*
X238936Y85064D01*
X239144Y85447D01*
X239569Y85916D01*
X239734Y86000D01*
X240500D01*
X241753Y85404D01*
X245990Y81168D01*
Y73000D01*
X246029Y72608D01*
X246143Y72231D01*
X246329Y71883D01*
X246579Y71579D01*
X255593Y62565D01*
X255897Y62315D01*
X256245Y62129D01*
X256622Y62015D01*
X257014Y61976D01*
X257405D01*
X257433Y61935D01*
X257724Y61604D01*
X258055Y61313D01*
X258422Y61068D01*
X258817Y60873D01*
X259234Y60732D01*
X259666Y60646D01*
X260106Y60617D01*
X260894D01*
X261333Y60646D01*
X261766Y60732D01*
X262183Y60873D01*
X262578Y61068D01*
X262945Y61313D01*
X263276Y61604D01*
X263567Y61935D01*
X263595Y61976D01*
X267986D01*
X268378Y62015D01*
X268755Y62129D01*
X269103Y62315D01*
X269407Y62565D01*
X278661Y71819D01*
X291406D01*
X291433Y71778D01*
X291724Y71446D01*
X292055Y71156D01*
X292422Y70911D01*
X292817Y70716D01*
X293234Y70574D01*
X293667Y70488D01*
X294106Y70459D01*
X294894D01*
X295334Y70488D01*
X295766Y70574D01*
X296183Y70716D01*
X296578Y70911D01*
X296945Y71156D01*
X297276Y71446D01*
X297567Y71778D01*
X297812Y72144D01*
X298007Y72539D01*
X298148Y72957D01*
X298234Y73389D01*
X298263Y73829D01*
X298234Y74269D01*
X298148Y74701D01*
X298007Y75118D01*
X297812Y75513D01*
X297567Y75880D01*
X297276Y76211D01*
X296945Y76502D01*
X296578Y76747D01*
X296183Y76942D01*
X295766Y77083D01*
X295334Y77169D01*
X294894Y77198D01*
X294106D01*
X293667Y77169D01*
X293234Y77083D01*
X292817Y76942D01*
X292422Y76747D01*
X292055Y76502D01*
X291724Y76211D01*
X291433Y75880D01*
X291406Y75838D01*
X277829D01*
X277829Y75838D01*
X277437Y75800D01*
X277060Y75685D01*
X276712Y75500D01*
X276408Y75250D01*
X267154Y65996D01*
X263595D01*
X263567Y66037D01*
X263276Y66369D01*
X262945Y66659D01*
X262578Y66904D01*
X262183Y67099D01*
X261766Y67241D01*
X261333Y67327D01*
X260894Y67356D01*
X260106D01*
X259666Y67327D01*
X259234Y67241D01*
X258817Y67099D01*
X258422Y66904D01*
X258055Y66659D01*
X257724Y66369D01*
X257481Y66361D01*
X250010Y73832D01*
Y82000D01*
X249971Y82392D01*
X249857Y82769D01*
X249671Y83117D01*
X249421Y83421D01*
X242921Y89921D01*
X242617Y90171D01*
X243330Y91486D01*
X243523Y91740D01*
X257248D01*
X257433Y91463D01*
X257724Y91131D01*
X258055Y90841D01*
X257956Y89368D01*
X257887Y89187D01*
X257739Y88974D01*
X257496Y88873D01*
X257287Y88713D01*
X253287Y84713D01*
X253127Y84504D01*
X253026Y84261D01*
X252991Y84000D01*
Y74000D01*
X253026Y73739D01*
X253127Y73496D01*
X253287Y73287D01*
X257287Y69287D01*
X257496Y69126D01*
X257739Y69026D01*
X258000Y68991D01*
X264000D01*
X264261Y69026D01*
X264504Y69126D01*
X264713Y69287D01*
X268713Y73287D01*
X268874Y73496D01*
X268974Y73739D01*
X269009Y74000D01*
Y84000D01*
X268974Y84261D01*
X268874Y84504D01*
X268713Y84713D01*
X264713Y88713D01*
X264504Y88873D01*
X264261Y88974D01*
X264000Y89009D01*
X263302D01*
X263164Y89212D01*
X263106Y89350D01*
X262945Y90841D01*
X263276Y91131D01*
X263567Y91463D01*
X263595Y91504D01*
X267654D01*
X276908Y82250D01*
X277212Y82000D01*
X277560Y81815D01*
X277937Y81700D01*
X278329Y81662D01*
X278329Y81662D01*
X291406D01*
X291433Y81620D01*
X291724Y81289D01*
X292055Y80998D01*
X292422Y80753D01*
X292817Y80558D01*
X293234Y80417D01*
X293667Y80331D01*
X294106Y80302D01*
X294894D01*
X295334Y80331D01*
X295766Y80417D01*
X296183Y80558D01*
X296578Y80753D01*
X296945Y80998D01*
X297276Y81289D01*
X297567Y81620D01*
X297812Y81987D01*
X298007Y82382D01*
X298148Y82799D01*
X298234Y83232D01*
X298263Y83671D01*
X298234Y84111D01*
X298148Y84543D01*
X298007Y84961D01*
X297812Y85356D01*
X297567Y85722D01*
X297276Y86054D01*
X296945Y86344D01*
X296578Y86589D01*
X296183Y86784D01*
X295766Y86926D01*
X295334Y87012D01*
X294894Y87041D01*
X294106D01*
X293667Y87012D01*
X293234Y86926D01*
X292817Y86784D01*
X292422Y86589D01*
X292055Y86344D01*
X291724Y86054D01*
X291433Y85722D01*
X291406Y85681D01*
X279161D01*
X269907Y94935D01*
X269603Y95185D01*
X269255Y95371D01*
X268878Y95485D01*
X268486Y95524D01*
X263595D01*
X263567Y95565D01*
X263276Y95896D01*
X262945Y96187D01*
X262578Y96432D01*
X262183Y96627D01*
X261766Y96768D01*
X261333Y96854D01*
X260894Y96883D01*
X260106D01*
X259666Y96854D01*
X259234Y96768D01*
X258817Y96627D01*
X258422Y96432D01*
X258055Y96187D01*
X257724Y95896D01*
X257604Y95760D01*
X240500D01*
Y107500D01*
D02*
G37*
G36*
X15750Y67847D02*
Y64750D01*
X19182D01*
X19132Y65002D01*
X18970Y65481D01*
X18746Y65935D01*
X18464Y66356D01*
X18131Y66737D01*
X17750Y67071D01*
X17329Y67352D01*
X16875Y67576D01*
X16396Y67739D01*
X15899Y67837D01*
X15750Y67847D01*
D02*
G37*
G36*
X19182Y63250D02*
X15750D01*
Y60153D01*
X15899Y60163D01*
X16396Y60261D01*
X16875Y60424D01*
X17329Y60648D01*
X17750Y60929D01*
X18131Y61263D01*
X18464Y61644D01*
X18746Y62065D01*
X18970Y62519D01*
X19132Y62998D01*
X19182Y63250D01*
D02*
G37*
G36*
X5750Y67847D02*
Y64000D01*
Y60153D01*
X5899Y60163D01*
X6396Y60261D01*
X6875Y60424D01*
X7329Y60648D01*
X7750Y60929D01*
X8130Y61263D01*
X8464Y61644D01*
X8746Y62065D01*
X8970Y62519D01*
X9070Y62815D01*
X9132Y62998D01*
X9144Y63019D01*
X9144D01*
X9132Y62998D01*
X9123Y62971D01*
X9144Y63019D01*
X9281Y63082D01*
X10719D01*
X10856Y63019D01*
X10877Y62971D01*
X10868Y62998D01*
X10856Y63019D01*
X10856D01*
X10868Y62998D01*
X10930Y62815D01*
X11030Y62519D01*
X11254Y62065D01*
X11536Y61644D01*
X11869Y61263D01*
X12250Y60929D01*
X12671Y60648D01*
X13125Y60424D01*
X13604Y60261D01*
X14101Y60163D01*
X14250Y60153D01*
Y64000D01*
Y67847D01*
X14101Y67837D01*
X13604Y67739D01*
X13125Y67576D01*
X12671Y67352D01*
X12250Y67071D01*
X11869Y66737D01*
X11536Y66356D01*
X11254Y65935D01*
X11030Y65481D01*
X10930Y65185D01*
X10868Y65002D01*
X10856Y64981D01*
X10856D01*
X10868Y65002D01*
X10877Y65029D01*
X10856Y64981D01*
X10719Y64918D01*
X9281D01*
X9144Y64981D01*
X9123Y65029D01*
X9132Y65002D01*
X9144Y64981D01*
X9144D01*
X9132Y65002D01*
X9070Y65185D01*
X8970Y65481D01*
X8746Y65935D01*
X8464Y66356D01*
X8130Y66737D01*
X7750Y67071D01*
X7329Y67352D01*
X6875Y67576D01*
X6396Y67739D01*
X5899Y67837D01*
X5750Y67847D01*
D02*
G37*
G36*
X250000Y28500D02*
X245750D01*
Y24750D01*
X250000D01*
Y28500D01*
D02*
G37*
G36*
X244250D02*
X240000D01*
Y24750D01*
X244250D01*
Y28500D01*
D02*
G37*
G36*
X189500Y28009D02*
X188500D01*
X187977Y27974D01*
X187462Y27872D01*
X186966Y27703D01*
X186496Y27472D01*
X186060Y27180D01*
X185666Y26834D01*
X185320Y26440D01*
X185029Y26004D01*
X184797Y25534D01*
X184628Y25038D01*
X184526Y24523D01*
X184491Y24000D01*
X184526Y23477D01*
X184628Y22963D01*
X184797Y22466D01*
X185029Y21996D01*
X185320Y21560D01*
X185666Y21166D01*
X186060Y20820D01*
X186496Y20528D01*
X186966Y20297D01*
X187462Y20128D01*
X187977Y20026D01*
X188500Y19991D01*
X189500D01*
X190023Y20026D01*
X190538Y20128D01*
X191034Y20297D01*
X191504Y20528D01*
X191940Y20820D01*
X192334Y21166D01*
X192680Y21560D01*
X192972Y21996D01*
X193203Y22466D01*
X193372Y22963D01*
X193474Y23477D01*
X193509Y24000D01*
X193474Y24523D01*
X193372Y25038D01*
X193203Y25534D01*
X192972Y26004D01*
X192680Y26440D01*
X192334Y26834D01*
X191940Y27180D01*
X191504Y27472D01*
X191034Y27703D01*
X190538Y27872D01*
X190023Y27974D01*
X189500Y28009D01*
D02*
G37*
G36*
X250000Y23250D02*
X245000D01*
X240000D01*
Y19500D01*
X244320D01*
X244369Y18000D01*
X243977Y17974D01*
X243462Y17872D01*
X242966Y17704D01*
X242569Y17507D01*
X227838D01*
X227497Y17890D01*
X227083Y18260D01*
X226631Y18581D01*
X226146Y18849D01*
X225633Y19061D01*
X225100Y19215D01*
X224554Y19307D01*
X224000Y19339D01*
X223446Y19307D01*
X222900Y19215D01*
X222367Y19061D01*
X221854Y18849D01*
X221369Y18581D01*
X220917Y18260D01*
X220503Y17890D01*
X220134Y17477D01*
X219813Y17025D01*
X219545Y16539D01*
X219333Y16027D01*
X219179Y15494D01*
X219086Y14947D01*
X219055Y14394D01*
Y13606D01*
X219086Y13053D01*
X219179Y12506D01*
X219333Y11973D01*
X219545Y11461D01*
X219813Y10976D01*
X220134Y10523D01*
X220503Y10110D01*
X220917Y9740D01*
X221369Y9419D01*
X221854Y9151D01*
X222367Y8939D01*
X222900Y8785D01*
X223446Y8693D01*
X224000Y8662D01*
X224554Y8693D01*
X225100Y8785D01*
X225633Y8939D01*
X226146Y9151D01*
X226631Y9419D01*
X227083Y9740D01*
X227497Y10110D01*
X227838Y10492D01*
X242569D01*
X242966Y10297D01*
X243462Y10128D01*
X243977Y10026D01*
X244500Y9991D01*
X245500D01*
X246023Y10026D01*
X246537Y10128D01*
X247034Y10297D01*
X247504Y10528D01*
X247940Y10820D01*
X248335Y11165D01*
X248680Y11560D01*
X248972Y11996D01*
X249203Y12466D01*
X249372Y12962D01*
X249474Y13477D01*
X249509Y14000D01*
X249474Y14523D01*
X249372Y15037D01*
X249203Y15534D01*
X248972Y16004D01*
X248680Y16440D01*
X248335Y16835D01*
X247940Y17180D01*
X247504Y17471D01*
X247034Y17704D01*
X246537Y17872D01*
X246023Y17974D01*
X245631Y18000D01*
X245680Y19500D01*
X250000D01*
Y23250D01*
D02*
G37*
G36*
X210000Y28008D02*
X209542Y27977D01*
X209092Y27888D01*
X208658Y27740D01*
X208246Y27538D01*
X207865Y27283D01*
X207520Y26980D01*
X207217Y26635D01*
X206962Y26254D01*
X206760Y25842D01*
X206612Y25408D01*
X206522Y24958D01*
X206492Y24500D01*
Y19331D01*
X205063D01*
Y17507D01*
X191431D01*
X191034Y17704D01*
X190538Y17872D01*
X190023Y17974D01*
X189500Y18009D01*
X188500D01*
X187977Y17974D01*
X187462Y17872D01*
X186966Y17704D01*
X186496Y17471D01*
X186060Y17180D01*
X185666Y16835D01*
X185320Y16440D01*
X185029Y16004D01*
X184797Y15534D01*
X184628Y15037D01*
X184526Y14523D01*
X184491Y14000D01*
X184526Y13477D01*
X184628Y12962D01*
X184797Y12466D01*
X185029Y11996D01*
X185320Y11560D01*
X185666Y11165D01*
X186060Y10820D01*
X186496Y10528D01*
X186966Y10297D01*
X187462Y10128D01*
X187977Y10026D01*
X188500Y9991D01*
X189500D01*
X190023Y10026D01*
X190538Y10128D01*
X191034Y10297D01*
X191431Y10492D01*
X205063D01*
Y8669D01*
X214937D01*
Y19331D01*
X213508D01*
Y24500D01*
X213477Y24958D01*
X213388Y25408D01*
X213241Y25842D01*
X213038Y26254D01*
X212783Y26635D01*
X212480Y26980D01*
X212135Y27283D01*
X211754Y27538D01*
X211342Y27740D01*
X210908Y27888D01*
X210458Y27977D01*
X210000Y28008D01*
D02*
G37*
G36*
X262720Y17362D02*
X262280D01*
X261843Y17305D01*
X261417Y17191D01*
X261010Y17022D01*
X260628Y16802D01*
X260278Y16533D01*
X259967Y16222D01*
X259698Y15872D01*
X259478Y15490D01*
X259309Y15083D01*
X259195Y14657D01*
X259138Y14220D01*
Y13780D01*
X259195Y13343D01*
X259309Y12917D01*
X259478Y12510D01*
X259698Y12128D01*
X259967Y11778D01*
X260278Y11467D01*
X260628Y11198D01*
X261010Y10978D01*
X261417Y10809D01*
X261843Y10695D01*
X262280Y10638D01*
X262720D01*
X263157Y10695D01*
X263583Y10809D01*
X263990Y10978D01*
X264372Y11198D01*
X264722Y11467D01*
X265033Y11778D01*
X265302Y12128D01*
X265522Y12510D01*
X265691Y12917D01*
X265805Y13343D01*
X265862Y13780D01*
Y14220D01*
X265805Y14657D01*
X265691Y15083D01*
X265522Y15490D01*
X265302Y15872D01*
X265033Y16222D01*
X264722Y16533D01*
X264372Y16802D01*
X263990Y17022D01*
X263583Y17191D01*
X263157Y17305D01*
X262720Y17362D01*
D02*
G37*
G36*
X15575Y20000D02*
X4425D01*
Y6032D01*
X15575D01*
Y14990D01*
X18582D01*
X19556Y13858D01*
X19537Y13788D01*
X19468Y13264D01*
Y12736D01*
X19537Y12212D01*
X19674Y11701D01*
X19876Y11213D01*
X20141Y10755D01*
X20462Y10336D01*
X20836Y9962D01*
X21255Y9641D01*
X21713Y9376D01*
X22201Y9174D01*
X22712Y9037D01*
X23236Y8969D01*
X23764D01*
X24288Y9037D01*
X24799Y9174D01*
X25287Y9376D01*
X25745Y9641D01*
X26164Y9962D01*
X26537Y10336D01*
X26859Y10755D01*
X27123Y11213D01*
X27326Y11701D01*
X27463Y12212D01*
X27531Y12736D01*
Y13264D01*
X27463Y13788D01*
X27326Y14299D01*
X27123Y14787D01*
X26859Y15245D01*
X26537Y15664D01*
X26164Y16037D01*
X25745Y16359D01*
X25287Y16623D01*
X24799Y16826D01*
X24288Y16962D01*
X23764Y17031D01*
X23236D01*
X22712Y16962D01*
X22450Y16892D01*
X20921Y18421D01*
X20617Y18671D01*
X20269Y18857D01*
X19892Y18971D01*
X19500Y19010D01*
X15575D01*
Y20000D01*
D02*
G37*
%LPD*%
G36*
X268000Y84000D02*
Y74000D01*
X264000Y70000D01*
X258000D01*
X254000Y74000D01*
Y84000D01*
X258000Y88000D01*
X264000D01*
X268000Y84000D01*
D02*
G37*
%LPC*%
G36*
X109500Y125000D02*
X107000D01*
Y123300D01*
X109500D01*
Y125000D01*
D02*
G37*
G36*
X126031Y124260D02*
X123563D01*
Y122579D01*
X126031D01*
Y124260D01*
D02*
G37*
G36*
X122563D02*
X120095D01*
Y122579D01*
X122563D01*
Y124260D01*
D02*
G37*
G36*
X109500Y64500D02*
X107000D01*
Y62800D01*
X109500D01*
Y64500D01*
D02*
G37*
G36*
X126031Y63760D02*
X123563D01*
Y62079D01*
X126031D01*
Y63760D01*
D02*
G37*
G36*
X122563D02*
X120095D01*
Y62079D01*
X122563D01*
Y63760D01*
D02*
G37*
G36*
X109500Y44500D02*
X107000D01*
Y42800D01*
X109500D01*
Y44500D01*
D02*
G37*
G36*
X126031Y43760D02*
X123563D01*
Y42079D01*
X126031D01*
Y43760D01*
D02*
G37*
G36*
X122563D02*
X120095D01*
Y42079D01*
X122563D01*
Y43760D01*
D02*
G37*
G36*
X109500Y24500D02*
X107000D01*
Y22800D01*
X109500D01*
Y24500D01*
D02*
G37*
G36*
X126031Y23760D02*
X123563D01*
Y22079D01*
X126031D01*
Y23760D01*
D02*
G37*
G36*
X122563D02*
X120095D01*
Y22079D01*
X122563D01*
Y23760D01*
D02*
G37*
%LPD*%
D14*
X264500Y141832D02*
Y137833D01*
X266499D01*
X267166Y138499D01*
Y139166D01*
X266499Y139832D01*
X264500D01*
X266499D01*
X267166Y140499D01*
Y141165D01*
X266499Y141832D01*
X264500D01*
X268499Y140499D02*
Y138499D01*
X269165Y137833D01*
X271164D01*
Y140499D01*
X272497Y137833D02*
X274497D01*
X275163Y138499D01*
X274497Y139166D01*
X273164D01*
X272497Y139832D01*
X273164Y140499D01*
X275163D01*
X276496D02*
Y137833D01*
Y139166D01*
X277163Y139832D01*
X277829Y140499D01*
X278496D01*
X281161D02*
X282494D01*
X283161Y139832D01*
Y137833D01*
X281161D01*
X280495Y138499D01*
X281161Y139166D01*
X283161D01*
X288492Y141832D02*
X291158D01*
X289825D01*
Y137833D01*
X293157D02*
X294490D01*
X295157Y138499D01*
Y139832D01*
X294490Y140499D01*
X293157D01*
X292491Y139832D01*
Y138499D01*
X293157Y137833D01*
X296490Y136500D02*
Y140499D01*
X298489D01*
X299155Y139832D01*
Y138499D01*
X298489Y137833D01*
X296490D01*
X301155Y140499D02*
X302488D01*
X303154Y139832D01*
Y137833D01*
X301155D01*
X300488Y138499D01*
X301155Y139166D01*
X303154D01*
X304487Y137833D02*
X305820D01*
X305153D01*
Y141832D01*
X304487D01*
X264000Y149832D02*
Y145833D01*
X265999D01*
X266666Y146499D01*
Y149165D01*
X265999Y149832D01*
X264000D01*
X269998Y145833D02*
X268665D01*
X267999Y146499D01*
Y147832D01*
X268665Y148499D01*
X269998D01*
X270665Y147832D01*
Y147166D01*
X267999D01*
X271997Y145833D02*
X273997D01*
X274663Y146499D01*
X273997Y147166D01*
X272664D01*
X271997Y147832D01*
X272664Y148499D01*
X274663D01*
X275996Y145833D02*
X277329D01*
X276663D01*
Y148499D01*
X275996D01*
X280661Y144500D02*
X281328D01*
X281994Y145167D01*
Y148499D01*
X279995D01*
X279328Y147832D01*
Y146499D01*
X279995Y145833D01*
X281994D01*
X283327D02*
Y148499D01*
X285327D01*
X285993Y147832D01*
Y145833D01*
X289325D02*
X287992D01*
X287326Y146499D01*
Y147832D01*
X287992Y148499D01*
X289325D01*
X289992Y147832D01*
Y147166D01*
X287326D01*
X293990Y149832D02*
Y145833D01*
X291991D01*
X291324Y146499D01*
Y147832D01*
X291991Y148499D01*
X293990D01*
X299322Y149832D02*
Y145833D01*
X301321D01*
X301988Y146499D01*
Y147166D01*
Y147832D01*
X301321Y148499D01*
X299322D01*
X303321D02*
Y146499D01*
X303987Y145833D01*
X305986D01*
Y145167D01*
X305320Y144500D01*
X304654D01*
X305986Y145833D02*
Y148499D01*
D16*
X168500Y148500D02*
D03*
X162500D02*
D03*
X168500Y108500D02*
D03*
X162500D02*
D03*
X168500Y88000D02*
D03*
X162500D02*
D03*
Y128500D02*
D03*
X168500D02*
D03*
Y68000D02*
D03*
X162500D02*
D03*
X168500Y28000D02*
D03*
X162500D02*
D03*
X168500Y48000D02*
D03*
X162500D02*
D03*
X168500Y8000D02*
D03*
X162500D02*
D03*
X7000Y9000D02*
D03*
X13000D02*
D03*
D17*
X142000Y108500D02*
D03*
X148000D02*
D03*
X142000Y88000D02*
D03*
X148000D02*
D03*
X142000Y28000D02*
D03*
X148000D02*
D03*
X142000Y8000D02*
D03*
X148000D02*
D03*
X142000Y68000D02*
D03*
X148000D02*
D03*
X142000Y48000D02*
D03*
X148000D02*
D03*
X142000Y148500D02*
D03*
X148000D02*
D03*
X142000Y128500D02*
D03*
X148000D02*
D03*
X7000Y43500D02*
D03*
X13000D02*
D03*
X7000Y36500D02*
D03*
X13000D02*
D03*
X7000Y17000D02*
D03*
X13000D02*
D03*
D18*
X123063Y71740D02*
D03*
Y64260D02*
D03*
X130937Y68000D02*
D03*
X123063Y51740D02*
D03*
Y44260D02*
D03*
X130937Y48000D02*
D03*
X123063Y31740D02*
D03*
Y24260D02*
D03*
X130937Y28000D02*
D03*
Y8000D02*
D03*
X123063Y4260D02*
D03*
Y11740D02*
D03*
X130937Y108260D02*
D03*
X123063Y104520D02*
D03*
Y112000D02*
D03*
X130937Y88000D02*
D03*
X123063Y84260D02*
D03*
Y91740D02*
D03*
Y152240D02*
D03*
Y144760D02*
D03*
X130937Y148500D02*
D03*
Y128500D02*
D03*
X123063Y124760D02*
D03*
Y132240D02*
D03*
D19*
X110000Y51000D02*
D03*
Y45000D02*
D03*
Y91000D02*
D03*
Y85000D02*
D03*
Y71000D02*
D03*
Y65000D02*
D03*
Y31000D02*
D03*
Y25000D02*
D03*
Y11000D02*
D03*
Y5000D02*
D03*
Y105260D02*
D03*
Y111260D02*
D03*
Y131500D02*
D03*
Y125500D02*
D03*
Y145500D02*
D03*
Y151500D02*
D03*
D35*
X13000Y17000D02*
X19500D01*
X23500Y13000D01*
X88500Y4500D02*
X89000Y4000D01*
X88500Y4500D02*
Y5000D01*
X89000Y4000D02*
X97000D01*
X13000Y4500D02*
Y9000D01*
X92500Y59000D02*
X104700Y71200D01*
X110000D01*
X92500Y39000D02*
Y59000D01*
X110000Y71200D02*
X113200D01*
X110000Y19500D02*
Y25000D01*
X97000Y4000D02*
X98000Y5000D01*
X110000D02*
X113500D01*
X98000D02*
X110000D01*
X7000Y9000D02*
Y17000D01*
X110000Y140000D02*
Y145500D01*
Y120000D02*
Y125500D01*
Y99760D02*
Y105260D01*
Y79500D02*
Y85000D01*
Y59500D02*
Y65000D01*
Y39500D02*
Y45000D01*
X98000Y96500D02*
Y110000D01*
X78000Y130000D02*
X98000Y110000D01*
Y96500D02*
X103000Y91500D01*
X109900D01*
X110200Y91200D01*
X60500Y130000D02*
X78000D01*
X55000Y142000D02*
X74500D01*
X105040Y111460D01*
X110000D01*
X113200D01*
X50500Y137500D02*
X55000Y142000D01*
X50500Y130000D02*
Y137500D01*
X80000Y147000D02*
X95300Y131700D01*
X40500Y140500D02*
X47000Y147000D01*
X80000D01*
X95300Y131700D02*
X110000D01*
X113200D01*
X40500Y130000D02*
Y140500D01*
X84000Y30500D02*
X92500Y39000D01*
X86000Y22000D02*
X98000Y34000D01*
Y44500D01*
X54000Y22000D02*
X86000D01*
X98000Y44500D02*
X104700Y51200D01*
X110000D01*
X46500Y16500D02*
X89000D01*
X103700Y31200D02*
X110000D01*
X89000Y16500D02*
X103700Y31200D01*
X50500Y25500D02*
X54000Y22000D01*
X40500Y22500D02*
X46500Y16500D01*
X30500Y23000D02*
X42500Y11000D01*
X110000D01*
Y11200D02*
X113200D01*
X60500Y30500D02*
X84000D01*
X50500Y25500D02*
Y30500D01*
X110000Y51200D02*
X113200D01*
X110000Y31200D02*
X113200D01*
X40500Y22500D02*
Y30500D01*
X30500Y23000D02*
Y30500D01*
Y130000D02*
Y140000D01*
X42000Y151500D02*
X110000D01*
X30500Y140000D02*
X42000Y151500D01*
X248000Y73000D02*
Y82000D01*
X241500Y88500D02*
X248000Y82000D01*
Y73000D02*
X257014Y63986D01*
X260500D01*
X219000Y88500D02*
X241500D01*
X213750Y93750D02*
X219000Y88500D01*
X202000Y93750D02*
X213750D01*
X211000Y58500D02*
X215750Y53750D01*
X192000Y58500D02*
X211000D01*
X215750Y53750D02*
X232000D01*
X215750Y63750D02*
X221000Y58500D01*
X243500D01*
X202000Y63750D02*
X215750D01*
X172500Y78000D02*
X192000Y58500D01*
X168500Y84000D02*
Y88000D01*
X165000Y80500D02*
X168500Y84000D01*
X165000Y75000D02*
Y80500D01*
X168500Y68000D02*
Y71500D01*
X165000Y75000D02*
X168500Y71500D01*
X247856Y54144D02*
X260500D01*
X243500Y58500D02*
X247856Y54144D01*
X260264Y93750D02*
X260500Y93514D01*
X232000Y93750D02*
X260264D01*
X260500Y54144D02*
X269144D01*
X278986Y63986D02*
X294500D01*
X269144Y54144D02*
X278986Y63986D01*
X279486Y93514D02*
X294500D01*
X260500Y103356D02*
X269644D01*
X279486Y93514D01*
X260500Y63986D02*
X267986D01*
X277829Y73829D01*
X294500D01*
X278329Y83671D02*
X294500D01*
X268486Y93514D02*
X278329Y83671D01*
X260500Y93514D02*
X268486D01*
X123063Y71740D02*
X125240D01*
X129000Y75500D01*
X148000D01*
X150500Y78000D01*
X155500D01*
X123063Y51740D02*
X125240D01*
X129000Y55500D01*
X148000D01*
X150500Y58000D01*
X155500D01*
X123063Y31740D02*
X125240D01*
X129000Y35500D01*
X148000D01*
X150500Y38000D01*
X155500D01*
X150500Y18000D02*
X155500D01*
X148000Y15500D02*
X150500Y18000D01*
X129000Y15500D02*
X148000D01*
X125240Y11740D02*
X129000Y15500D01*
X123063Y11740D02*
X125240D01*
X168500Y8000D02*
Y28000D01*
Y48000D01*
Y68000D01*
Y88000D02*
Y108500D01*
Y128500D01*
Y148500D01*
X184000D01*
X148000Y8000D02*
X162500D01*
X148000Y28000D02*
X162500D01*
X148000Y48000D02*
X162500D01*
X148000Y68000D02*
X162500D01*
X148000Y88000D02*
X162500D01*
X148000Y108500D02*
X162500D01*
X148000Y128500D02*
X162500D01*
X148000Y148500D02*
X162500D01*
X130937Y8000D02*
X142000D01*
X130937Y28000D02*
X142000D01*
X130937Y48000D02*
X142000D01*
X130937Y68000D02*
X142000D01*
X130937Y88000D02*
X142000D01*
X130937Y108260D02*
X142000D01*
X130937Y128500D02*
X142000D01*
X130937Y148500D02*
X142000D01*
X113740Y11740D02*
X123063D01*
X113200Y11200D02*
X113740Y11740D01*
X113500Y5000D02*
X114240Y4260D01*
X123063D01*
X113740Y31740D02*
X123063D01*
X113200Y31200D02*
X113740Y31740D01*
X110000Y25000D02*
X113500D01*
X114240Y24260D01*
X123063D01*
X113740Y51740D02*
X123063D01*
X113200Y51200D02*
X113740Y51740D01*
X110000Y45000D02*
X113500D01*
X114240Y44260D01*
X123063D01*
X113740Y71740D02*
X123063D01*
X113200Y71200D02*
X113740Y71740D01*
X110000Y65000D02*
X113500D01*
X114240Y64260D01*
X123063D01*
X113740Y91740D02*
X123063D01*
X110200Y91200D02*
X113200D01*
X113740Y91740D01*
X110000Y85000D02*
X113500D01*
X114240Y84260D01*
X123063D01*
X113740Y112000D02*
X123063D01*
X113200Y111460D02*
X113740Y112000D01*
X110000Y105260D02*
X113500D01*
X114240Y104520D01*
X123063D01*
X113740Y132240D02*
X123063D01*
X113200Y131700D02*
X113740Y132240D01*
X110000Y125500D02*
X113500D01*
X114240Y124760D01*
X123063D01*
X114240Y144760D02*
X123063D01*
X113500Y145500D02*
X114240Y144760D01*
X110000Y145500D02*
X113500D01*
X113200Y151700D02*
X113740Y152240D01*
X110200Y151700D02*
X113200D01*
X110000Y151500D02*
X110200Y151700D01*
X113740Y152240D02*
X123063D01*
X60500Y119106D02*
Y130000D01*
X50500Y119106D02*
Y130000D01*
X15394Y84000D02*
X50500Y119106D01*
X15394Y94000D02*
X40197Y118803D01*
Y129697D01*
X40500Y130000D01*
X30500Y119106D02*
Y130000D01*
X15394Y74000D02*
X60500Y119106D01*
X15000Y74000D02*
X15394D01*
X15000Y84000D02*
X15394D01*
X15000Y94000D02*
X15394D01*
Y104000D02*
X30500Y119106D01*
X15000Y104000D02*
X15394D01*
D36*
X5000Y54000D02*
X15000D01*
X26500Y64000D02*
X50500D01*
X15000D02*
X26500D01*
X50500D02*
X66000Y79500D01*
X110000D01*
X7000Y29000D02*
Y36500D01*
X232000Y43750D02*
X293250D01*
X307500Y58000D02*
Y100000D01*
X293250Y43750D02*
X307500Y58000D01*
X293750Y113750D02*
X307500Y100000D01*
X232000Y113750D02*
X293750D01*
X202000D02*
X232000D01*
X7000Y36500D02*
Y43500D01*
Y48000D01*
X5000Y50000D02*
X7000Y48000D01*
X5000Y50000D02*
Y54000D01*
X202000Y43750D02*
X232000D01*
X189500Y34000D02*
X199250Y43750D01*
X202000D01*
X189000Y34000D02*
X189500D01*
X5000Y64000D02*
X15000D01*
D37*
X26500Y62000D02*
Y64000D01*
Y62000D02*
X31000Y57500D01*
Y49000D02*
Y57500D01*
X25500Y43500D02*
X31000Y49000D01*
X13000Y43500D02*
X25500D01*
X92500Y145500D02*
X110000D01*
X13000Y36500D02*
Y43500D01*
D38*
X210000Y14000D02*
Y24500D01*
X224000Y14000D02*
X245000D01*
X189000D02*
X210000D01*
D39*
X202000Y43750D02*
D03*
Y53750D02*
D03*
Y63750D02*
D03*
Y73750D02*
D03*
Y83750D02*
D03*
Y93750D02*
D03*
Y103750D02*
D03*
Y113750D02*
D03*
X232000Y83750D02*
D03*
Y93750D02*
D03*
Y73750D02*
D03*
Y63750D02*
D03*
Y113750D02*
D03*
Y103750D02*
D03*
Y53750D02*
D03*
Y43750D02*
D03*
D40*
X294500Y63986D02*
D03*
Y73829D02*
D03*
Y83671D02*
D03*
X260500Y73829D02*
D03*
Y83671D02*
D03*
Y63986D02*
D03*
Y54144D02*
D03*
Y93514D02*
D03*
X5000Y54000D02*
D03*
X15000Y64000D02*
D03*
Y74000D02*
D03*
Y84000D02*
D03*
Y94000D02*
D03*
Y104000D02*
D03*
X5000Y64000D02*
D03*
Y74000D02*
D03*
Y84000D02*
D03*
Y94000D02*
D03*
Y104000D02*
D03*
D41*
X294500Y93514D02*
D03*
X260500Y103356D02*
D03*
X15000Y54000D02*
D03*
D42*
X262500Y14000D02*
D03*
X210000Y24500D02*
D03*
X214000Y148500D02*
D03*
X7000Y29000D02*
D03*
X92500Y145500D02*
D03*
D43*
X245000Y14000D02*
D03*
X189000Y24000D02*
D03*
Y14000D02*
D03*
D44*
X245000Y24000D02*
D03*
X189000Y34000D02*
D03*
D45*
X224000Y14000D02*
D03*
D46*
X210000D02*
D03*
D47*
X184000Y148500D02*
D03*
X40500Y30500D02*
D03*
X50500D02*
D03*
X60500D02*
D03*
Y130000D02*
D03*
X50500D02*
D03*
X40500D02*
D03*
D48*
X194000Y148500D02*
D03*
X30500Y30500D02*
D03*
Y130000D02*
D03*
D49*
X88500Y5000D02*
D03*
X23500Y13000D02*
D03*
X110000Y18500D02*
D03*
Y139000D02*
D03*
Y119000D02*
D03*
Y98760D02*
D03*
Y78500D02*
D03*
Y58500D02*
D03*
Y38500D02*
D03*
X172500Y78000D02*
D03*
X155500D02*
D03*
Y18000D02*
D03*
Y38000D02*
D03*
Y58000D02*
D03*
M02*
