G04*
G04 #@! TF.GenerationSoftware,Altium Limited,Altium Designer,22.11.1 (43)*
G04*
G04 Layer_Physical_Order=2*
G04 Layer_Color=16711680*
%FSLAX25Y25*%
%MOIN*%
G70*
G04*
G04 #@! TF.SameCoordinates,6D67B21A-DBE7-4323-B212-FBECE55DCE4B*
G04*
G04*
G04 #@! TF.FilePolarity,Positive*
G04*
G01*
G75*
%ADD35C,0.02000*%
%ADD36C,0.04000*%
%ADD38C,0.05000*%
%ADD39O,0.10400X0.05200*%
%ADD40O,0.05512X0.04724*%
%ADD41R,0.05512X0.04724*%
%ADD42C,0.04724*%
%ADD43O,0.07000X0.06000*%
%ADD44R,0.07000X0.06000*%
%ADD45O,0.07874X0.08661*%
%ADD46R,0.07874X0.08661*%
%ADD47O,0.06000X0.07000*%
%ADD48R,0.06000X0.07000*%
%ADD49C,0.06063*%
G36*
X28490Y60168D02*
Y35000D01*
X26500D01*
Y27877D01*
X25000Y27256D01*
X21128Y31128D01*
X20769Y31435D01*
X20366Y31681D01*
X19930Y31862D01*
X19471Y31972D01*
X19000Y32009D01*
X8512D01*
X8490Y32022D01*
X8083Y32191D01*
X7657Y32305D01*
X7220Y32362D01*
X6780D01*
X6343Y32305D01*
X5917Y32191D01*
X5510Y32022D01*
X5128Y31802D01*
X4778Y31533D01*
X4467Y31222D01*
X4198Y30872D01*
X3978Y30490D01*
X3809Y30083D01*
X3695Y29657D01*
X3638Y29220D01*
Y28780D01*
X3695Y28343D01*
X3809Y27917D01*
X3978Y27510D01*
X4198Y27128D01*
X4467Y26778D01*
X4778Y26467D01*
X5128Y26198D01*
X5510Y25978D01*
X5917Y25809D01*
X6343Y25695D01*
X6780Y25638D01*
X7220D01*
X7657Y25695D01*
X8083Y25809D01*
X8490Y25978D01*
X8512Y25991D01*
X17753D01*
X23372Y20372D01*
X23731Y20065D01*
X24134Y19819D01*
X24570Y19638D01*
X25029Y19528D01*
X25500Y19491D01*
X90754Y19491D01*
X102235Y8010D01*
X102166Y7478D01*
X101755Y6696D01*
X100272Y6570D01*
X92421Y14421D01*
X92116Y14671D01*
X91769Y14857D01*
X91392Y14971D01*
X91000Y15010D01*
X26995D01*
X26859Y15245D01*
X26537Y15664D01*
X26164Y16037D01*
X25745Y16359D01*
X25287Y16623D01*
X24799Y16826D01*
X24288Y16962D01*
X23764Y17031D01*
X23236D01*
X22712Y16962D01*
X22201Y16826D01*
X21713Y16623D01*
X21255Y16359D01*
X20836Y16037D01*
X20462Y15664D01*
X20141Y15245D01*
X19876Y14787D01*
X19674Y14299D01*
X19537Y13788D01*
X19468Y13264D01*
Y12736D01*
X19537Y12212D01*
X19674Y11701D01*
X19876Y11213D01*
X20141Y10755D01*
X20462Y10336D01*
X20836Y9962D01*
X21255Y9641D01*
X21713Y9376D01*
X22201Y9174D01*
X22712Y9037D01*
X23236Y8969D01*
X23764D01*
X24288Y9037D01*
X24799Y9174D01*
X25287Y9376D01*
X25745Y9641D01*
X26164Y9962D01*
X26537Y10336D01*
X26859Y10755D01*
X26995Y10990D01*
X90168D01*
X98079Y3079D01*
X98166Y3007D01*
X98063Y2231D01*
X97676Y1507D01*
X1507D01*
Y50251D01*
X1782Y50533D01*
X2553Y50905D01*
X3007Y51040D01*
X3317Y50887D01*
X3734Y50745D01*
X4166Y50659D01*
X4606Y50631D01*
X5394D01*
X5833Y50659D01*
X6266Y50745D01*
X6683Y50887D01*
X6893Y50991D01*
X11244D01*
Y50638D01*
X18756D01*
Y57362D01*
X11244D01*
Y57009D01*
X6893D01*
X6683Y57113D01*
X6266Y57255D01*
X5833Y57341D01*
X5394Y57369D01*
X4606D01*
X4166Y57341D01*
X3734Y57255D01*
X3317Y57113D01*
X3007Y56960D01*
X2553Y57095D01*
X1782Y57467D01*
X1507Y57749D01*
Y59622D01*
X2036Y60088D01*
X3007Y60482D01*
X3125Y60424D01*
X3604Y60261D01*
X4101Y60163D01*
X4250Y60153D01*
Y64000D01*
X5750D01*
Y60153D01*
X5899Y60163D01*
X6396Y60261D01*
X6875Y60424D01*
X7329Y60648D01*
X7750Y60929D01*
X8130Y61263D01*
X8464Y61644D01*
X8746Y62065D01*
X8970Y62519D01*
X9132Y62998D01*
X9231Y63495D01*
X9248Y63759D01*
X10752D01*
X10769Y63495D01*
X10868Y62998D01*
X11030Y62519D01*
X11254Y62065D01*
X11536Y61644D01*
X11869Y61263D01*
X12250Y60929D01*
X12671Y60648D01*
X13125Y60424D01*
X13604Y60261D01*
X14101Y60163D01*
X14250Y60153D01*
Y64000D01*
X15000D01*
Y64750D01*
X19182D01*
X19132Y65002D01*
X18970Y65481D01*
X18965Y65490D01*
X19490Y66650D01*
X19845Y66990D01*
X21668D01*
X28490Y60168D01*
D02*
G37*
G36*
X313493Y1507D02*
X167324D01*
X166937Y2231D01*
X166834Y3007D01*
X166921Y3079D01*
X185029Y21186D01*
X185666Y21166D01*
X186060Y20820D01*
X186496Y20528D01*
X186966Y20297D01*
X187462Y20128D01*
X187977Y20026D01*
X188500Y19991D01*
X189500D01*
X190023Y20026D01*
X190538Y20128D01*
X191034Y20297D01*
X191504Y20528D01*
X191940Y20820D01*
X192135Y20991D01*
X194500D01*
X194971Y21028D01*
X195430Y21138D01*
X195866Y21319D01*
X196269Y21565D01*
X196628Y21872D01*
X206246Y31491D01*
X268500D01*
X268971Y31528D01*
X269430Y31638D01*
X269866Y31819D01*
X270269Y32065D01*
X270628Y32372D01*
X278128Y39872D01*
X278435Y40231D01*
X278681Y40634D01*
X278862Y41070D01*
X278972Y41529D01*
X279009Y42000D01*
Y68000D01*
X278972Y68471D01*
X278862Y68930D01*
X278681Y69366D01*
X278435Y69769D01*
X278128Y70128D01*
X272299Y75957D01*
X271940Y76263D01*
X271537Y76510D01*
X271101Y76691D01*
X270642Y76801D01*
X270171Y76838D01*
X263509D01*
Y80662D01*
X268671D01*
X269142Y80699D01*
X269601Y80809D01*
X270037Y80990D01*
X270440Y81237D01*
X270799Y81543D01*
X279628Y90372D01*
X279935Y90731D01*
X280181Y91134D01*
X280362Y91570D01*
X280472Y92029D01*
X280509Y92500D01*
Y132500D01*
X280472Y132971D01*
X280362Y133430D01*
X280181Y133866D01*
X279935Y134269D01*
X279628Y134628D01*
X263628Y150628D01*
X263269Y150935D01*
X262866Y151181D01*
X262430Y151362D01*
X261971Y151472D01*
X261500Y151509D01*
X215512D01*
X215490Y151522D01*
X215083Y151691D01*
X214657Y151805D01*
X214220Y151862D01*
X213780D01*
X213343Y151805D01*
X212917Y151691D01*
X212510Y151522D01*
X212488Y151509D01*
X198000D01*
Y153000D01*
X190000D01*
Y144000D01*
X198000D01*
Y145491D01*
X212488D01*
X212510Y145478D01*
X212917Y145309D01*
X213343Y145195D01*
X213780Y145138D01*
X214220D01*
X214657Y145195D01*
X215083Y145309D01*
X215490Y145478D01*
X215512Y145491D01*
X260254D01*
X274491Y131254D01*
Y93747D01*
X267425Y86681D01*
X262393D01*
X262183Y86784D01*
X261766Y86926D01*
X261333Y87012D01*
X260894Y87041D01*
X260106D01*
X259666Y87012D01*
X259234Y86926D01*
X258817Y86784D01*
X258422Y86589D01*
X258055Y86344D01*
X257724Y86054D01*
X257433Y85722D01*
X257188Y85356D01*
X256993Y84961D01*
X256852Y84543D01*
X256766Y84111D01*
X256737Y83671D01*
X256766Y83232D01*
X256852Y82799D01*
X256993Y82382D01*
X257188Y81987D01*
X257433Y81620D01*
X257491Y81555D01*
Y75946D01*
X257433Y75880D01*
X257188Y75513D01*
X256993Y75118D01*
X256852Y74701D01*
X256766Y74269D01*
X256737Y73829D01*
X256766Y73389D01*
X256852Y72957D01*
X256993Y72539D01*
X257188Y72144D01*
X257433Y71778D01*
X257724Y71446D01*
X258055Y71156D01*
X258422Y70911D01*
X258817Y70716D01*
X259234Y70574D01*
X259666Y70488D01*
X260106Y70459D01*
X260894D01*
X261333Y70488D01*
X261766Y70574D01*
X262183Y70716D01*
X262393Y70819D01*
X268925D01*
X272991Y66754D01*
Y43246D01*
X267253Y37509D01*
X205000D01*
X204529Y37472D01*
X204070Y37362D01*
X203634Y37181D01*
X203231Y36935D01*
X202872Y36628D01*
X193254Y27009D01*
X192135D01*
X191940Y27180D01*
X191504Y27472D01*
X191034Y27703D01*
X190538Y27872D01*
X190023Y27974D01*
X189500Y28009D01*
X188500D01*
X187977Y27974D01*
X187462Y27872D01*
X186966Y27703D01*
X186496Y27472D01*
X186060Y27180D01*
X185666Y26834D01*
X185320Y26440D01*
X185032Y26010D01*
X185000D01*
X184608Y25971D01*
X184231Y25857D01*
X183884Y25671D01*
X183579Y25421D01*
X164668Y6510D01*
X162842D01*
X162334Y7478D01*
X162265Y8010D01*
X183368Y29112D01*
X184500Y30000D01*
Y30000D01*
X184500Y30000D01*
X193500D01*
Y34244D01*
X199398Y40142D01*
X199400Y40142D01*
X204600D01*
X205071Y40173D01*
X205534Y40265D01*
X205981Y40417D01*
X206404Y40626D01*
X206576Y40741D01*
X227424D01*
X227596Y40626D01*
X228019Y40417D01*
X228466Y40265D01*
X228929Y40173D01*
X229400Y40142D01*
X234600D01*
X235071Y40173D01*
X235534Y40265D01*
X235981Y40417D01*
X236404Y40626D01*
X236796Y40888D01*
X237151Y41199D01*
X237462Y41554D01*
X237724Y41946D01*
X237933Y42369D01*
X238085Y42816D01*
X238177Y43279D01*
X238208Y43750D01*
X238177Y44221D01*
X238085Y44684D01*
X237933Y45131D01*
X237724Y45554D01*
X237462Y45946D01*
X237151Y46301D01*
X236796Y46612D01*
X236404Y46874D01*
X235981Y47083D01*
X235534Y47235D01*
X235071Y47327D01*
X234600Y47358D01*
X229400D01*
X228929Y47327D01*
X228466Y47235D01*
X228019Y47083D01*
X227596Y46874D01*
X227424Y46759D01*
X206576D01*
X206404Y46874D01*
X205981Y47083D01*
X205534Y47235D01*
X205071Y47327D01*
X204600Y47358D01*
X199400D01*
X198929Y47327D01*
X198466Y47235D01*
X198019Y47083D01*
X197596Y46874D01*
X197204Y46612D01*
X196849Y46301D01*
X196538Y45946D01*
X196276Y45554D01*
X196254Y45509D01*
X188744Y38000D01*
X184500D01*
Y37009D01*
X184000D01*
X183529Y36972D01*
X183070Y36862D01*
X182634Y36681D01*
X182231Y36435D01*
X181872Y36128D01*
X159257Y13513D01*
X158818Y13574D01*
X158443Y14370D01*
X158354Y15152D01*
X158537Y15336D01*
X158859Y15755D01*
X159124Y16213D01*
X159326Y16701D01*
X159462Y17212D01*
X159531Y17736D01*
Y18264D01*
X159462Y18788D01*
X159326Y19299D01*
X159124Y19787D01*
X158859Y20245D01*
X158537Y20664D01*
X158164Y21037D01*
X158790Y22448D01*
X188082Y51740D01*
X196413D01*
X196538Y51554D01*
X196849Y51199D01*
X197204Y50888D01*
X197596Y50626D01*
X198019Y50417D01*
X198466Y50265D01*
X198929Y50173D01*
X199400Y50142D01*
X204600D01*
X205071Y50173D01*
X205534Y50265D01*
X205981Y50417D01*
X206404Y50626D01*
X206796Y50888D01*
X207151Y51199D01*
X207462Y51554D01*
X207724Y51946D01*
X207933Y52369D01*
X208085Y52816D01*
X208177Y53279D01*
X208208Y53750D01*
X208177Y54221D01*
X208085Y54684D01*
X207933Y55131D01*
X207724Y55554D01*
X207462Y55946D01*
X207151Y56301D01*
X206796Y56612D01*
X206404Y56874D01*
X205981Y57083D01*
X205534Y57235D01*
X205071Y57327D01*
X204600Y57358D01*
X199400D01*
X198929Y57327D01*
X198466Y57235D01*
X198019Y57083D01*
X197596Y56874D01*
X197204Y56612D01*
X196849Y56301D01*
X196538Y55946D01*
X196413Y55760D01*
X187250D01*
X186858Y55721D01*
X186481Y55607D01*
X185769Y56927D01*
X187421Y58579D01*
X187671Y58884D01*
X187857Y59231D01*
X187971Y59608D01*
X188010Y60000D01*
Y95168D01*
X194832Y101990D01*
X196254D01*
X196276Y101946D01*
X196538Y101554D01*
X196849Y101199D01*
X197204Y100888D01*
X197596Y100626D01*
X198019Y100417D01*
X198466Y100265D01*
X198929Y100173D01*
X199400Y100142D01*
X204600D01*
X205071Y100173D01*
X205534Y100265D01*
X205981Y100417D01*
X206404Y100626D01*
X206796Y100888D01*
X207151Y101199D01*
X207462Y101554D01*
X207724Y101946D01*
X207933Y102369D01*
X208085Y102816D01*
X208177Y103279D01*
X208208Y103750D01*
X208177Y104221D01*
X208085Y104684D01*
X207981Y104990D01*
X208083Y105377D01*
X208624Y106269D01*
X208903Y106490D01*
X212668D01*
X216829Y102329D01*
X217133Y102079D01*
X217481Y101893D01*
X217858Y101779D01*
X218250Y101740D01*
X226413D01*
X226538Y101554D01*
X226849Y101199D01*
X227204Y100888D01*
X227596Y100626D01*
X228019Y100417D01*
X228466Y100265D01*
X228929Y100173D01*
X229400Y100142D01*
X234600D01*
X235071Y100173D01*
X235534Y100265D01*
X235981Y100417D01*
X236404Y100626D01*
X236796Y100888D01*
X237151Y101199D01*
X237462Y101554D01*
X237724Y101946D01*
X237933Y102369D01*
X238085Y102816D01*
X238177Y103279D01*
X238208Y103750D01*
X238177Y104221D01*
X238085Y104684D01*
X237933Y105131D01*
X237724Y105554D01*
X237462Y105946D01*
X237151Y106301D01*
X236796Y106612D01*
X236404Y106874D01*
X235981Y107083D01*
X235534Y107235D01*
X235071Y107327D01*
X234600Y107358D01*
X229400D01*
X228929Y107327D01*
X228466Y107235D01*
X228019Y107083D01*
X227596Y106874D01*
X227204Y106612D01*
X226849Y106301D01*
X226538Y105946D01*
X226413Y105760D01*
X219082D01*
X215601Y109241D01*
X216223Y110741D01*
X227424D01*
X227596Y110626D01*
X228019Y110417D01*
X228466Y110265D01*
X228929Y110173D01*
X229400Y110142D01*
X234600D01*
X235071Y110173D01*
X235534Y110265D01*
X235981Y110417D01*
X236404Y110626D01*
X236796Y110888D01*
X237151Y111199D01*
X237462Y111554D01*
X237724Y111946D01*
X237933Y112369D01*
X238085Y112816D01*
X238177Y113279D01*
X238208Y113750D01*
X238177Y114221D01*
X238085Y114684D01*
X237933Y115131D01*
X237724Y115554D01*
X237462Y115946D01*
X237151Y116301D01*
X236796Y116612D01*
X236404Y116874D01*
X235981Y117083D01*
X235534Y117235D01*
X235071Y117327D01*
X234600Y117358D01*
X229400D01*
X228929Y117327D01*
X228466Y117235D01*
X228019Y117083D01*
X227596Y116874D01*
X227424Y116759D01*
X206576D01*
X206404Y116874D01*
X205981Y117083D01*
X205534Y117235D01*
X205071Y117327D01*
X204600Y117358D01*
X199400D01*
X198929Y117327D01*
X198466Y117235D01*
X198019Y117083D01*
X197596Y116874D01*
X197204Y116612D01*
X196849Y116301D01*
X196538Y115946D01*
X196276Y115554D01*
X196067Y115131D01*
X195915Y114684D01*
X195823Y114221D01*
X195792Y113750D01*
X195823Y113279D01*
X195915Y112816D01*
X196067Y112369D01*
X196276Y111946D01*
X195727Y110770D01*
X195458Y110510D01*
X190500D01*
X190500Y110510D01*
X190108Y110471D01*
X189731Y110357D01*
X189383Y110171D01*
X189079Y109921D01*
X177579Y98421D01*
X177329Y98116D01*
X177143Y97769D01*
X177029Y97392D01*
X176990Y97000D01*
Y81235D01*
X175679Y80720D01*
X175490Y80711D01*
X175164Y81037D01*
X174745Y81359D01*
X174287Y81624D01*
X173799Y81826D01*
X173288Y81963D01*
X172764Y82032D01*
X172236D01*
X171712Y81963D01*
X171201Y81826D01*
X170713Y81624D01*
X170255Y81359D01*
X169836Y81037D01*
X169463Y80664D01*
X169141Y80245D01*
X169005Y80010D01*
X158995D01*
X158859Y80245D01*
X158537Y80664D01*
X158164Y81037D01*
X157745Y81359D01*
X157287Y81624D01*
X156799Y81826D01*
X156288Y81963D01*
X155764Y82032D01*
X155236D01*
X154712Y81963D01*
X154201Y81826D01*
X153713Y81624D01*
X153255Y81359D01*
X152836Y81037D01*
X152462Y80664D01*
X152141Y80245D01*
X151876Y79787D01*
X151674Y79299D01*
X151538Y78788D01*
X151469Y78264D01*
Y77736D01*
X151538Y77212D01*
X151674Y76701D01*
X151876Y76213D01*
X152141Y75755D01*
X152462Y75336D01*
X152836Y74963D01*
X153255Y74641D01*
X153713Y74376D01*
X154201Y74174D01*
X154712Y74037D01*
X155236Y73968D01*
X155764D01*
X156288Y74037D01*
X156799Y74174D01*
X157287Y74376D01*
X157745Y74641D01*
X158164Y74963D01*
X158537Y75336D01*
X158859Y75755D01*
X158995Y75990D01*
X169005D01*
X169141Y75755D01*
X169463Y75336D01*
X169836Y74963D01*
X170255Y74641D01*
X170713Y74376D01*
X171201Y74174D01*
X171712Y74037D01*
X172236Y73968D01*
X172764D01*
X173288Y74037D01*
X173799Y74174D01*
X174287Y74376D01*
X174745Y74641D01*
X175164Y74963D01*
X175490Y75289D01*
X175679Y75280D01*
X176990Y74765D01*
Y65832D01*
X171168Y60010D01*
X158995D01*
X158859Y60245D01*
X158537Y60664D01*
X158164Y61037D01*
X157745Y61359D01*
X157287Y61624D01*
X156799Y61826D01*
X156288Y61962D01*
X155764Y62032D01*
X155236D01*
X154712Y61962D01*
X154201Y61826D01*
X153713Y61624D01*
X153255Y61359D01*
X152836Y61037D01*
X152462Y60664D01*
X152141Y60245D01*
X151876Y59787D01*
X151674Y59299D01*
X151538Y58788D01*
X151469Y58264D01*
Y57736D01*
X151538Y57212D01*
X151674Y56701D01*
X151876Y56213D01*
X152141Y55755D01*
X152462Y55336D01*
X152836Y54962D01*
X153255Y54641D01*
X153713Y54377D01*
X154201Y54174D01*
X154712Y54037D01*
X155236Y53969D01*
X155764D01*
X156288Y54037D01*
X156799Y54174D01*
X157287Y54377D01*
X157745Y54641D01*
X158164Y54962D01*
X158537Y55336D01*
X158859Y55755D01*
X158995Y55990D01*
X172000D01*
X172392Y56029D01*
X172769Y56143D01*
X173117Y56329D01*
X173421Y56579D01*
X180421Y63579D01*
X180421Y63579D01*
X180671Y63884D01*
X180857Y64231D01*
X180971Y64608D01*
X181010Y65000D01*
Y96168D01*
X190328Y105486D01*
X190490Y105453D01*
X190981Y103823D01*
X184579Y97421D01*
X184329Y97117D01*
X184143Y96769D01*
X184029Y96392D01*
X183990Y96000D01*
Y60832D01*
X163168Y40010D01*
X158995D01*
X158859Y40245D01*
X158537Y40664D01*
X158164Y41037D01*
X157745Y41359D01*
X157287Y41623D01*
X156799Y41826D01*
X156288Y41963D01*
X155764Y42031D01*
X155236D01*
X154712Y41963D01*
X154201Y41826D01*
X153713Y41623D01*
X153255Y41359D01*
X152836Y41037D01*
X152462Y40664D01*
X152141Y40245D01*
X151876Y39787D01*
X151674Y39299D01*
X151538Y38788D01*
X151469Y38264D01*
Y37736D01*
X151538Y37212D01*
X151674Y36701D01*
X151876Y36213D01*
X152141Y35755D01*
X152462Y35336D01*
X152836Y34962D01*
X153255Y34641D01*
X153713Y34376D01*
X154201Y34174D01*
X154712Y34038D01*
X155236Y33968D01*
X155764D01*
X156288Y34038D01*
X156799Y34174D01*
X157287Y34376D01*
X157745Y34641D01*
X158164Y34962D01*
X158537Y35336D01*
X158859Y35755D01*
X158995Y35990D01*
X164000D01*
X164392Y36029D01*
X164769Y36143D01*
X165481Y34823D01*
X154079Y23421D01*
X153829Y23117D01*
X153643Y22769D01*
X153529Y22392D01*
X153490Y22000D01*
Y21495D01*
X153255Y21359D01*
X152836Y21037D01*
X152462Y20664D01*
X152141Y20245D01*
X151876Y19787D01*
X151674Y19299D01*
X151538Y18788D01*
X151469Y18264D01*
Y17736D01*
X151538Y17212D01*
X151674Y16701D01*
X151876Y16213D01*
X152141Y15755D01*
X152462Y15336D01*
X152836Y14963D01*
X153255Y14641D01*
X153483Y14509D01*
X153482Y13844D01*
X153121Y13009D01*
X105746D01*
X94128Y24628D01*
X93769Y24935D01*
X93366Y25181D01*
X92930Y25362D01*
X92471Y25472D01*
X92000Y25509D01*
X63679D01*
X63280Y26216D01*
X63156Y27009D01*
X63335Y27165D01*
X63680Y27560D01*
X63972Y27996D01*
X64203Y28466D01*
X64372Y28962D01*
X64474Y29477D01*
X64509Y30000D01*
Y31000D01*
X64474Y31523D01*
X64372Y32037D01*
X64203Y32534D01*
X63972Y33004D01*
X63680Y33440D01*
X63335Y33834D01*
X62940Y34180D01*
X62510Y34468D01*
Y74000D01*
X62471Y74392D01*
X62357Y74769D01*
X62171Y75116D01*
X61921Y75421D01*
X61921Y75421D01*
X36921Y100421D01*
X36617Y100671D01*
X36269Y100857D01*
X35892Y100971D01*
X35500Y101010D01*
X19211D01*
X19093Y101107D01*
X18661Y101775D01*
X18408Y102510D01*
X18507Y102711D01*
X18648Y103128D01*
X18734Y103560D01*
X18763Y104000D01*
X18734Y104440D01*
X18648Y104872D01*
X18507Y105289D01*
X18312Y105685D01*
X18067Y106051D01*
X17776Y106383D01*
X17445Y106673D01*
X17078Y106918D01*
X16683Y107113D01*
X16266Y107255D01*
X15834Y107341D01*
X15394Y107369D01*
X14606D01*
X14166Y107341D01*
X13734Y107255D01*
X13317Y107113D01*
X12922Y106918D01*
X12555Y106673D01*
X12224Y106383D01*
X11933Y106051D01*
X11688Y105685D01*
X11493Y105289D01*
X11352Y104872D01*
X11266Y104440D01*
X11237Y104000D01*
X11266Y103560D01*
X10093Y102625D01*
X9957Y102570D01*
X9734Y102527D01*
X8729Y103536D01*
X8734Y103560D01*
X8763Y104000D01*
X8734Y104440D01*
X8648Y104872D01*
X8507Y105289D01*
X8312Y105685D01*
X8067Y106051D01*
X7776Y106383D01*
X7445Y106673D01*
X7078Y106918D01*
X6683Y107113D01*
X6266Y107255D01*
X5833Y107341D01*
X5394Y107369D01*
X4606D01*
X4166Y107341D01*
X3734Y107255D01*
X3317Y107113D01*
X3007Y106960D01*
X2553Y107096D01*
X1782Y107467D01*
X1507Y107749D01*
Y155993D01*
X313493D01*
Y1507D01*
D02*
G37*
%LPC*%
G36*
X19182Y63250D02*
X15750D01*
Y60153D01*
X15899Y60163D01*
X16396Y60261D01*
X16875Y60424D01*
X17329Y60648D01*
X17750Y60929D01*
X18131Y61263D01*
X18464Y61644D01*
X18746Y62065D01*
X18970Y62519D01*
X19132Y62998D01*
X19182Y63250D01*
D02*
G37*
G36*
X93250Y149297D02*
Y146250D01*
X96297D01*
X96296Y146255D01*
X96165Y146744D01*
X95971Y147212D01*
X95718Y147650D01*
X95410Y148052D01*
X95052Y148410D01*
X94650Y148718D01*
X94212Y148971D01*
X93744Y149165D01*
X93255Y149296D01*
X93250Y149297D01*
D02*
G37*
G36*
X91750D02*
X91745Y149296D01*
X91256Y149165D01*
X90788Y148971D01*
X90350Y148718D01*
X89948Y148410D01*
X89590Y148052D01*
X89282Y147650D01*
X89029Y147212D01*
X88835Y146744D01*
X88704Y146255D01*
X88703Y146250D01*
X91750D01*
Y149297D01*
D02*
G37*
G36*
X184000Y153009D02*
X183477Y152974D01*
X182963Y152872D01*
X182466Y152703D01*
X181996Y152471D01*
X181560Y152180D01*
X181166Y151834D01*
X180820Y151440D01*
X180528Y151004D01*
X180297Y150534D01*
X180128Y150038D01*
X180026Y149523D01*
X179991Y149000D01*
Y148000D01*
X180026Y147477D01*
X180128Y146962D01*
X180297Y146466D01*
X180528Y145996D01*
X180820Y145560D01*
X181166Y145166D01*
X181560Y144820D01*
X181996Y144528D01*
X182466Y144297D01*
X182963Y144128D01*
X183477Y144026D01*
X184000Y143991D01*
X184523Y144026D01*
X185038Y144128D01*
X185534Y144297D01*
X186004Y144528D01*
X186440Y144820D01*
X186835Y145166D01*
X187180Y145560D01*
X187471Y145996D01*
X187703Y146466D01*
X187872Y146962D01*
X187974Y147477D01*
X188009Y148000D01*
Y149000D01*
X187974Y149523D01*
X187872Y150038D01*
X187703Y150534D01*
X187471Y151004D01*
X187180Y151440D01*
X186835Y151834D01*
X186440Y152180D01*
X186004Y152471D01*
X185534Y152703D01*
X185038Y152872D01*
X184523Y152974D01*
X184000Y153009D01*
D02*
G37*
G36*
X96297Y144750D02*
X93250D01*
Y141703D01*
X93255Y141704D01*
X93744Y141835D01*
X94212Y142029D01*
X94650Y142282D01*
X95052Y142590D01*
X95410Y142948D01*
X95718Y143350D01*
X95971Y143788D01*
X96165Y144256D01*
X96296Y144745D01*
X96297Y144750D01*
D02*
G37*
G36*
X91750D02*
X88703D01*
X88704Y144745D01*
X88835Y144256D01*
X89029Y143788D01*
X89282Y143350D01*
X89590Y142948D01*
X89948Y142590D01*
X90350Y142282D01*
X90788Y142029D01*
X91256Y141835D01*
X91745Y141704D01*
X91750Y141703D01*
Y144750D01*
D02*
G37*
G36*
X34500Y134500D02*
X26500D01*
Y125500D01*
X34500D01*
Y134500D01*
D02*
G37*
G36*
X60500Y134509D02*
X59977Y134474D01*
X59462Y134372D01*
X58966Y134203D01*
X58496Y133972D01*
X58060Y133680D01*
X57665Y133335D01*
X57320Y132940D01*
X57029Y132504D01*
X56797Y132034D01*
X56628Y131537D01*
X56526Y131023D01*
X56491Y130500D01*
Y129500D01*
X56526Y128977D01*
X56628Y128463D01*
X56797Y127966D01*
X57029Y127496D01*
X57320Y127060D01*
X57665Y126665D01*
X58060Y126320D01*
X58496Y126029D01*
X58966Y125797D01*
X59462Y125628D01*
X59977Y125526D01*
X60500Y125491D01*
X61023Y125526D01*
X61537Y125628D01*
X62034Y125797D01*
X62504Y126029D01*
X62940Y126320D01*
X63335Y126665D01*
X63680Y127060D01*
X63972Y127496D01*
X64203Y127966D01*
X64372Y128463D01*
X64474Y128977D01*
X64509Y129500D01*
Y130500D01*
X64474Y131023D01*
X64372Y131537D01*
X64203Y132034D01*
X63972Y132504D01*
X63680Y132940D01*
X63335Y133335D01*
X62940Y133680D01*
X62504Y133972D01*
X62034Y134203D01*
X61537Y134372D01*
X61023Y134474D01*
X60500Y134509D01*
D02*
G37*
G36*
X50500D02*
X49977Y134474D01*
X49463Y134372D01*
X48966Y134203D01*
X48496Y133972D01*
X48060Y133680D01*
X47666Y133335D01*
X47320Y132940D01*
X47028Y132504D01*
X46797Y132034D01*
X46628Y131537D01*
X46526Y131023D01*
X46491Y130500D01*
Y129500D01*
X46526Y128977D01*
X46628Y128463D01*
X46797Y127966D01*
X47028Y127496D01*
X47320Y127060D01*
X47666Y126665D01*
X48060Y126320D01*
X48496Y126029D01*
X48966Y125797D01*
X49463Y125628D01*
X49977Y125526D01*
X50500Y125491D01*
X51023Y125526D01*
X51538Y125628D01*
X52034Y125797D01*
X52504Y126029D01*
X52940Y126320D01*
X53334Y126665D01*
X53680Y127060D01*
X53971Y127496D01*
X54203Y127966D01*
X54372Y128463D01*
X54474Y128977D01*
X54509Y129500D01*
Y130500D01*
X54474Y131023D01*
X54372Y131537D01*
X54203Y132034D01*
X53971Y132504D01*
X53680Y132940D01*
X53334Y133335D01*
X52940Y133680D01*
X52504Y133972D01*
X52034Y134203D01*
X51538Y134372D01*
X51023Y134474D01*
X50500Y134509D01*
D02*
G37*
G36*
X40500D02*
X39977Y134474D01*
X39463Y134372D01*
X38966Y134203D01*
X38496Y133972D01*
X38060Y133680D01*
X37666Y133335D01*
X37320Y132940D01*
X37029Y132504D01*
X36797Y132034D01*
X36628Y131537D01*
X36526Y131023D01*
X36491Y130500D01*
Y129500D01*
X36526Y128977D01*
X36628Y128463D01*
X36797Y127966D01*
X37029Y127496D01*
X37320Y127060D01*
X37666Y126665D01*
X38060Y126320D01*
X38496Y126029D01*
X38966Y125797D01*
X39463Y125628D01*
X39977Y125526D01*
X40500Y125491D01*
X41023Y125526D01*
X41537Y125628D01*
X42034Y125797D01*
X42504Y126029D01*
X42940Y126320D01*
X43334Y126665D01*
X43680Y127060D01*
X43971Y127496D01*
X44203Y127966D01*
X44372Y128463D01*
X44474Y128977D01*
X44509Y129500D01*
Y130500D01*
X44474Y131023D01*
X44372Y131537D01*
X44203Y132034D01*
X43971Y132504D01*
X43680Y132940D01*
X43334Y133335D01*
X42940Y133680D01*
X42504Y133972D01*
X42034Y134203D01*
X41537Y134372D01*
X41023Y134474D01*
X40500Y134509D01*
D02*
G37*
G36*
X264256Y106719D02*
X256744D01*
Y105366D01*
X253356D01*
X252964Y105327D01*
X252587Y105213D01*
X252240Y105027D01*
X251935Y104777D01*
X246579Y99421D01*
X246329Y99116D01*
X246143Y98769D01*
X246029Y98392D01*
X245990Y98000D01*
Y70832D01*
X240918Y65760D01*
X237587D01*
X237462Y65946D01*
X237151Y66301D01*
X236796Y66612D01*
X236404Y66874D01*
X235981Y67083D01*
X235534Y67235D01*
X235071Y67327D01*
X234600Y67358D01*
X229400D01*
X228929Y67327D01*
X228466Y67235D01*
X228019Y67083D01*
X227596Y66874D01*
X227204Y66612D01*
X226849Y66301D01*
X226538Y65946D01*
X226276Y65554D01*
X226067Y65131D01*
X225915Y64684D01*
X225823Y64221D01*
X225792Y63750D01*
X225823Y63279D01*
X225915Y62816D01*
X226067Y62369D01*
X226276Y61946D01*
X226538Y61554D01*
X226849Y61199D01*
X227204Y60888D01*
X227596Y60626D01*
X228019Y60417D01*
X228466Y60265D01*
X228929Y60173D01*
X229400Y60142D01*
X234600D01*
X235071Y60173D01*
X235534Y60265D01*
X235981Y60417D01*
X236404Y60626D01*
X236796Y60888D01*
X237151Y61199D01*
X237462Y61554D01*
X237587Y61740D01*
X241750D01*
X242142Y61779D01*
X242519Y61893D01*
X242866Y62079D01*
X243171Y62329D01*
X249421Y68579D01*
X249421Y68579D01*
X249671Y68884D01*
X249857Y69231D01*
X249971Y69608D01*
X250010Y70000D01*
Y97168D01*
X254189Y101347D01*
X256744D01*
Y99994D01*
X264256D01*
Y106719D01*
D02*
G37*
G36*
X298256Y96876D02*
X290744D01*
Y90152D01*
X298256D01*
Y96876D01*
D02*
G37*
G36*
X260894Y96883D02*
X260106D01*
X259666Y96854D01*
X259234Y96768D01*
X258817Y96627D01*
X258422Y96432D01*
X258055Y96187D01*
X257724Y95896D01*
X257433Y95565D01*
X257188Y95199D01*
X256993Y94803D01*
X256852Y94386D01*
X256766Y93954D01*
X256737Y93514D01*
X256766Y93074D01*
X256852Y92642D01*
X256993Y92224D01*
X257188Y91829D01*
X257433Y91463D01*
X257724Y91131D01*
X258055Y90841D01*
X258422Y90596D01*
X258817Y90401D01*
X259234Y90259D01*
X259666Y90173D01*
X260106Y90144D01*
X260894D01*
X261333Y90173D01*
X261766Y90259D01*
X262183Y90401D01*
X262578Y90596D01*
X262945Y90841D01*
X263276Y91131D01*
X263567Y91463D01*
X263812Y91829D01*
X264007Y92224D01*
X264148Y92642D01*
X264234Y93074D01*
X264263Y93514D01*
X264234Y93954D01*
X264148Y94386D01*
X264007Y94803D01*
X263812Y95199D01*
X263567Y95565D01*
X263276Y95896D01*
X262945Y96187D01*
X262578Y96432D01*
X262183Y96627D01*
X261766Y96768D01*
X261333Y96854D01*
X260894Y96883D01*
D02*
G37*
G36*
X234600Y97358D02*
X229400D01*
X228929Y97327D01*
X228466Y97235D01*
X228019Y97083D01*
X227596Y96874D01*
X227204Y96612D01*
X226849Y96301D01*
X226538Y95946D01*
X226276Y95554D01*
X226067Y95131D01*
X225915Y94684D01*
X225823Y94221D01*
X225792Y93750D01*
X225823Y93279D01*
X225915Y92816D01*
X226067Y92369D01*
X226276Y91946D01*
X226538Y91554D01*
X226849Y91199D01*
X227204Y90888D01*
X227596Y90626D01*
X228019Y90417D01*
X228466Y90265D01*
X228929Y90173D01*
X229400Y90142D01*
X234600D01*
X235071Y90173D01*
X235534Y90265D01*
X235981Y90417D01*
X236404Y90626D01*
X236796Y90888D01*
X237151Y91199D01*
X237462Y91554D01*
X237724Y91946D01*
X237933Y92369D01*
X238085Y92816D01*
X238177Y93279D01*
X238208Y93750D01*
X238177Y94221D01*
X238085Y94684D01*
X237933Y95131D01*
X237724Y95554D01*
X237462Y95946D01*
X237151Y96301D01*
X236796Y96612D01*
X236404Y96874D01*
X235981Y97083D01*
X235534Y97235D01*
X235071Y97327D01*
X234600Y97358D01*
D02*
G37*
G36*
X204600D02*
X199400D01*
X198929Y97327D01*
X198466Y97235D01*
X198019Y97083D01*
X197596Y96874D01*
X197204Y96612D01*
X196849Y96301D01*
X196538Y95946D01*
X196276Y95554D01*
X196067Y95131D01*
X195915Y94684D01*
X195823Y94221D01*
X195792Y93750D01*
X195823Y93279D01*
X195915Y92816D01*
X196067Y92369D01*
X196276Y91946D01*
X196538Y91554D01*
X196849Y91199D01*
X197204Y90888D01*
X197596Y90626D01*
X198019Y90417D01*
X198466Y90265D01*
X198929Y90173D01*
X199400Y90142D01*
X204600D01*
X205071Y90173D01*
X205534Y90265D01*
X205981Y90417D01*
X206404Y90626D01*
X206796Y90888D01*
X207151Y91199D01*
X207462Y91554D01*
X207724Y91946D01*
X207933Y92369D01*
X208085Y92816D01*
X208177Y93279D01*
X208208Y93750D01*
X208177Y94221D01*
X208085Y94684D01*
X207933Y95131D01*
X207724Y95554D01*
X207462Y95946D01*
X207151Y96301D01*
X206796Y96612D01*
X206404Y96874D01*
X205981Y97083D01*
X205534Y97235D01*
X205071Y97327D01*
X204600Y97358D01*
D02*
G37*
G36*
X231250Y87859D02*
X229400D01*
X228864Y87824D01*
X228337Y87719D01*
X227828Y87546D01*
X227346Y87308D01*
X226899Y87010D01*
X226495Y86655D01*
X226140Y86251D01*
X225972Y86000D01*
X231250D01*
Y87859D01*
D02*
G37*
G36*
X204600D02*
X202750D01*
Y86000D01*
X208028D01*
X207860Y86251D01*
X207505Y86655D01*
X207101Y87010D01*
X206654Y87308D01*
X206172Y87546D01*
X205663Y87719D01*
X205136Y87824D01*
X204600Y87859D01*
D02*
G37*
G36*
X201250D02*
X199400D01*
X198864Y87824D01*
X198337Y87719D01*
X197828Y87546D01*
X197346Y87308D01*
X196899Y87010D01*
X196495Y86655D01*
X196140Y86251D01*
X195917Y85917D01*
X196000Y86000D01*
X201250D01*
Y87859D01*
D02*
G37*
G36*
X234600D02*
X232750D01*
Y86000D01*
X238000D01*
X238083Y85917D01*
X237860Y86251D01*
X237505Y86655D01*
X237101Y87010D01*
X236654Y87308D01*
X236172Y87546D01*
X235663Y87719D01*
X235136Y87824D01*
X234600Y87859D01*
D02*
G37*
G36*
X294894Y87041D02*
X294106D01*
X293667Y87012D01*
X293234Y86926D01*
X292817Y86784D01*
X292422Y86589D01*
X292055Y86344D01*
X291724Y86054D01*
X291433Y85722D01*
X291188Y85356D01*
X290993Y84961D01*
X290852Y84543D01*
X290766Y84111D01*
X290737Y83671D01*
X290766Y83232D01*
X290852Y82799D01*
X290993Y82382D01*
X291188Y81987D01*
X291433Y81620D01*
X291724Y81289D01*
X292055Y80998D01*
X292422Y80753D01*
X292817Y80558D01*
X293234Y80417D01*
X293667Y80331D01*
X294106Y80302D01*
X294894D01*
X295334Y80331D01*
X295766Y80417D01*
X296183Y80558D01*
X296578Y80753D01*
X296945Y80998D01*
X297276Y81289D01*
X297567Y81620D01*
X297812Y81987D01*
X298007Y82382D01*
X298148Y82799D01*
X298234Y83232D01*
X298263Y83671D01*
X298234Y84111D01*
X298148Y84543D01*
X298007Y84961D01*
X297812Y85356D01*
X297567Y85722D01*
X297276Y86054D01*
X296945Y86344D01*
X296578Y86589D01*
X296183Y86784D01*
X295766Y86926D01*
X295334Y87012D01*
X294894Y87041D01*
D02*
G37*
G36*
Y77198D02*
X294106D01*
X293667Y77169D01*
X293234Y77083D01*
X292817Y76942D01*
X292422Y76747D01*
X292055Y76502D01*
X291724Y76211D01*
X291433Y75880D01*
X291188Y75513D01*
X290993Y75118D01*
X290852Y74701D01*
X290766Y74269D01*
X290737Y73829D01*
X290766Y73389D01*
X290852Y72957D01*
X290993Y72539D01*
X291188Y72144D01*
X291433Y71778D01*
X291724Y71446D01*
X292055Y71156D01*
X292422Y70911D01*
X292817Y70716D01*
X293234Y70574D01*
X293667Y70488D01*
X294106Y70459D01*
X294894D01*
X295334Y70488D01*
X295766Y70574D01*
X296183Y70716D01*
X296578Y70911D01*
X296945Y71156D01*
X297276Y71446D01*
X297567Y71778D01*
X297812Y72144D01*
X298007Y72539D01*
X298148Y72957D01*
X298234Y73389D01*
X298263Y73829D01*
X298234Y74269D01*
X298148Y74701D01*
X298007Y75118D01*
X297812Y75513D01*
X297567Y75880D01*
X297276Y76211D01*
X296945Y76502D01*
X296578Y76747D01*
X296183Y76942D01*
X295766Y77083D01*
X295334Y77169D01*
X294894Y77198D01*
D02*
G37*
G36*
X238028Y71500D02*
X232750D01*
Y69641D01*
X234600D01*
X235136Y69676D01*
X235663Y69781D01*
X236172Y69954D01*
X236654Y70192D01*
X237101Y70490D01*
X237505Y70845D01*
X237860Y71249D01*
X238028Y71500D01*
D02*
G37*
G36*
X231250D02*
X225972D01*
X226140Y71249D01*
X226495Y70845D01*
X226899Y70490D01*
X227346Y70192D01*
X227828Y69954D01*
X228337Y69781D01*
X228864Y69676D01*
X229400Y69641D01*
X231250D01*
Y71500D01*
D02*
G37*
G36*
X208028D02*
X202750D01*
Y69641D01*
X204600D01*
X205136Y69676D01*
X205663Y69781D01*
X206172Y69954D01*
X206654Y70192D01*
X207101Y70490D01*
X207505Y70845D01*
X207860Y71249D01*
X208028Y71500D01*
D02*
G37*
G36*
X195492Y72508D02*
X195604Y72178D01*
X195842Y71696D01*
X196140Y71249D01*
X196495Y70845D01*
X196899Y70490D01*
X197346Y70192D01*
X197828Y69954D01*
X198337Y69781D01*
X198864Y69676D01*
X199400Y69641D01*
X201250D01*
Y71500D01*
X196500D01*
X195492Y72508D01*
D02*
G37*
G36*
X294894Y67356D02*
X294106D01*
X293667Y67327D01*
X293234Y67241D01*
X292817Y67099D01*
X292422Y66904D01*
X292055Y66659D01*
X291724Y66369D01*
X291433Y66037D01*
X291188Y65671D01*
X290993Y65276D01*
X290852Y64858D01*
X290766Y64426D01*
X290737Y63986D01*
X290766Y63546D01*
X290852Y63114D01*
X290993Y62697D01*
X291188Y62301D01*
X291433Y61935D01*
X291724Y61604D01*
X292055Y61313D01*
X292422Y61068D01*
X292817Y60873D01*
X293234Y60732D01*
X293667Y60646D01*
X294106Y60617D01*
X294894D01*
X295334Y60646D01*
X295766Y60732D01*
X296183Y60873D01*
X296578Y61068D01*
X296945Y61313D01*
X297276Y61604D01*
X297567Y61935D01*
X297812Y62301D01*
X298007Y62697D01*
X298148Y63114D01*
X298234Y63546D01*
X298263Y63986D01*
X298234Y64426D01*
X298148Y64858D01*
X298007Y65276D01*
X297812Y65671D01*
X297567Y66037D01*
X297276Y66369D01*
X296945Y66659D01*
X296578Y66904D01*
X296183Y67099D01*
X295766Y67241D01*
X295334Y67327D01*
X294894Y67356D01*
D02*
G37*
G36*
X260894D02*
X260106D01*
X259666Y67327D01*
X259234Y67241D01*
X258817Y67099D01*
X258422Y66904D01*
X258055Y66659D01*
X257724Y66369D01*
X257433Y66037D01*
X257188Y65671D01*
X256993Y65276D01*
X256852Y64858D01*
X256766Y64426D01*
X256737Y63986D01*
X256766Y63546D01*
X256852Y63114D01*
X256993Y62697D01*
X257188Y62301D01*
X257433Y61935D01*
X257724Y61604D01*
X258055Y61313D01*
X258422Y61068D01*
X258817Y60873D01*
X259234Y60732D01*
X259666Y60646D01*
X260106Y60617D01*
X260894D01*
X261333Y60646D01*
X261766Y60732D01*
X262183Y60873D01*
X262578Y61068D01*
X262945Y61313D01*
X263276Y61604D01*
X263567Y61935D01*
X263812Y62301D01*
X264007Y62697D01*
X264148Y63114D01*
X264234Y63546D01*
X264263Y63986D01*
X264234Y64426D01*
X264148Y64858D01*
X264007Y65276D01*
X263812Y65671D01*
X263567Y66037D01*
X263276Y66369D01*
X262945Y66659D01*
X262578Y66904D01*
X262183Y67099D01*
X261766Y67241D01*
X261333Y67327D01*
X260894Y67356D01*
D02*
G37*
G36*
X204600Y67358D02*
X199400D01*
X198929Y67327D01*
X198466Y67235D01*
X198019Y67083D01*
X197596Y66874D01*
X197204Y66612D01*
X196849Y66301D01*
X196538Y65946D01*
X196276Y65554D01*
X196067Y65131D01*
X195915Y64684D01*
X195823Y64221D01*
X195792Y63750D01*
X195823Y63279D01*
X195915Y62816D01*
X196067Y62369D01*
X196276Y61946D01*
X196538Y61554D01*
X196849Y61199D01*
X197204Y60888D01*
X197596Y60626D01*
X198019Y60417D01*
X198466Y60265D01*
X198929Y60173D01*
X199400Y60142D01*
X204600D01*
X205071Y60173D01*
X205534Y60265D01*
X205981Y60417D01*
X206404Y60626D01*
X206796Y60888D01*
X207151Y61199D01*
X207462Y61554D01*
X207724Y61946D01*
X207933Y62369D01*
X208085Y62816D01*
X208177Y63279D01*
X208208Y63750D01*
X208177Y64221D01*
X208085Y64684D01*
X207933Y65131D01*
X207724Y65554D01*
X207462Y65946D01*
X207151Y66301D01*
X206796Y66612D01*
X206404Y66874D01*
X205981Y67083D01*
X205534Y67235D01*
X205071Y67327D01*
X204600Y67358D01*
D02*
G37*
G36*
X260894Y57513D02*
X260106D01*
X259666Y57484D01*
X259234Y57398D01*
X258817Y57257D01*
X258422Y57062D01*
X258055Y56817D01*
X257724Y56526D01*
X257433Y56195D01*
X257188Y55828D01*
X256993Y55433D01*
X256852Y55016D01*
X256766Y54584D01*
X256737Y54144D01*
X256766Y53704D01*
X256852Y53272D01*
X256993Y52854D01*
X257188Y52459D01*
X257433Y52092D01*
X257724Y51761D01*
X258055Y51471D01*
X258422Y51226D01*
X258817Y51031D01*
X259234Y50889D01*
X259666Y50803D01*
X260106Y50774D01*
X260894D01*
X261333Y50803D01*
X261766Y50889D01*
X262183Y51031D01*
X262578Y51226D01*
X262945Y51471D01*
X263276Y51761D01*
X263567Y52092D01*
X263812Y52459D01*
X264007Y52854D01*
X264148Y53272D01*
X264234Y53704D01*
X264263Y54144D01*
X264234Y54584D01*
X264148Y55016D01*
X264007Y55433D01*
X263812Y55828D01*
X263567Y56195D01*
X263276Y56526D01*
X262945Y56817D01*
X262578Y57062D01*
X262183Y57257D01*
X261766Y57398D01*
X261333Y57484D01*
X260894Y57513D01*
D02*
G37*
G36*
X234600Y57358D02*
X229400D01*
X228929Y57327D01*
X228466Y57235D01*
X228019Y57083D01*
X227596Y56874D01*
X227204Y56612D01*
X226849Y56301D01*
X226538Y55946D01*
X226276Y55554D01*
X226067Y55131D01*
X225915Y54684D01*
X225823Y54221D01*
X225792Y53750D01*
X225823Y53279D01*
X225915Y52816D01*
X226067Y52369D01*
X226276Y51946D01*
X226538Y51554D01*
X226849Y51199D01*
X227204Y50888D01*
X227596Y50626D01*
X228019Y50417D01*
X228466Y50265D01*
X228929Y50173D01*
X229400Y50142D01*
X234600D01*
X235071Y50173D01*
X235534Y50265D01*
X235981Y50417D01*
X236404Y50626D01*
X236796Y50888D01*
X237151Y51199D01*
X237462Y51554D01*
X237724Y51946D01*
X237933Y52369D01*
X238085Y52816D01*
X238177Y53279D01*
X238208Y53750D01*
X238177Y54221D01*
X238085Y54684D01*
X237933Y55131D01*
X237724Y55554D01*
X237462Y55946D01*
X237151Y56301D01*
X236796Y56612D01*
X236404Y56874D01*
X235981Y57083D01*
X235534Y57235D01*
X235071Y57327D01*
X234600Y57358D01*
D02*
G37*
G36*
X250000Y28500D02*
X245750D01*
Y24750D01*
X250000D01*
Y28500D01*
D02*
G37*
G36*
X244250D02*
X240000D01*
Y24750D01*
X244250D01*
Y28500D01*
D02*
G37*
G36*
X250000Y23250D02*
X245000D01*
X240000D01*
Y19500D01*
X244320D01*
X244369Y18000D01*
X243977Y17974D01*
X243462Y17872D01*
X242966Y17704D01*
X242496Y17471D01*
X242060Y17180D01*
X241666Y16835D01*
X241320Y16440D01*
X241028Y16004D01*
X240796Y15534D01*
X240628Y15037D01*
X240526Y14523D01*
X240491Y14000D01*
X240526Y13477D01*
X240628Y12962D01*
X240796Y12466D01*
X241028Y11996D01*
X241320Y11560D01*
X241666Y11165D01*
X242060Y10820D01*
X242496Y10528D01*
X242966Y10297D01*
X243462Y10128D01*
X243977Y10026D01*
X244500Y9991D01*
X245500D01*
X246023Y10026D01*
X246537Y10128D01*
X247034Y10297D01*
X247431Y10492D01*
X262500D01*
X262958Y10522D01*
X263408Y10612D01*
X263842Y10759D01*
X264254Y10962D01*
X264635Y11217D01*
X264980Y11520D01*
X265283Y11865D01*
X265538Y12246D01*
X265740Y12658D01*
X265888Y13092D01*
X265978Y13542D01*
X266007Y14000D01*
X265978Y14458D01*
X265888Y14908D01*
X265740Y15342D01*
X265538Y15754D01*
X265283Y16135D01*
X264980Y16480D01*
X264635Y16783D01*
X264254Y17038D01*
X263842Y17241D01*
X263408Y17388D01*
X262958Y17478D01*
X262500Y17507D01*
X247431D01*
X247034Y17704D01*
X246537Y17872D01*
X246023Y17974D01*
X245631Y18000D01*
X245680Y19500D01*
X250000D01*
Y23250D01*
D02*
G37*
G36*
X189500Y18009D02*
X188500D01*
X187977Y17974D01*
X187462Y17872D01*
X186966Y17704D01*
X186496Y17471D01*
X186060Y17180D01*
X185666Y16835D01*
X185320Y16440D01*
X185029Y16004D01*
X184797Y15534D01*
X184628Y15037D01*
X184526Y14523D01*
X184491Y14000D01*
X184526Y13477D01*
X184628Y12962D01*
X184797Y12466D01*
X185029Y11996D01*
X185320Y11560D01*
X185666Y11165D01*
X186060Y10820D01*
X186496Y10528D01*
X186966Y10297D01*
X187462Y10128D01*
X187977Y10026D01*
X188500Y9991D01*
X189500D01*
X190023Y10026D01*
X190538Y10128D01*
X191034Y10297D01*
X191504Y10528D01*
X191940Y10820D01*
X192334Y11165D01*
X192680Y11560D01*
X192972Y11996D01*
X193203Y12466D01*
X193372Y12962D01*
X193474Y13477D01*
X193509Y14000D01*
X193474Y14523D01*
X193372Y15037D01*
X193203Y15534D01*
X192972Y16004D01*
X192680Y16440D01*
X192334Y16835D01*
X191940Y17180D01*
X191504Y17471D01*
X191034Y17704D01*
X190538Y17872D01*
X190023Y17974D01*
X189500Y18009D01*
D02*
G37*
G36*
X210000Y28008D02*
X209542Y27977D01*
X209092Y27888D01*
X208658Y27740D01*
X208246Y27538D01*
X207865Y27283D01*
X207520Y26980D01*
X207217Y26635D01*
X206962Y26254D01*
X206760Y25842D01*
X206612Y25408D01*
X206522Y24958D01*
X206492Y24500D01*
Y19331D01*
X205063D01*
Y8669D01*
X214937D01*
Y19331D01*
X213508D01*
Y24500D01*
X213477Y24958D01*
X213388Y25408D01*
X213241Y25842D01*
X213038Y26254D01*
X212783Y26635D01*
X212480Y26980D01*
X212135Y27283D01*
X211754Y27538D01*
X211342Y27740D01*
X210908Y27888D01*
X210458Y27977D01*
X210000Y28008D01*
D02*
G37*
G36*
X224000Y19339D02*
X223446Y19307D01*
X222900Y19215D01*
X222367Y19061D01*
X221854Y18849D01*
X221369Y18581D01*
X220917Y18260D01*
X220503Y17890D01*
X220134Y17477D01*
X219813Y17025D01*
X219545Y16539D01*
X219333Y16027D01*
X219179Y15494D01*
X219086Y14947D01*
X219055Y14394D01*
Y13606D01*
X219086Y13053D01*
X219179Y12506D01*
X219333Y11973D01*
X219545Y11461D01*
X219813Y10976D01*
X220134Y10523D01*
X220503Y10110D01*
X220917Y9740D01*
X221369Y9419D01*
X221854Y9151D01*
X222367Y8939D01*
X222900Y8785D01*
X223446Y8693D01*
X224000Y8662D01*
X224554Y8693D01*
X225100Y8785D01*
X225633Y8939D01*
X226146Y9151D01*
X226631Y9419D01*
X227083Y9740D01*
X227497Y10110D01*
X227866Y10523D01*
X228187Y10976D01*
X228455Y11461D01*
X228667Y11973D01*
X228821Y12506D01*
X228914Y13053D01*
X228945Y13606D01*
Y14394D01*
X228914Y14947D01*
X228821Y15494D01*
X228667Y16027D01*
X228455Y16539D01*
X228187Y17025D01*
X227866Y17477D01*
X227497Y17890D01*
X227083Y18260D01*
X226631Y18581D01*
X226146Y18849D01*
X225633Y19061D01*
X225100Y19215D01*
X224554Y19307D01*
X224000Y19339D01*
D02*
G37*
%LPD*%
D35*
X99500Y4500D02*
X165500D01*
X91000Y13000D02*
X99500Y4500D01*
X165500D02*
X185000Y24000D01*
X23500Y13000D02*
X91000D01*
X185000Y24000D02*
X189000D01*
X187250Y53750D02*
X202000D01*
X155500Y22000D02*
X187250Y53750D01*
X155500Y18000D02*
Y22000D01*
X213500Y108500D02*
X218250Y103750D01*
X232000D01*
X190500Y108500D02*
X213500D01*
X253356Y103356D02*
X260500D01*
X248000Y98000D02*
X253356Y103356D01*
X179000Y97000D02*
X190500Y108500D01*
X155500Y78000D02*
X172500D01*
X172000Y58000D02*
X179000Y65000D01*
Y97000D01*
X186000Y60000D02*
Y96000D01*
X164000Y38000D02*
X186000Y60000D01*
Y96000D02*
X194000Y104000D01*
X155500Y58000D02*
X172000D01*
X155500Y38000D02*
X164000D01*
X194000Y104000D02*
X201750D01*
X202000Y103750D01*
X248000Y70000D02*
Y98000D01*
X241750Y63750D02*
X248000Y70000D01*
X232000Y63750D02*
X241750D01*
X60500Y30500D02*
Y74000D01*
X50500Y30500D02*
Y69500D01*
X40500Y30500D02*
Y63500D01*
X30500Y30500D02*
Y61000D01*
X10394Y99000D02*
X35500D01*
X60500Y74000D01*
X5000Y104000D02*
X5394D01*
X10394Y99000D01*
X31000Y89000D02*
X50500Y69500D01*
X10394Y89000D02*
X31000D01*
X5000Y94000D02*
X5394D01*
X10394Y89000D01*
Y79000D02*
X25000D01*
X40500Y63500D01*
X5000Y84000D02*
X5394D01*
X10394Y79000D01*
Y69000D02*
X22500D01*
X30500Y61000D01*
X5394Y74000D02*
X10394Y69000D01*
X5000Y74000D02*
X5394D01*
D36*
X160000Y10000D02*
X184000Y34000D01*
X92000Y22500D02*
X104500Y10000D01*
X160000D01*
X7000Y29000D02*
X19000D01*
X25500Y22500D01*
X92000Y22500D01*
X184000Y34000D02*
X189000D01*
X202000Y113750D02*
X232000D01*
X202000Y43750D02*
X232000D01*
X198750D02*
X202000D01*
X189000Y34000D02*
X198750Y43750D01*
X205000Y34500D02*
X268500D01*
X194500Y24000D02*
X205000Y34500D01*
X189000Y24000D02*
X194500D01*
X268500Y34500D02*
X276000Y42000D01*
Y68000D01*
X270171Y73829D02*
X276000Y68000D01*
X260500Y73829D02*
X270171D01*
X194000Y148500D02*
X261500D01*
X277500Y132500D01*
Y92500D02*
Y132500D01*
X268671Y83671D02*
X277500Y92500D01*
X260500Y83671D02*
X268671D01*
X260500Y73829D02*
Y83671D01*
X5000Y54000D02*
X15000D01*
D38*
X245000Y14000D02*
X262500D01*
X210000D02*
Y24500D01*
D39*
X202000Y43750D02*
D03*
Y53750D02*
D03*
Y63750D02*
D03*
Y73750D02*
D03*
Y83750D02*
D03*
Y93750D02*
D03*
Y103750D02*
D03*
Y113750D02*
D03*
X232000Y83750D02*
D03*
Y93750D02*
D03*
Y73750D02*
D03*
Y63750D02*
D03*
Y113750D02*
D03*
Y103750D02*
D03*
Y53750D02*
D03*
Y43750D02*
D03*
D40*
X294500Y63986D02*
D03*
Y73829D02*
D03*
Y83671D02*
D03*
X260500Y73829D02*
D03*
Y83671D02*
D03*
Y63986D02*
D03*
Y54144D02*
D03*
Y93514D02*
D03*
X5000Y54000D02*
D03*
X15000Y64000D02*
D03*
Y74000D02*
D03*
Y84000D02*
D03*
Y94000D02*
D03*
Y104000D02*
D03*
X5000Y64000D02*
D03*
Y74000D02*
D03*
Y84000D02*
D03*
Y94000D02*
D03*
Y104000D02*
D03*
D41*
X294500Y93514D02*
D03*
X260500Y103356D02*
D03*
X15000Y54000D02*
D03*
D42*
X262500Y14000D02*
D03*
X210000Y24500D02*
D03*
X214000Y148500D02*
D03*
X7000Y29000D02*
D03*
X92500Y145500D02*
D03*
D43*
X245000Y14000D02*
D03*
X189000Y24000D02*
D03*
Y14000D02*
D03*
D44*
X245000Y24000D02*
D03*
X189000Y34000D02*
D03*
D45*
X224000Y14000D02*
D03*
D46*
X210000D02*
D03*
D47*
X184000Y148500D02*
D03*
X40500Y30500D02*
D03*
X50500D02*
D03*
X60500D02*
D03*
Y130000D02*
D03*
X50500D02*
D03*
X40500D02*
D03*
D48*
X194000Y148500D02*
D03*
X30500Y30500D02*
D03*
Y130000D02*
D03*
D49*
X88500Y5000D02*
D03*
X23500Y13000D02*
D03*
X110000Y18500D02*
D03*
Y139000D02*
D03*
Y119000D02*
D03*
Y98760D02*
D03*
Y78500D02*
D03*
Y58500D02*
D03*
Y38500D02*
D03*
X172500Y78000D02*
D03*
X155500D02*
D03*
Y18000D02*
D03*
Y38000D02*
D03*
Y58000D02*
D03*
M02*
