G04*
G04 #@! TF.GenerationSoftware,Altium Limited,Altium Designer,22.11.1 (43)*
G04*
G04 Layer_Color=65535*
%FSLAX25Y25*%
%MOIN*%
G70*
G04*
G04 #@! TF.SameCoordinates,6D67B21A-DBE7-4323-B212-FBECE55DCE4B*
G04*
G04*
G04 #@! TF.FilePolarity,Positive*
G04*
G01*
G75*
%ADD10C,0.00600*%
%ADD11C,0.00984*%
%ADD12C,0.00787*%
%ADD13C,0.00800*%
%ADD14C,0.01000*%
%ADD15C,0.00500*%
G36*
X199000Y147000D02*
X197500Y148500D01*
X199000Y150000D01*
Y147000D01*
D02*
G37*
G36*
X166500Y146500D02*
X164500Y148500D01*
X166500Y150500D01*
Y146500D01*
D02*
G37*
G36*
X27000Y130000D02*
X25500Y128500D01*
Y131500D01*
X27000Y130000D01*
D02*
G37*
G36*
X166500Y126500D02*
X164500Y128500D01*
X166500Y130500D01*
Y126500D01*
D02*
G37*
G36*
Y106500D02*
X164500Y108500D01*
X166500Y110500D01*
Y106500D01*
D02*
G37*
G36*
X254256Y103356D02*
X251500Y100600D01*
Y106112D01*
X254256Y103356D01*
D02*
G37*
G36*
X288256Y93514D02*
X285500Y90758D01*
Y96270D01*
X288256Y93514D01*
D02*
G37*
G36*
X166500Y86000D02*
X164500Y88000D01*
X166500Y90000D01*
Y86000D01*
D02*
G37*
G36*
Y66000D02*
X164500Y68000D01*
X166500Y70000D01*
Y66000D01*
D02*
G37*
G36*
X19378Y50866D02*
X16622Y53622D01*
X19378Y56378D01*
Y50866D01*
D02*
G37*
G36*
X166500Y46000D02*
X164500Y48000D01*
X166500Y50000D01*
Y46000D01*
D02*
G37*
G36*
X189000Y37500D02*
X187500Y39000D01*
X190500D01*
X189000Y37500D01*
D02*
G37*
G36*
X27000Y30500D02*
X25500Y29000D01*
Y32000D01*
X27000Y30500D01*
D02*
G37*
G36*
X245000Y27500D02*
X243500Y29000D01*
X246500D01*
X245000Y27500D01*
D02*
G37*
G36*
X166500Y26000D02*
X164500Y28000D01*
X166500Y30000D01*
Y26000D01*
D02*
G37*
G36*
X11000Y9000D02*
X9000Y7000D01*
Y11000D01*
X11000Y9000D01*
D02*
G37*
G36*
X166500Y6000D02*
X164500Y8000D01*
X166500Y10000D01*
Y6000D01*
D02*
G37*
D10*
X221000Y38750D02*
G03*
X213000Y38750I-4000J0D01*
G01*
X221000D02*
X228500D01*
X205500D02*
X213000D01*
X205500Y118750D02*
X228500D01*
Y38750D02*
Y118750D01*
X205500Y38750D02*
Y118750D01*
X166675Y145787D02*
X170500D01*
X160500Y145801D02*
X164502D01*
X170500Y145787D02*
Y151213D01*
X166675D02*
X170500D01*
X160500Y145801D02*
Y151213D01*
X164502D01*
X166675Y105787D02*
X170500D01*
X160500Y105801D02*
X164502D01*
X170500Y105787D02*
Y111213D01*
X166675D02*
X170500D01*
X160500Y105801D02*
Y111213D01*
X164502D01*
X166675Y85287D02*
X170500D01*
X160500Y85301D02*
X164502D01*
X170500Y85287D02*
Y90713D01*
X166675D02*
X170500D01*
X160500Y85301D02*
Y90713D01*
X164502D01*
X160500Y131213D02*
X164502D01*
X160500Y125801D02*
Y131213D01*
X166675D02*
X170500D01*
Y125787D02*
Y131213D01*
X160500Y125801D02*
X164502D01*
X166675Y125787D02*
X170500D01*
X166675Y65287D02*
X170500D01*
X160500Y65301D02*
X164502D01*
X170500Y65287D02*
Y70713D01*
X166675D02*
X170500D01*
X160500Y65301D02*
Y70713D01*
X164502D01*
X166675Y25287D02*
X170500D01*
X160500Y25301D02*
X164502D01*
X170500Y25287D02*
Y30713D01*
X166675D02*
X170500D01*
X160500Y25301D02*
Y30713D01*
X164502D01*
X166675Y45287D02*
X170500D01*
X160500Y45301D02*
X164502D01*
X170500Y45287D02*
Y50713D01*
X166675D02*
X170500D01*
X160500Y45301D02*
Y50713D01*
X164502D01*
X166675Y5287D02*
X170500D01*
X160500Y5301D02*
X164502D01*
X170500Y5287D02*
Y10713D01*
X166675D02*
X170500D01*
X160500Y5301D02*
Y10713D01*
X164502D01*
X140300Y111000D02*
X143622D01*
X140300Y106000D02*
X143622D01*
X140300D02*
Y111000D01*
X149700Y106000D02*
Y111000D01*
X146378D02*
X149700D01*
X146378Y106000D02*
X149700D01*
X140300Y90500D02*
X143622D01*
X140300Y85500D02*
X143622D01*
X140300D02*
Y90500D01*
X149700Y85500D02*
Y90500D01*
X146378D02*
X149700D01*
X146378Y85500D02*
X149700D01*
X140300Y30500D02*
X143622D01*
X140300Y25500D02*
X143622D01*
X140300D02*
Y30500D01*
X149700Y25500D02*
Y30500D01*
X146378D02*
X149700D01*
X146378Y25500D02*
X149700D01*
X140300Y10500D02*
X143622D01*
X140300Y5500D02*
X143622D01*
X140300D02*
Y10500D01*
X149700Y5500D02*
Y10500D01*
X146378D02*
X149700D01*
X146378Y5500D02*
X149700D01*
X140300Y70500D02*
X143622D01*
X140300Y65500D02*
X143622D01*
X140300D02*
Y70500D01*
X149700Y65500D02*
Y70500D01*
X146378D02*
X149700D01*
X146378Y65500D02*
X149700D01*
X140300Y50500D02*
X143622D01*
X140300Y45500D02*
X143622D01*
X140300D02*
Y50500D01*
X149700Y45500D02*
Y50500D01*
X146378D02*
X149700D01*
X146378Y45500D02*
X149700D01*
X140300Y151000D02*
X143622D01*
X140300Y146000D02*
X143622D01*
X140300D02*
Y151000D01*
X149700Y146000D02*
Y151000D01*
X146378D02*
X149700D01*
X146378Y146000D02*
X149700D01*
X140300Y131000D02*
X143622D01*
X140300Y126000D02*
X143622D01*
X140300D02*
Y131000D01*
X149700Y126000D02*
Y131000D01*
X146378D02*
X149700D01*
X146378Y126000D02*
X149700D01*
X5300Y46000D02*
X8622D01*
X5300Y41000D02*
X8622D01*
X5300D02*
Y46000D01*
X14700Y41000D02*
Y46000D01*
X11378D02*
X14700D01*
X11378Y41000D02*
X14700D01*
X5300Y39000D02*
X8622D01*
X5300Y34000D02*
X8622D01*
X5300D02*
Y39000D01*
X14700Y34000D02*
Y39000D01*
X11378D02*
X14700D01*
X11378Y34000D02*
X14700D01*
X5000Y11713D02*
X8825D01*
X10998Y11699D02*
X15000D01*
X5000Y6287D02*
Y11713D01*
Y6287D02*
X8825D01*
X15000D02*
Y11699D01*
X10998Y6287D02*
X15000D01*
X5300Y19500D02*
X8622D01*
X5300Y14500D02*
X8622D01*
X5300D02*
Y19500D01*
X14700Y14500D02*
Y19500D01*
X11378D02*
X14700D01*
X11378Y14500D02*
X14700D01*
X112500Y49378D02*
Y52700D01*
X107500Y49378D02*
Y52700D01*
X112500D01*
X107500Y43300D02*
X112500D01*
Y46622D01*
X107500Y43300D02*
Y46622D01*
X112500Y89378D02*
Y92700D01*
X107500Y89378D02*
Y92700D01*
X112500D01*
X107500Y83300D02*
X112500D01*
Y86622D01*
X107500Y83300D02*
Y86622D01*
X112500Y69378D02*
Y72700D01*
X107500Y69378D02*
Y72700D01*
X112500D01*
X107500Y63300D02*
X112500D01*
Y66622D01*
X107500Y63300D02*
Y66622D01*
X112500Y29378D02*
Y32700D01*
X107500Y29378D02*
Y32700D01*
X112500D01*
X107500Y23300D02*
X112500D01*
Y26622D01*
X107500Y23300D02*
Y26622D01*
X112500Y9378D02*
Y12700D01*
X107500Y9378D02*
Y12700D01*
X112500D01*
X107500Y3300D02*
X112500D01*
Y6622D01*
X107500Y3300D02*
Y6622D01*
Y103560D02*
Y106882D01*
X112500Y103560D02*
Y106882D01*
X107500Y103560D02*
X112500D01*
X107500Y112960D02*
X112500D01*
X107500Y109638D02*
Y112960D01*
X112500Y109638D02*
Y112960D01*
Y129878D02*
Y133200D01*
X107500Y129878D02*
Y133200D01*
X112500D01*
X107500Y123800D02*
X112500D01*
Y127122D01*
X107500Y123800D02*
Y127122D01*
Y143800D02*
Y147122D01*
X112500Y143800D02*
Y147122D01*
X107500Y143800D02*
X112500D01*
X107500Y153200D02*
X112500D01*
X107500Y149878D02*
Y153200D01*
X112500Y149878D02*
Y153200D01*
D11*
X123555Y75087D02*
G03*
X123555Y75087I-492J0D01*
G01*
Y55087D02*
G03*
X123555Y55087I-492J0D01*
G01*
Y35087D02*
G03*
X123555Y35087I-492J0D01*
G01*
Y15087D02*
G03*
X123555Y15087I-492J0D01*
G01*
Y115346D02*
G03*
X123555Y115346I-492J0D01*
G01*
Y95087D02*
G03*
X123555Y95087I-492J0D01*
G01*
Y155587D02*
G03*
X123555Y155587I-492J0D01*
G01*
Y135587D02*
G03*
X123555Y135587I-492J0D01*
G01*
D12*
X308752Y54014D02*
Y103014D01*
X285500D02*
X308752D01*
X285500Y54014D02*
Y103014D01*
Y54014D02*
X308752D01*
X274000Y44356D02*
Y112856D01*
X251500D02*
X274000D01*
X251500Y44356D02*
Y112856D01*
Y44356D02*
X274000D01*
X240000Y29000D02*
X250000D01*
Y9000D02*
Y29000D01*
X240000Y9000D02*
Y29000D01*
Y9000D02*
X250000D01*
X184000Y8500D02*
X194000D01*
X184000D02*
Y39000D01*
X194000Y8500D02*
Y39000D01*
X184000D02*
X194000D01*
X199000Y143500D02*
Y153500D01*
X179000Y143500D02*
X199000D01*
X179000Y153500D02*
X199000D01*
X179000Y143500D02*
Y153500D01*
X126606Y73905D02*
X129756D01*
Y70756D02*
Y73905D01*
X126606Y62094D02*
X129756D01*
Y65244D01*
X126606Y53905D02*
X129756D01*
Y50756D02*
Y53905D01*
X126606Y42094D02*
X129756D01*
Y45244D01*
X126606Y33906D02*
X129756D01*
Y30756D02*
Y33906D01*
X126606Y22095D02*
X129756D01*
Y25244D01*
Y2094D02*
Y5244D01*
X126606Y2094D02*
X129756D01*
Y10756D02*
Y13905D01*
X126606D02*
X129756D01*
Y102354D02*
Y105504D01*
X126606Y102354D02*
X129756D01*
Y111016D02*
Y114165D01*
X126606D02*
X129756D01*
Y82095D02*
Y85244D01*
X126606Y82095D02*
X129756D01*
Y90756D02*
Y93906D01*
X126606D02*
X129756D01*
X126606Y154405D02*
X129756D01*
Y151256D02*
Y154405D01*
X126606Y142595D02*
X129756D01*
Y145744D01*
Y122594D02*
Y125744D01*
X126606Y122594D02*
X129756D01*
Y131256D02*
Y134406D01*
X126606D02*
X129756D01*
X25500Y25500D02*
Y35500D01*
X65500D01*
X25500Y25500D02*
X65500D01*
Y35500D01*
X19252Y48189D02*
Y109500D01*
X748D02*
X19252D01*
X748Y48189D02*
X19252D01*
X748D02*
Y109500D01*
X65500Y125000D02*
Y135000D01*
X25500Y125000D02*
X65500D01*
X25500Y135000D02*
X65500D01*
X25500Y125000D02*
Y135000D01*
D13*
X203000Y19000D02*
X217000D01*
Y-18000D02*
Y19000D01*
X203000Y-18000D02*
X217000D01*
X203000D02*
Y19000D01*
X207000Y-18000D02*
Y-12000D01*
X213000D01*
Y-18000D02*
Y-12000D01*
X217000Y19000D02*
X231000D01*
X217000Y-18000D02*
X231000D01*
X227000D02*
Y-12000D01*
X221000D02*
X227000D01*
X221000Y-18000D02*
Y-12000D01*
X231000Y-18000D02*
Y19000D01*
D14*
X24166Y65332D02*
X23499Y65999D01*
X22166D01*
X21500Y65332D01*
Y62666D01*
X22166Y62000D01*
X23499D01*
X24166Y62666D01*
Y63999D01*
X22833D01*
X25499Y62000D02*
Y65999D01*
X28164Y62000D01*
Y65999D01*
X29497D02*
Y62000D01*
X31497D01*
X32163Y62666D01*
Y65332D01*
X31497Y65999D01*
X29497D01*
X21500Y55999D02*
Y53333D01*
X22833Y52000D01*
X24166Y53333D01*
Y55999D01*
X28164Y55332D02*
X27498Y55999D01*
X26165D01*
X25499Y55332D01*
Y52666D01*
X26165Y52000D01*
X27498D01*
X28164Y52666D01*
X32163Y55332D02*
X31497Y55999D01*
X30164D01*
X29497Y55332D01*
Y52666D01*
X30164Y52000D01*
X31497D01*
X32163Y52666D01*
X76166Y6332D02*
X75499Y6999D01*
X74166D01*
X73500Y6332D01*
Y3666D01*
X74166Y3000D01*
X75499D01*
X76166Y3666D01*
Y4999D01*
X74833D01*
X77499Y3000D02*
Y6999D01*
X80164Y3000D01*
Y6999D01*
X81497D02*
Y3000D01*
X83497D01*
X84163Y3666D01*
Y6332D01*
X83497Y6999D01*
X81497D01*
X271166Y15999D02*
X270499Y16665D01*
X269166D01*
X268500Y15999D01*
Y13333D01*
X269166Y12666D01*
X270499D01*
X271166Y13333D01*
Y14666D01*
X269833D01*
X272499Y12666D02*
Y16665D01*
X275165Y12666D01*
Y16665D01*
X276497D02*
Y12666D01*
X278497D01*
X279163Y13333D01*
Y15999D01*
X278497Y16665D01*
X276497D01*
X280496Y12000D02*
X283162D01*
X287161Y16665D02*
X284495D01*
Y12666D01*
X287161D01*
X284495Y14666D02*
X285828D01*
X288494Y16665D02*
X291159Y12666D01*
Y16665D02*
X288494Y12666D01*
X292492Y16665D02*
X295158D01*
X293825D01*
Y12666D01*
X220000Y150499D02*
Y147833D01*
X221333Y146500D01*
X222666Y147833D01*
Y150499D01*
X223999D02*
Y146500D01*
X225998D01*
X226664Y147167D01*
Y149832D01*
X225998Y150499D01*
X223999D01*
X227997D02*
Y146500D01*
X229997D01*
X230663Y147167D01*
Y149832D01*
X229997Y150499D01*
X227997D01*
X264000Y149832D02*
Y145833D01*
X265999D01*
X266666Y146499D01*
Y149165D01*
X265999Y149832D01*
X264000D01*
X269998Y145833D02*
X268665D01*
X267999Y146499D01*
Y147832D01*
X268665Y148499D01*
X269998D01*
X270665Y147832D01*
Y147166D01*
X267999D01*
X271997Y145833D02*
X273997D01*
X274663Y146499D01*
X273997Y147166D01*
X272664D01*
X271997Y147832D01*
X272664Y148499D01*
X274663D01*
X275996Y145833D02*
X277329D01*
X276663D01*
Y148499D01*
X275996D01*
X280661Y144500D02*
X281328D01*
X281994Y145167D01*
Y148499D01*
X279995D01*
X279328Y147832D01*
Y146499D01*
X279995Y145833D01*
X281994D01*
X283327D02*
Y148499D01*
X285327D01*
X285993Y147832D01*
Y145833D01*
X289325D02*
X287992D01*
X287326Y146499D01*
Y147832D01*
X287992Y148499D01*
X289325D01*
X289992Y147832D01*
Y147166D01*
X287326D01*
X293990Y149832D02*
Y145833D01*
X291991D01*
X291324Y146499D01*
Y147832D01*
X291991Y148499D01*
X293990D01*
X299322Y149832D02*
Y145833D01*
X301321D01*
X301988Y146499D01*
Y147166D01*
Y147832D01*
X301321Y148499D01*
X299322D01*
X303321D02*
Y146499D01*
X303987Y145833D01*
X305986D01*
Y145167D01*
X305320Y144500D01*
X304654D01*
X305986Y145833D02*
Y148499D01*
X264500Y141832D02*
Y137833D01*
X266499D01*
X267166Y138499D01*
Y139166D01*
X266499Y139832D01*
X264500D01*
X266499D01*
X267166Y140499D01*
Y141165D01*
X266499Y141832D01*
X264500D01*
X268499Y140499D02*
Y138499D01*
X269165Y137833D01*
X271164D01*
Y140499D01*
X272497Y137833D02*
X274497D01*
X275163Y138499D01*
X274497Y139166D01*
X273164D01*
X272497Y139832D01*
X273164Y140499D01*
X275163D01*
X276496D02*
Y137833D01*
Y139166D01*
X277163Y139832D01*
X277829Y140499D01*
X278496D01*
X281161D02*
X282494D01*
X283161Y139832D01*
Y137833D01*
X281161D01*
X280495Y138499D01*
X281161Y139166D01*
X283161D01*
X288492Y141832D02*
X291158D01*
X289825D01*
Y137833D01*
X293157D02*
X294490D01*
X295157Y138499D01*
Y139832D01*
X294490Y140499D01*
X293157D01*
X292491Y139832D01*
Y138499D01*
X293157Y137833D01*
X296490Y136500D02*
Y140499D01*
X298489D01*
X299155Y139832D01*
Y138499D01*
X298489Y137833D01*
X296490D01*
X301155Y140499D02*
X302488D01*
X303154Y139832D01*
Y137833D01*
X301155D01*
X300488Y138499D01*
X301155Y139166D01*
X303154D01*
X304487Y137833D02*
X305820D01*
X305153D01*
Y141832D01*
X304487D01*
D15*
X215167Y124000D02*
Y122334D01*
X215500Y122000D01*
X216167D01*
X216500Y122334D01*
Y124000D01*
X217166Y122000D02*
X217833D01*
X217500D01*
Y124000D01*
X217166Y123667D01*
X296167Y108000D02*
X295500D01*
X295834D01*
Y106334D01*
X295500Y106000D01*
X295167D01*
X294834Y106334D01*
X296833Y107667D02*
X297166Y108000D01*
X297833D01*
X298166Y107667D01*
Y107333D01*
X297833Y107000D01*
X298166Y106667D01*
Y106334D01*
X297833Y106000D01*
X297166D01*
X296833Y106334D01*
Y106667D01*
X297166Y107000D01*
X296833Y107333D01*
Y107667D01*
X297166Y107000D02*
X297833D01*
X262167Y119000D02*
X261500D01*
X261834D01*
Y117334D01*
X261500Y117000D01*
X261167D01*
X260834Y117334D01*
X262833D02*
X263166Y117000D01*
X263833D01*
X264166Y117334D01*
Y118667D01*
X263833Y119000D01*
X263166D01*
X262833Y118667D01*
Y118333D01*
X263166Y118000D01*
X264166D01*
X259834Y8500D02*
X261167D01*
X260501D01*
Y6500D01*
X261834D02*
Y8500D01*
X262833D01*
X263166Y8167D01*
Y7500D01*
X262833Y7167D01*
X261834D01*
X265166Y8500D02*
X263833D01*
Y7500D01*
X264499Y7833D01*
X264833D01*
X265166Y7500D01*
Y6834D01*
X264833Y6500D01*
X264166D01*
X263833Y6834D01*
X255500Y19833D02*
Y20500D01*
Y20166D01*
X253834D01*
X253500Y20500D01*
Y20833D01*
X253834Y21166D01*
X255500Y17834D02*
X255167Y18500D01*
X254500Y19167D01*
X253834D01*
X253500Y18834D01*
Y18167D01*
X253834Y17834D01*
X254167D01*
X254500Y18167D01*
Y19167D01*
X216667Y24000D02*
X216000D01*
X216334D01*
Y22334D01*
X216000Y22000D01*
X215667D01*
X215334Y22334D01*
X217333Y23666D02*
X217667Y24000D01*
X218333D01*
X218666Y23666D01*
Y23333D01*
X218333Y23000D01*
X218000D01*
X218333D01*
X218666Y22667D01*
Y22334D01*
X218333Y22000D01*
X217667D01*
X217333Y22334D01*
X179000Y23167D02*
Y22500D01*
Y22834D01*
X180666D01*
X181000Y22500D01*
Y22167D01*
X180666Y21834D01*
X179000Y23833D02*
Y25166D01*
X179333D01*
X180666Y23833D01*
X181000D01*
X203000Y21834D02*
Y23167D01*
Y22501D01*
X205000D01*
Y23833D02*
X203000D01*
Y24833D01*
X203333Y25166D01*
X204000D01*
X204333Y24833D01*
Y23833D01*
X205000Y26833D02*
X203000D01*
X204000Y25833D01*
Y27166D01*
X211334Y142500D02*
X212667D01*
X212001D01*
Y140500D01*
X213334D02*
Y142500D01*
X214333D01*
X214666Y142166D01*
Y141500D01*
X214333Y141167D01*
X213334D01*
X215333Y142166D02*
X215666Y142500D01*
X216333D01*
X216666Y142166D01*
Y141833D01*
X216333Y141500D01*
X215999D01*
X216333D01*
X216666Y141167D01*
Y140834D01*
X216333Y140500D01*
X215666D01*
X215333Y140834D01*
X188667Y141000D02*
X188000D01*
X188334D01*
Y139334D01*
X188000Y139000D01*
X187667D01*
X187334Y139334D01*
X190666Y139000D02*
X189333D01*
X190666Y140333D01*
Y140666D01*
X190333Y141000D01*
X189666D01*
X189333Y140666D01*
X163166Y155499D02*
Y153500D01*
X164166D01*
X164499Y153833D01*
Y155166D01*
X164166Y155499D01*
X163166D01*
X166499Y155166D02*
X166165Y155499D01*
X165499D01*
X165166Y155166D01*
Y154833D01*
X165499Y154499D01*
X166165D01*
X166499Y154166D01*
Y153833D01*
X166165Y153500D01*
X165499D01*
X165166Y153833D01*
X167165Y153500D02*
X167831D01*
X167498D01*
Y155499D01*
X167165Y155166D01*
X162833Y115499D02*
Y113500D01*
X163833D01*
X164166Y113833D01*
Y115166D01*
X163833Y115499D01*
X162833D01*
X166165Y115166D02*
X165832Y115499D01*
X165165D01*
X164832Y115166D01*
Y114833D01*
X165165Y114499D01*
X165832D01*
X166165Y114166D01*
Y113833D01*
X165832Y113500D01*
X165165D01*
X164832Y113833D01*
X166832Y115166D02*
X167165Y115499D01*
X167831D01*
X168165Y115166D01*
Y114833D01*
X167831Y114499D01*
X167498D01*
X167831D01*
X168165Y114166D01*
Y113833D01*
X167831Y113500D01*
X167165D01*
X166832Y113833D01*
X162833Y94999D02*
Y93000D01*
X163833D01*
X164166Y93333D01*
Y94666D01*
X163833Y94999D01*
X162833D01*
X166165Y94666D02*
X165832Y94999D01*
X165165D01*
X164832Y94666D01*
Y94333D01*
X165165Y93999D01*
X165832D01*
X166165Y93666D01*
Y93333D01*
X165832Y93000D01*
X165165D01*
X164832Y93333D01*
X167831Y93000D02*
Y94999D01*
X166832Y93999D01*
X168165D01*
X162833Y135499D02*
Y133500D01*
X163833D01*
X164166Y133833D01*
Y135166D01*
X163833Y135499D01*
X162833D01*
X166165Y135166D02*
X165832Y135499D01*
X165165D01*
X164832Y135166D01*
Y134833D01*
X165165Y134500D01*
X165832D01*
X166165Y134166D01*
Y133833D01*
X165832Y133500D01*
X165165D01*
X164832Y133833D01*
X168165Y133500D02*
X166832D01*
X168165Y134833D01*
Y135166D01*
X167831Y135499D01*
X167165D01*
X166832Y135166D01*
X162833Y74999D02*
Y73000D01*
X163833D01*
X164166Y73333D01*
Y74666D01*
X163833Y74999D01*
X162833D01*
X166165Y74666D02*
X165832Y74999D01*
X165165D01*
X164832Y74666D01*
Y74333D01*
X165165Y74000D01*
X165832D01*
X166165Y73666D01*
Y73333D01*
X165832Y73000D01*
X165165D01*
X164832Y73333D01*
X168165Y74999D02*
X166832D01*
Y74000D01*
X167498Y74333D01*
X167831D01*
X168165Y74000D01*
Y73333D01*
X167831Y73000D01*
X167165D01*
X166832Y73333D01*
X162833Y34999D02*
Y33000D01*
X163833D01*
X164166Y33333D01*
Y34666D01*
X163833Y34999D01*
X162833D01*
X166165Y34666D02*
X165832Y34999D01*
X165165D01*
X164832Y34666D01*
Y34333D01*
X165165Y33999D01*
X165832D01*
X166165Y33666D01*
Y33333D01*
X165832Y33000D01*
X165165D01*
X164832Y33333D01*
X166832Y34999D02*
X168165D01*
Y34666D01*
X166832Y33333D01*
Y33000D01*
X162833Y54999D02*
Y53000D01*
X163833D01*
X164166Y53333D01*
Y54666D01*
X163833Y54999D01*
X162833D01*
X166165Y54666D02*
X165832Y54999D01*
X165165D01*
X164832Y54666D01*
Y54333D01*
X165165Y54000D01*
X165832D01*
X166165Y53666D01*
Y53333D01*
X165832Y53000D01*
X165165D01*
X164832Y53333D01*
X168165Y54999D02*
X167498Y54666D01*
X166832Y54000D01*
Y53333D01*
X167165Y53000D01*
X167831D01*
X168165Y53333D01*
Y53666D01*
X167831Y54000D01*
X166832D01*
X162833Y14999D02*
Y13000D01*
X163833D01*
X164166Y13333D01*
Y14666D01*
X163833Y14999D01*
X162833D01*
X166165Y14666D02*
X165832Y14999D01*
X165165D01*
X164832Y14666D01*
Y14333D01*
X165165Y13999D01*
X165832D01*
X166165Y13666D01*
Y13333D01*
X165832Y13000D01*
X165165D01*
X164832Y13333D01*
X166832Y14666D02*
X167165Y14999D01*
X167831D01*
X168165Y14666D01*
Y14333D01*
X167831Y13999D01*
X168165Y13666D01*
Y13333D01*
X167831Y13000D01*
X167165D01*
X166832Y13333D01*
Y13666D01*
X167165Y13999D01*
X166832Y14333D01*
Y14666D01*
X167165Y13999D02*
X167831D01*
X143333Y113500D02*
Y115499D01*
X144333D01*
X144666Y115166D01*
Y114499D01*
X144333Y114166D01*
X143333D01*
X144000D02*
X144666Y113500D01*
X146332D02*
Y115499D01*
X145332Y114499D01*
X146665D01*
X143333Y93000D02*
Y94999D01*
X144333D01*
X144666Y94666D01*
Y93999D01*
X144333Y93666D01*
X143333D01*
X144000D02*
X144666Y93000D01*
X146665Y94999D02*
X145332D01*
Y93999D01*
X145999Y94333D01*
X146332D01*
X146665Y93999D01*
Y93333D01*
X146332Y93000D01*
X145666D01*
X145332Y93333D01*
X143333Y33000D02*
Y34999D01*
X144333D01*
X144666Y34666D01*
Y33999D01*
X144333Y33666D01*
X143333D01*
X144000D02*
X144666Y33000D01*
X145332Y34666D02*
X145666Y34999D01*
X146332D01*
X146665Y34666D01*
Y34333D01*
X146332Y33999D01*
X146665Y33666D01*
Y33333D01*
X146332Y33000D01*
X145666D01*
X145332Y33333D01*
Y33666D01*
X145666Y33999D01*
X145332Y34333D01*
Y34666D01*
X145666Y33999D02*
X146332D01*
X143333Y13000D02*
Y14999D01*
X144333D01*
X144666Y14666D01*
Y13999D01*
X144333Y13666D01*
X143333D01*
X144000D02*
X144666Y13000D01*
X145332Y13333D02*
X145666Y13000D01*
X146332D01*
X146665Y13333D01*
Y14666D01*
X146332Y14999D01*
X145666D01*
X145332Y14666D01*
Y14333D01*
X145666Y13999D01*
X146665D01*
X143333Y73000D02*
Y74999D01*
X144333D01*
X144666Y74666D01*
Y74000D01*
X144333Y73666D01*
X143333D01*
X144000D02*
X144666Y73000D01*
X146665Y74999D02*
X145999Y74666D01*
X145332Y74000D01*
Y73333D01*
X145666Y73000D01*
X146332D01*
X146665Y73333D01*
Y73666D01*
X146332Y74000D01*
X145332D01*
X143333Y53000D02*
Y54999D01*
X144333D01*
X144666Y54666D01*
Y54000D01*
X144333Y53666D01*
X143333D01*
X144000D02*
X144666Y53000D01*
X145332Y54999D02*
X146665D01*
Y54666D01*
X145332Y53333D01*
Y53000D01*
X143333Y153500D02*
Y155499D01*
X144333D01*
X144666Y155166D01*
Y154499D01*
X144333Y154166D01*
X143333D01*
X144000D02*
X144666Y153500D01*
X146665D02*
X145332D01*
X146665Y154833D01*
Y155166D01*
X146332Y155499D01*
X145666D01*
X145332Y155166D01*
X143333Y133500D02*
Y135499D01*
X144333D01*
X144666Y135166D01*
Y134500D01*
X144333Y134166D01*
X143333D01*
X144000D02*
X144666Y133500D01*
X145332Y135166D02*
X145666Y135499D01*
X146332D01*
X146665Y135166D01*
Y134833D01*
X146332Y134500D01*
X145999D01*
X146332D01*
X146665Y134166D01*
Y133833D01*
X146332Y133500D01*
X145666D01*
X145332Y133833D01*
X118166Y67966D02*
X116833D01*
X116499Y67633D01*
Y66967D01*
X116833Y66633D01*
X118166D01*
X118499Y66967D01*
Y67633D01*
X117832Y67300D02*
X118499Y67966D01*
Y67633D02*
X118166Y67966D01*
X116499Y69966D02*
Y68633D01*
X117499D01*
X117166Y69299D01*
Y69632D01*
X117499Y69966D01*
X118166D01*
X118499Y69632D01*
Y68966D01*
X118166Y68633D01*
Y47966D02*
X116833D01*
X116499Y47633D01*
Y46967D01*
X116833Y46633D01*
X118166D01*
X118499Y46967D01*
Y47633D01*
X117832Y47300D02*
X118499Y47966D01*
Y47633D02*
X118166Y47966D01*
X116499Y49966D02*
X116833Y49299D01*
X117499Y48633D01*
X118166D01*
X118499Y48966D01*
Y49632D01*
X118166Y49966D01*
X117832D01*
X117499Y49632D01*
Y48633D01*
X118166Y27966D02*
X116833D01*
X116499Y27633D01*
Y26967D01*
X116833Y26633D01*
X118166D01*
X118499Y26967D01*
Y27633D01*
X117832Y27300D02*
X118499Y27966D01*
Y27633D02*
X118166Y27966D01*
X116499Y28633D02*
Y29966D01*
X116833D01*
X118166Y28633D01*
X118499D01*
X118166Y7966D02*
X116833D01*
X116499Y7633D01*
Y6967D01*
X116833Y6633D01*
X118166D01*
X118499Y6967D01*
Y7633D01*
X117832Y7300D02*
X118499Y7966D01*
Y7633D02*
X118166Y7966D01*
X116833Y8633D02*
X116499Y8966D01*
Y9632D01*
X116833Y9966D01*
X117166D01*
X117499Y9632D01*
X117832Y9966D01*
X118166D01*
X118499Y9632D01*
Y8966D01*
X118166Y8633D01*
X117832D01*
X117499Y8966D01*
X117166Y8633D01*
X116833D01*
X117499Y8966D02*
Y9632D01*
X118166Y108166D02*
X116833D01*
X116499Y107833D01*
Y107167D01*
X116833Y106833D01*
X118166D01*
X118499Y107167D01*
Y107833D01*
X117832Y107500D02*
X118499Y108166D01*
Y107833D02*
X118166Y108166D01*
X116833Y108833D02*
X116499Y109166D01*
Y109832D01*
X116833Y110166D01*
X117166D01*
X117499Y109832D01*
Y109499D01*
Y109832D01*
X117832Y110166D01*
X118166D01*
X118499Y109832D01*
Y109166D01*
X118166Y108833D01*
Y87966D02*
X116833D01*
X116499Y87633D01*
Y86967D01*
X116833Y86633D01*
X118166D01*
X118499Y86967D01*
Y87633D01*
X117832Y87300D02*
X118499Y87966D01*
Y87633D02*
X118166Y87966D01*
X118499Y89632D02*
X116499D01*
X117499Y88633D01*
Y89966D01*
X118166Y148800D02*
X116833D01*
X116500Y148466D01*
Y147800D01*
X116833Y147467D01*
X118166D01*
X118499Y147800D01*
Y148466D01*
X117833Y148133D02*
X118499Y148800D01*
Y148466D02*
X118166Y148800D01*
X118499Y149466D02*
Y150132D01*
Y149799D01*
X116500D01*
X116833Y149466D01*
X118166Y128466D02*
X116833D01*
X116499Y128133D01*
Y127467D01*
X116833Y127133D01*
X118166D01*
X118499Y127467D01*
Y128133D01*
X117832Y127800D02*
X118499Y128466D01*
Y128133D02*
X118166Y128466D01*
X118499Y130466D02*
Y129133D01*
X117166Y130466D01*
X116833D01*
X116499Y130132D01*
Y129466D01*
X116833Y129133D01*
X45167Y23000D02*
X44500D01*
X44834D01*
Y21334D01*
X44500Y21000D01*
X44167D01*
X43834Y21334D01*
X47166Y23000D02*
X45833D01*
Y22000D01*
X46500Y22333D01*
X46833D01*
X47166Y22000D01*
Y21334D01*
X46833Y21000D01*
X46167D01*
X45833Y21334D01*
X18500Y44166D02*
X18167Y44500D01*
X17500D01*
X17167Y44166D01*
Y42834D01*
X17500Y42500D01*
X18167D01*
X18500Y42834D01*
X19166Y42500D02*
X19833D01*
X19500D01*
Y44500D01*
X19166Y44166D01*
X18667Y37167D02*
X18334Y37500D01*
X17667D01*
X17334Y37167D01*
Y35834D01*
X17667Y35500D01*
X18334D01*
X18667Y35834D01*
X20666Y35500D02*
X19333D01*
X20666Y36833D01*
Y37167D01*
X20333Y37500D01*
X19667D01*
X19333Y37167D01*
X18834Y6000D02*
Y4000D01*
X19834D01*
X20167Y4334D01*
Y5666D01*
X19834Y6000D01*
X18834D01*
X22166Y5666D02*
X21833Y6000D01*
X21167D01*
X20833Y5666D01*
Y5333D01*
X21167Y5000D01*
X21833D01*
X22166Y4667D01*
Y4334D01*
X21833Y4000D01*
X21167D01*
X20833Y4334D01*
X22833D02*
X23166Y4000D01*
X23833D01*
X24166Y4334D01*
Y5666D01*
X23833Y6000D01*
X23166D01*
X22833Y5666D01*
Y5333D01*
X23166Y5000D01*
X24166D01*
X18167Y19000D02*
Y21000D01*
X19167D01*
X19500Y20666D01*
Y20000D01*
X19167Y19667D01*
X18167D01*
X18834D02*
X19500Y19000D01*
X20166D02*
X20833D01*
X20500D01*
Y21000D01*
X20166Y20666D01*
X12334Y29000D02*
X13667D01*
X13001D01*
Y27000D01*
X14333D02*
Y29000D01*
X15333D01*
X15666Y28666D01*
Y28000D01*
X15333Y27667D01*
X14333D01*
X17666Y27000D02*
X16333D01*
X17666Y28333D01*
Y28666D01*
X17333Y29000D01*
X16666D01*
X16333Y28666D01*
X10000Y116000D02*
X9334D01*
X9667D01*
Y114334D01*
X9334Y114000D01*
X9000D01*
X8667Y114334D01*
X10667Y114000D02*
X11333D01*
X11000D01*
Y116000D01*
X10667Y115666D01*
X29167Y140500D02*
X28500D01*
X28834D01*
Y138834D01*
X28500Y138500D01*
X28167D01*
X27834Y138834D01*
X30833Y138500D02*
Y140500D01*
X29833Y139500D01*
X31166D01*
X104500Y45550D02*
X102501D01*
Y46549D01*
X102834Y46883D01*
X103500D01*
X103834Y46549D01*
Y45550D01*
Y46216D02*
X104500Y46883D01*
Y47549D02*
Y48215D01*
Y47882D01*
X102501D01*
X102834Y47549D01*
X102501Y50548D02*
Y49215D01*
X103500D01*
X103167Y49882D01*
Y50215D01*
X103500Y50548D01*
X104167D01*
X104500Y50215D01*
Y49548D01*
X104167Y49215D01*
X104500Y85550D02*
X102501D01*
Y86549D01*
X102834Y86883D01*
X103500D01*
X103834Y86549D01*
Y85550D01*
Y86216D02*
X104500Y86883D01*
Y87549D02*
Y88215D01*
Y87882D01*
X102501D01*
X102834Y87549D01*
Y89215D02*
X102501Y89548D01*
Y90215D01*
X102834Y90548D01*
X103167D01*
X103500Y90215D01*
Y89881D01*
Y90215D01*
X103834Y90548D01*
X104167D01*
X104500Y90215D01*
Y89548D01*
X104167Y89215D01*
X104500Y65550D02*
X102501D01*
Y66549D01*
X102834Y66882D01*
X103500D01*
X103834Y66549D01*
Y65550D01*
Y66216D02*
X104500Y66882D01*
Y67549D02*
Y68215D01*
Y67882D01*
X102501D01*
X102834Y67549D01*
X104500Y70215D02*
X102501D01*
X103500Y69215D01*
Y70548D01*
X104500Y25550D02*
X102501D01*
Y26549D01*
X102834Y26882D01*
X103500D01*
X103834Y26549D01*
Y25550D01*
Y26216D02*
X104500Y26882D01*
Y27549D02*
Y28215D01*
Y27882D01*
X102501D01*
X102834Y27549D01*
X102501Y30548D02*
X102834Y29882D01*
X103500Y29215D01*
X104167D01*
X104500Y29548D01*
Y30215D01*
X104167Y30548D01*
X103834D01*
X103500Y30215D01*
Y29215D01*
X104500Y5550D02*
X102501D01*
Y6549D01*
X102834Y6882D01*
X103500D01*
X103834Y6549D01*
Y5550D01*
Y6216D02*
X104500Y6882D01*
Y7549D02*
Y8215D01*
Y7882D01*
X102501D01*
X102834Y7549D01*
X102501Y9215D02*
Y10548D01*
X102834D01*
X104167Y9215D01*
X104500D01*
Y105750D02*
X102501D01*
Y106749D01*
X102834Y107082D01*
X103500D01*
X103834Y106749D01*
Y105750D01*
Y106416D02*
X104500Y107082D01*
Y107749D02*
Y108415D01*
Y108082D01*
X102501D01*
X102834Y107749D01*
X104500Y110748D02*
Y109415D01*
X103167Y110748D01*
X102834D01*
X102501Y110415D01*
Y109748D01*
X102834Y109415D01*
X104500Y126383D02*
X102501D01*
Y127383D01*
X102834Y127716D01*
X103500D01*
X103834Y127383D01*
Y126383D01*
Y127049D02*
X104500Y127716D01*
Y128382D02*
Y129049D01*
Y128716D01*
X102501D01*
X102834Y128382D01*
X104500Y130049D02*
Y130715D01*
Y130382D01*
X102501D01*
X102834Y130049D01*
X104500Y146050D02*
X102501D01*
Y147049D01*
X102834Y147382D01*
X103500D01*
X103834Y147049D01*
Y146050D01*
Y146716D02*
X104500Y147382D01*
Y148049D02*
Y148715D01*
Y148382D01*
X102501D01*
X102834Y148049D01*
Y149715D02*
X102501Y150048D01*
Y150715D01*
X102834Y151048D01*
X104167D01*
X104500Y150715D01*
Y150048D01*
X104167Y149715D01*
X102834D01*
X84000Y143167D02*
Y144500D01*
Y143834D01*
X86000D01*
Y145167D02*
X84000D01*
Y146167D01*
X84333Y146500D01*
X85000D01*
X85333Y146167D01*
Y145167D01*
X86000Y147166D02*
Y147833D01*
Y147499D01*
X84000D01*
X84333Y147166D01*
M02*
